<svg xmlns="http://www.w3.org/2000/svg" xmlns:xlink="http://www.w3.org/1999/xlink" width="117" height="18" viewBox="0 0 117 18">
  <defs>
    <path id="refercodes-logotype-a" d="M5.4756,11.3292 L3.7872,11.3292 L3.7872,17.1 L0.5868,17.1 L0.5868,1.6272 L6.9624,1.6272 C10.2132,1.6272 12.3804,3.366 12.3804,6.5412 C12.3804,9.0108 11.0196,10.5732 8.8524,11.1024 L12.9348,17.1 L9.306,17.1 L5.4756,11.3292 Z M3.7872,4.374 L3.7872,8.6832 L6.7608,8.6832 C8.3736,8.6832 9.2052,7.8264 9.2052,6.5412 C9.2052,5.2308 8.3736,4.374 6.7608,4.374 L3.7872,4.374 Z M21.402,13.4208 L24.3,13.4208 C23.8968,15.8148 22.1328,17.352 19.3104,17.352 C16.0344,17.352 13.842,14.958 13.842,11.4804 C13.842,8.0784 16.11,5.5836 19.26,5.5836 C22.5612,5.5836 24.3756,7.8768 24.3756,11.178 L24.3756,12.1356 L16.866,12.1356 C16.9668,13.824 17.9244,14.832 19.3104,14.832 C20.3688,14.832 21.15,14.3784 21.402,13.4208 Z M19.2852,8.1288 C18.0756,8.1288 17.2188,8.8596 16.9416,10.2456 L21.3012,10.2456 C21.276,9.0612 20.5704,8.1288 19.2852,8.1288 Z M32.994,0.7956 C32.5404,0.594 31.986,0.4932 31.2552,0.4932 C28.8612,0.4932 27.2736,1.9548 27.2736,4.5 L27.2736,5.8356 L25.434,5.8356 L25.434,8.3556 L27.2736,8.3556 L27.2736,17.1 L30.348,17.1 L30.348,8.3556 L32.6916,8.3556 L32.6916,5.8356 L30.348,5.8356 L30.348,4.7016 C30.348,3.6684 30.9276,3.1392 31.8852,3.1392 C32.2632,3.1392 32.6664,3.2148 32.994,3.4416 L32.994,0.7956 Z M41.31,13.4208 L44.208,13.4208 C43.8048,15.8148 42.0408,17.352 39.2184,17.352 C35.9424,17.352 33.75,14.958 33.75,11.4804 C33.75,8.0784 36.018,5.5836 39.168,5.5836 C42.4692,5.5836 44.2836,7.8768 44.2836,11.178 L44.2836,12.1356 L36.774,12.1356 C36.8748,13.824 37.8324,14.832 39.2184,14.832 C40.2768,14.832 41.058,14.3784 41.31,13.4208 Z M39.1932,8.1288 C37.9836,8.1288 37.1268,8.8596 36.8496,10.2456 L41.2092,10.2456 C41.184,9.0612 40.4784,8.1288 39.1932,8.1288 Z M53.1288,5.7852 C52.9524,5.6844 52.4736,5.5836 51.9444,5.5836 C50.8356,5.5836 49.9032,6.138 49.4244,6.9444 L49.4244,5.8356 L46.2996,5.8356 L46.2996,17.1 L49.4244,17.1 L49.4244,10.1196 C49.6512,9.0864 50.508,8.532 51.5664,8.532 C52.146,8.532 52.7004,8.658 53.1288,8.91 L53.1288,5.7852 Z M54.54,9.3636 C54.54,14.1012 57.6144,17.352 61.7472,17.352 C65.4012,17.352 67.644,15.21 68.2236,12.0852 L65.0232,12.0852 C64.494,13.5216 63.5364,14.4792 61.7472,14.4792 C59.2776,14.4792 57.816,12.2868 57.816,9.3636 C57.816,6.4152 59.2776,4.248 61.7472,4.248 C63.5364,4.248 64.494,5.2056 65.0232,6.6168 L68.2236,6.6168 C67.644,3.5172 65.4012,1.3752 61.7472,1.3752 C57.6144,1.3752 54.54,4.626 54.54,9.3636 Z M80.6976,11.4804 C80.6976,14.9328 78.4548,17.352 75.1788,17.352 C71.9028,17.352 69.66,14.9328 69.66,11.4804 C69.66,8.0028 71.9028,5.5836 75.1788,5.5836 C78.4548,5.5836 80.6976,8.0028 80.6976,11.4804 Z M77.598,11.4804 C77.598,9.5904 76.7412,8.2296 75.1788,8.2296 C73.6164,8.2296 72.7596,9.5904 72.7596,11.4804 C72.7596,13.3452 73.6164,14.706 75.1788,14.706 C76.7412,14.706 77.598,13.3452 77.598,11.4804 Z M90.0468,17.1 L90.0468,16.1676 C89.5428,16.7724 88.434,17.352 87.2244,17.352 C83.9484,17.352 82.1088,14.706 82.1088,11.4804 C82.1088,8.2548 83.9484,5.5836 87.2244,5.5836 C88.434,5.5836 89.5428,6.1632 90.0468,6.768 L90.0468,0.72 L93.1968,0.72 L93.1968,17.1 L90.0468,17.1 Z M90.0468,13.32 L90.0468,9.6156 C89.694,8.8596 88.8372,8.3052 87.93,8.3052 C86.2416,8.3052 85.2336,9.666 85.2336,11.4804 C85.2336,13.2696 86.2416,14.6304 87.93,14.6304 C88.8624,14.6304 89.694,14.1012 90.0468,13.32 Z M102.7728,13.4208 L105.6708,13.4208 C105.2676,15.8148 103.5036,17.352 100.6812,17.352 C97.4052,17.352 95.2128,14.958 95.2128,11.4804 C95.2128,8.0784 97.4808,5.5836 100.6308,5.5836 C103.932,5.5836 105.7464,7.8768 105.7464,11.178 L105.7464,12.1356 L98.2368,12.1356 C98.3376,13.824 99.2952,14.832 100.6812,14.832 C101.7396,14.832 102.5208,14.3784 102.7728,13.4208 Z M100.656,8.1288 C99.4464,8.1288 98.5896,8.8596 98.3124,10.2456 L102.672,10.2456 C102.6468,9.0612 101.9412,8.1288 100.656,8.1288 Z M107.0568,13.7484 C107.3844,16.0416 109.3248,17.352 112.0716,17.352 C114.6924,17.352 116.6832,15.9912 116.6832,13.698 C116.6832,11.9844 115.65,10.9008 113.6844,10.422 L111.366,9.8928 C110.6604,9.7164 110.358,9.4644 110.358,9.0108 C110.358,8.3052 111.0888,7.9524 111.8448,7.9524 C112.878,7.9524 113.4072,8.4312 113.6088,9.0612 L116.5824,9.0612 C116.2044,6.9444 114.642,5.5836 111.7944,5.5836 C109.2744,5.5836 107.3088,7.0452 107.3088,9.2376 C107.3088,11.1276 108.5184,12.0096 110.232,12.4128 L112.5,12.9168 C113.2812,13.1184 113.634,13.3704 113.634,13.8744 C113.634,14.6052 113.004,14.9832 112.0464,14.9832 C111.114,14.9832 110.4084,14.5548 110.1564,13.7484 L107.0568,13.7484 Z"/>
  </defs>
  <g fill="none" fill-rule="evenodd">
    <use fill="#00141A" xlink:href="#refercodes-logotype-a"/>
  </g>
</svg>
