<svg width="177" height="48" viewBox="0 0 177 48" fill="none" xmlns="http://www.w3.org/2000/svg">
    <ellipse cx="24" cy="24" rx="24" ry="24" fill="url(#paint0_linear_217_9041)"/>
    <path d="M24.0001 48C37.2549 48 48.0001 37.2548 48.0001 24C48.0001 17.3645 45.3072 11.358 40.9548 7.01358L7.01367 40.9547C11.3581 45.3072 17.3646 48 24.0001 48Z" fill="url(#paint1_linear_217_9041)"/>
    <path fill-rule="evenodd" clip-rule="evenodd" d="M32.4758 15.5803C33.3424 16.4469 33.3424 17.8519 32.4758 18.7185L18.6012 32.5931C17.7347 33.4597 16.3296 33.4597 15.463 32.5931C14.5964 31.7265 14.5964 30.3215 15.463 29.4549L29.3376 15.5803C30.2042 14.7137 31.6092 14.7137 32.4758 15.5803Z" fill="white"/>
    <path opacity="0.5" fill-rule="evenodd" clip-rule="evenodd" d="M37.9353 9.97488C38.628 10.6675 38.628 11.7905 37.9353 12.4831L36.7436 13.6748C36.051 14.3675 34.928 14.3675 34.2354 13.6748C33.5427 12.9822 33.5427 11.8592 34.2354 11.1666L35.4271 9.97488C36.1197 9.28225 37.2427 9.28225 37.9353 9.97488Z" fill="white"/>
    <path opacity="0.3" fill-rule="evenodd" clip-rule="evenodd" d="M31.4656 6.82737C32.0811 7.44291 32.0811 8.44088 31.4656 9.05641L26.2717 14.2503C25.6561 14.8658 24.6582 14.8658 24.0426 14.2503C23.4271 13.6348 23.4271 12.6368 24.0426 12.0213L29.2365 6.82737C29.8521 6.21184 30.85 6.21184 31.4656 6.82737Z" fill="white"/>
    <path fill-rule="evenodd" clip-rule="evenodd" d="M21.2748 16.8941C22.1435 17.7628 22.1435 19.1711 21.2748 20.0398L18.6007 22.7139C17.732 23.5826 16.3237 23.5826 15.455 22.7139C14.5864 21.8453 14.5864 20.4369 15.455 19.5683L18.1292 16.8941C18.9978 16.0255 20.4062 16.0255 21.2748 16.8941Z" fill="white"/>
    <path d="M15.4082 22.6665C15.4233 22.6825 15.4386 22.6983 15.4542 22.7139C16.3229 23.5826 17.7312 23.5826 18.5999 22.7139L21.274 20.0398C22.1427 19.1711 22.1427 17.7627 21.274 16.8941C21.2584 16.8785 21.2426 16.8631 21.2267 16.8481L15.4082 22.6665Z" fill="url(#paint2_linear_217_9041)"/>
    <path opacity="0.3" fill-rule="evenodd" clip-rule="evenodd" d="M13.2998 25.005C13.8785 25.5838 13.8785 26.5221 13.2998 27.1008L8.71371 31.6869C8.13497 32.2656 7.19664 32.2656 6.6179 31.6869C6.03916 31.1081 6.03916 30.1698 6.6179 29.5911L11.2039 25.005C11.7827 24.4263 12.721 24.4263 13.2998 25.005Z" fill="white"/>
    <path opacity="0.2" fill-rule="evenodd" clip-rule="evenodd" d="M23.2205 5.96353C23.651 6.39403 23.651 7.09199 23.2205 7.52248L19.5237 11.2193C19.0932 11.6498 18.3952 11.6498 17.9647 11.2193C17.5342 10.7888 17.5342 10.0909 17.9647 9.66038L21.6616 5.96353C22.0921 5.53304 22.79 5.53304 23.2205 5.96353Z" fill="white"/>
    <path opacity="0.2" fill-rule="evenodd" clip-rule="evenodd" d="M15.8279 13.4515C16.2584 13.882 16.2584 14.5799 15.8279 15.0104L7.23509 23.6033C6.8046 24.0338 6.10663 24.0338 5.67614 23.6033C5.24565 23.1728 5.24565 22.4748 5.67614 22.0443L14.269 13.4515C14.6995 13.021 15.3975 13.021 15.8279 13.4515Z" fill="white"/>
    <path opacity="0.1" fill-rule="evenodd" clip-rule="evenodd" d="M13.8587 8.22794C14.1503 8.51955 14.1503 8.99235 13.8587 9.28396L10.1748 12.9679C9.88315 13.2595 9.41036 13.2595 9.11875 12.9679C8.82714 12.6763 8.82714 12.2035 9.11875 11.9119L12.8027 8.22794C13.0943 7.93633 13.5671 7.93633 13.8587 8.22794Z" fill="white"/>
    <path opacity="0.5" fill-rule="evenodd" clip-rule="evenodd" d="M9.99045 38.2033C9.29782 37.5107 9.29782 36.3877 9.99045 35.6951L11.1822 34.5034C11.8748 33.8107 12.9978 33.8107 13.6904 34.5034C14.383 35.196 14.383 36.319 13.6904 37.0116L12.4987 38.2033C11.8061 38.896 10.6831 38.896 9.99045 38.2033Z" fill="white"/>
    <path opacity="0.3" fill-rule="evenodd" clip-rule="evenodd" d="M16.4602 41.3508C15.8447 40.7353 15.8447 39.7373 16.4602 39.1218L21.6541 33.9279C22.2697 33.3124 23.2677 33.3124 23.8832 33.9279C24.4987 34.5435 24.4987 35.5414 23.8832 36.157L18.6893 41.3508C18.0737 41.9664 17.0758 41.9664 16.4602 41.3508Z" fill="white"/>
    <path fill-rule="evenodd" clip-rule="evenodd" d="M26.651 31.2841C25.7823 30.4155 25.7823 29.0071 26.651 28.1385L29.3251 25.4643C30.1938 24.5957 31.6021 24.5957 32.4708 25.4643C33.3394 26.333 33.3394 27.7413 32.4708 28.61L29.7966 31.2841C28.928 32.1528 27.5196 32.1528 26.651 31.2841Z" fill="white"/>
    <path d="M26.5664 31.1947C26.5937 31.2251 26.6219 31.2549 26.6511 31.2841C27.5198 32.1528 28.9282 32.1528 29.7968 31.2841L32.471 28.61C33.3396 27.7413 33.3396 26.3329 32.471 25.4643C32.4418 25.4351 32.4119 25.4068 32.3815 25.3795L26.5664 31.1947Z" fill="url(#paint3_linear_217_9041)"/>
    <path opacity="0.3" fill-rule="evenodd" clip-rule="evenodd" d="M34.6241 23.1732C34.0453 22.5945 34.0453 21.6561 34.6241 21.0774L39.2101 16.4914C39.7889 15.9126 40.7272 15.9126 41.3059 16.4914C41.8847 17.0701 41.8847 18.0084 41.3059 18.5872L36.7199 23.1732C36.1411 23.752 35.2028 23.752 34.6241 23.1732Z" fill="white"/>
    <path opacity="0.2" fill-rule="evenodd" clip-rule="evenodd" d="M24.7053 42.2147C24.2748 41.7842 24.2748 41.0862 24.7053 40.6557L28.4021 36.9589C28.8326 36.5284 29.5306 36.5284 29.961 36.9589C30.3915 37.3894 30.3915 38.0874 29.961 38.5178L26.2642 42.2147C25.8337 42.6452 25.1357 42.6452 24.7053 42.2147Z" fill="white"/>
    <path opacity="0.2" fill-rule="evenodd" clip-rule="evenodd" d="M32.0978 34.7267C31.6673 34.2962 31.6673 33.5983 32.0978 33.1678L40.6907 24.5749C41.1212 24.1444 41.8192 24.1444 42.2497 24.5749C42.6802 25.0054 42.6802 25.7034 42.2497 26.1339L33.6568 34.7267C33.2263 35.1572 32.5283 35.1572 32.0978 34.7267Z" fill="white"/>
    <path opacity="0.1" fill-rule="evenodd" clip-rule="evenodd" d="M34.0651 39.9503C33.7735 39.6587 33.7735 39.1859 34.0651 38.8943L37.7491 35.2103C38.0407 34.9187 38.5135 34.9187 38.8051 35.2103C39.0967 35.5019 39.0967 35.9747 38.8051 36.2663L35.1211 39.9503C34.8295 40.2419 34.3567 40.2419 34.0651 39.9503Z" fill="#ECE8FA"/>
    <path d="M15.4199 32.5483C15.4342 32.5634 15.4487 32.5783 15.4635 32.5931C16.3301 33.4597 17.7351 33.4597 18.6017 32.5931L32.4763 18.7186C33.3429 17.852 33.3429 16.4469 32.4763 15.5803C32.4615 15.5655 32.4466 15.551 32.4315 15.5367L15.4199 32.5483Z" fill="url(#paint4_linear_217_9041)"/>
    <path d="M75.1593 31.152C75.2553 31.36 75.3033 31.568 75.3033 31.776C75.3033 32.144 75.1513 32.456 74.8473 32.712C74.5593 32.968 74.2233 33.096 73.8393 33.096C73.5833 33.096 73.3433 33.032 73.1193 32.904C72.8953 32.76 72.7193 32.544 72.5913 32.256L71.1513 29.04H62.7033L61.2633 32.256C61.1353 32.544 60.9593 32.76 60.7353 32.904C60.5113 33.032 60.2633 33.096 59.9913 33.096C59.6233 33.096 59.2873 32.968 58.9833 32.712C58.6793 32.456 58.5273 32.144 58.5273 31.776C58.5273 31.568 58.5753 31.36 58.6713 31.152L65.2953 16.92C65.4393 16.6 65.6553 16.36 65.9433 16.2C66.2473 16.024 66.5673 15.936 66.9033 15.936C67.2393 15.936 67.5513 16.024 67.8393 16.2C68.1433 16.36 68.3673 16.6 68.5113 16.92L75.1593 31.152ZM63.7593 26.64H70.0953L66.9273 19.512L63.7593 26.64Z" fill="#1B3155"/>
    <path d="M79.1718 33.144C78.7078 33.144 78.3318 33.008 78.0438 32.736C77.7718 32.448 77.6358 32.064 77.6358 31.584V17.544C77.6358 17.08 77.7638 16.72 78.0198 16.464C78.2918 16.208 78.6598 16.08 79.1238 16.08H85.0278C86.8358 16.08 88.2438 16.536 89.2518 17.448C90.2598 18.344 90.7638 19.608 90.7638 21.24C90.7638 22.872 90.2598 24.144 89.2518 25.056C88.2438 25.968 86.8358 26.424 85.0278 26.424H80.7318V31.584C80.7318 32.064 80.5878 32.448 80.2998 32.736C80.0278 33.008 79.6518 33.144 79.1718 33.144ZM84.6438 24.048C86.7718 24.048 87.8358 23.12 87.8358 21.264C87.8358 19.408 86.7718 18.48 84.6438 18.48H80.7318V24.048H84.6438Z" fill="#1B3155"/>
    <path d="M103.922 16.488C104.21 16.136 104.554 15.96 104.954 15.96C105.322 15.96 105.65 16.104 105.938 16.392C106.226 16.664 106.37 16.992 106.37 17.376C106.37 17.696 106.25 18 106.01 18.288L100.562 24.936V31.584C100.562 32.08 100.418 32.464 100.13 32.736C99.8424 33.008 99.4744 33.144 99.0264 33.144C98.5624 33.144 98.1864 33.008 97.8984 32.736C97.6104 32.464 97.4664 32.08 97.4664 31.584V24.936L92.0184 18.288C91.7784 18 91.6584 17.696 91.6584 17.376C91.6584 16.992 91.8024 16.664 92.0904 16.392C92.3784 16.104 92.7064 15.96 93.0744 15.96C93.4744 15.96 93.8184 16.136 94.1064 16.488L99.0264 22.584L103.922 16.488Z" fill="#1B3155"/>
    <path d="M107.897 33.144C107.385 33.144 106.961 32.976 106.625 32.64C106.289 32.288 106.121 31.856 106.121 31.344C106.121 30.832 106.289 30.408 106.625 30.072C106.961 29.72 107.385 29.544 107.897 29.544C108.409 29.544 108.833 29.72 109.169 30.072C109.505 30.408 109.673 30.832 109.673 31.344C109.673 31.856 109.505 32.288 109.169 32.64C108.833 32.976 108.409 33.144 107.897 33.144Z" fill="#1B3155"/>
    <path d="M121.098 21.672C121.274 21.288 121.554 21.096 121.938 21.096C122.178 21.096 122.394 21.176 122.586 21.336C122.778 21.496 122.874 21.696 122.874 21.936C122.874 22.08 122.842 22.208 122.778 22.32L118.098 32.4C118.002 32.608 117.858 32.776 117.666 32.904C117.474 33.016 117.266 33.072 117.042 33.072C116.834 33.072 116.634 33.016 116.442 32.904C116.25 32.776 116.098 32.608 115.986 32.4L111.33 22.32C111.266 22.208 111.234 22.088 111.234 21.96C111.234 21.72 111.338 21.512 111.546 21.336C111.77 21.16 112.01 21.072 112.266 21.072C112.426 21.072 112.578 21.12 112.722 21.216C112.882 21.312 113.002 21.448 113.082 21.624L117.09 30.624L121.098 21.672Z" fill="#1B3155"/>
    <path d="M126.291 33.12C126.003 33.12 125.763 33.04 125.571 32.88C125.395 32.704 125.307 32.464 125.307 32.16V22.032C125.307 21.728 125.395 21.496 125.571 21.336C125.763 21.16 126.003 21.072 126.291 21.072C126.579 21.072 126.811 21.16 126.987 21.336C127.163 21.496 127.251 21.728 127.251 22.032V32.16C127.251 32.48 127.163 32.72 126.987 32.88C126.811 33.04 126.579 33.12 126.291 33.12ZM126.291 18.552C125.907 18.552 125.595 18.44 125.355 18.216C125.115 17.992 124.995 17.696 124.995 17.328C124.995 16.976 125.115 16.688 125.355 16.464C125.595 16.24 125.907 16.128 126.291 16.128C126.675 16.128 126.987 16.24 127.227 16.464C127.467 16.688 127.587 16.976 127.587 17.328C127.587 17.696 127.467 17.992 127.227 18.216C126.987 18.44 126.675 18.552 126.291 18.552Z" fill="#1B3155"/>
    <path d="M134.821 33.168C134.085 33.168 133.381 33.08 132.709 32.904C132.053 32.728 131.469 32.48 130.957 32.16C130.669 31.968 130.461 31.792 130.333 31.632C130.221 31.456 130.165 31.248 130.165 31.008C130.165 30.8 130.221 30.632 130.333 30.504C130.461 30.36 130.621 30.288 130.813 30.288C131.005 30.288 131.285 30.408 131.653 30.648C132.133 30.936 132.605 31.168 133.069 31.344C133.549 31.504 134.141 31.584 134.845 31.584C135.709 31.584 136.381 31.432 136.861 31.128C137.341 30.824 137.581 30.384 137.581 29.808C137.581 29.456 137.493 29.176 137.317 28.968C137.141 28.744 136.837 28.552 136.405 28.392C135.973 28.216 135.341 28.04 134.509 27.864C133.101 27.56 132.093 27.152 131.485 26.64C130.877 26.128 130.573 25.432 130.573 24.552C130.573 23.864 130.765 23.256 131.149 22.728C131.533 22.2 132.061 21.784 132.733 21.48C133.421 21.176 134.197 21.024 135.061 21.024C135.685 21.024 136.285 21.112 136.861 21.288C137.453 21.448 137.973 21.68 138.421 21.984C138.965 22.368 139.237 22.768 139.237 23.184C139.237 23.392 139.173 23.568 139.045 23.712C138.917 23.856 138.765 23.928 138.589 23.928C138.397 23.928 138.109 23.792 137.725 23.52C137.277 23.232 136.853 23.008 136.453 22.848C136.053 22.688 135.557 22.608 134.965 22.608C134.213 22.608 133.605 22.776 133.141 23.112C132.693 23.448 132.469 23.896 132.469 24.456C132.469 24.808 132.549 25.096 132.709 25.32C132.885 25.528 133.165 25.72 133.549 25.896C133.949 26.056 134.517 26.216 135.253 26.376C136.341 26.616 137.181 26.88 137.773 27.168C138.381 27.456 138.813 27.808 139.069 28.224C139.325 28.64 139.453 29.168 139.453 29.808C139.453 30.816 139.029 31.632 138.181 32.256C137.333 32.864 136.213 33.168 134.821 33.168Z" fill="#1B3155"/>
    <path d="M143.401 33.12C143.113 33.12 142.873 33.04 142.681 32.88C142.505 32.704 142.417 32.464 142.417 32.16V22.032C142.417 21.728 142.505 21.496 142.681 21.336C142.873 21.16 143.113 21.072 143.401 21.072C143.689 21.072 143.921 21.16 144.097 21.336C144.273 21.496 144.361 21.728 144.361 22.032V32.16C144.361 32.48 144.273 32.72 144.097 32.88C143.921 33.04 143.689 33.12 143.401 33.12ZM143.401 18.552C143.017 18.552 142.705 18.44 142.465 18.216C142.225 17.992 142.105 17.696 142.105 17.328C142.105 16.976 142.225 16.688 142.465 16.464C142.705 16.24 143.017 16.128 143.401 16.128C143.785 16.128 144.097 16.24 144.337 16.464C144.577 16.688 144.697 16.976 144.697 17.328C144.697 17.696 144.577 17.992 144.337 18.216C144.097 18.44 143.785 18.552 143.401 18.552Z" fill="#1B3155"/>
    <path d="M152.843 33.168C151.739 33.168 150.763 32.92 149.915 32.424C149.083 31.928 148.435 31.224 147.971 30.312C147.523 29.384 147.299 28.312 147.299 27.096C147.299 25.88 147.523 24.816 147.971 23.904C148.435 22.976 149.083 22.264 149.915 21.768C150.763 21.272 151.739 21.024 152.843 21.024C153.947 21.024 154.923 21.272 155.771 21.768C156.619 22.264 157.267 22.976 157.715 23.904C158.179 24.816 158.411 25.88 158.411 27.096C158.411 28.312 158.179 29.384 157.715 30.312C157.267 31.224 156.619 31.928 155.771 32.424C154.923 32.92 153.947 33.168 152.843 33.168ZM152.843 31.56C153.995 31.56 154.875 31.184 155.483 30.432C156.107 29.664 156.419 28.552 156.419 27.096C156.419 25.672 156.107 24.576 155.483 23.808C154.859 23.024 153.979 22.632 152.843 22.632C151.707 22.632 150.827 23.024 150.203 23.808C149.579 24.576 149.267 25.672 149.267 27.096C149.267 28.536 149.571 29.64 150.179 30.408C150.803 31.176 151.691 31.56 152.843 31.56Z" fill="#1B3155"/>
    <path d="M167.187 21.024C169.987 21.024 171.387 22.568 171.387 25.656V32.16C171.387 32.464 171.299 32.704 171.123 32.88C170.963 33.04 170.731 33.12 170.427 33.12C170.123 33.12 169.883 33.04 169.707 32.88C169.531 32.704 169.443 32.464 169.443 32.16V25.776C169.443 24.688 169.227 23.896 168.795 23.4C168.379 22.904 167.707 22.656 166.779 22.656C165.707 22.656 164.851 22.984 164.211 23.64C163.571 24.296 163.251 25.184 163.251 26.304V32.16C163.251 32.464 163.163 32.704 162.987 32.88C162.827 33.04 162.595 33.12 162.291 33.12C161.987 33.12 161.747 33.04 161.571 32.88C161.395 32.704 161.307 32.464 161.307 32.16V22.032C161.307 21.744 161.395 21.512 161.571 21.336C161.747 21.16 161.987 21.072 162.291 21.072C162.579 21.072 162.803 21.16 162.963 21.336C163.139 21.512 163.227 21.736 163.227 22.008V23.232C163.611 22.512 164.147 21.968 164.835 21.6C165.523 21.216 166.307 21.024 167.187 21.024Z" fill="#1B3155"/>
    <defs>
        <linearGradient id="paint0_linear_217_9041" x1="0" y1="0" x2="55.0899" y2="10.3831" gradientUnits="userSpaceOnUse">
            <stop stop-color="#D506D6"/>
            <stop offset="1" stop-color="#6B57B8"/>
        </linearGradient>
        <linearGradient id="paint1_linear_217_9041" x1="25.6321" y1="7.008" x2="25.6321" y2="48" gradientUnits="userSpaceOnUse">
            <stop stop-color="#5C2F97"/>
            <stop offset="1" stop-color="#5C2F97" stop-opacity="0"/>
        </linearGradient>
        <linearGradient id="paint2_linear_217_9041" x1="18.6669" y1="16.8481" x2="18.6669" y2="23.3976" gradientUnits="userSpaceOnUse">
            <stop stop-color="#E8EAEE"/>
            <stop offset="1" stop-color="#E8EAEE" stop-opacity="0"/>
        </linearGradient>
        <linearGradient id="paint3_linear_217_9041" x1="29.8444" y1="25.3795" x2="29.8444" y2="31.968" gradientUnits="userSpaceOnUse">
            <stop stop-color="#E8EAEE"/>
            <stop offset="1" stop-color="#E8EAEE" stop-opacity="0"/>
        </linearGradient>
        <linearGradient id="paint4_linear_217_9041" x1="24.2731" y1="15.5367" x2="24.2731" y2="35.28" gradientUnits="userSpaceOnUse">
            <stop stop-color="#E8EAEE"/>
            <stop offset="1" stop-color="#E8EAEE" stop-opacity="0"/>
        </linearGradient>
    </defs>
</svg>
