<svg xmlns="http://www.w3.org/2000/svg" width="480" height="240" viewBox="0 0 480 240" fill="none">
<path d="M19.1197 145.134V121.496H11.0113C11.313 130.301 14.2817 138.436 19.1197 145.134ZM30.2402 155.836V121.496H22.1058V148.834C24.5108 151.493 27.2455 153.844 30.2402 155.836ZM52.4933 121.496H44.3461V161.924C46.9749 162.527 49.6945 162.891 52.4812 162.987L52.4933 121.496ZM79.1067 154.871H55.4793V162.985C64.2806 162.683 72.412 159.712 79.1067 154.871ZM89.8029 143.745H55.4793V151.883H82.8053C85.4621 149.477 87.812 146.741 89.8029 143.745ZM55.4793 121.494V129.63H95.8864C96.4901 127.001 96.8537 124.281 96.9491 121.494H55.4793ZM88.8538 94.866V118.504H96.9627C96.6604 109.699 93.6921 101.564 88.8538 94.866ZM77.7332 84.1635V118.504H85.8683V91.1657C83.4629 88.5072 80.7279 86.1556 77.7332 84.1635ZM55.4803 118.504H63.6275V78.0764C60.9987 77.4726 58.2789 77.1081 55.4924 77.013L55.4803 118.504ZM28.8671 85.129H52.494V77.0151C43.693 77.317 35.5621 80.2875 28.8671 85.129ZM18.1707 96.2558H52.494V88.1167H25.1689C22.5119 90.523 20.1617 93.2594 18.1707 96.2558ZM52.494 118.506V110.37H12.087C11.4836 112.999 11.12 115.719 11.0242 118.506H52.494ZM33.2255 121.496V157.659C35.7883 159.078 38.5129 160.236 41.3599 161.112V121.496H33.2255ZM74.7477 118.504V82.3408C72.1848 80.9222 69.4607 79.7644 66.6135 78.8883V118.504H74.7477ZM12.8985 107.382H52.494V99.2427H16.349C14.9312 101.807 13.7741 104.533 12.8985 107.382ZM95.0752 132.618H55.4793V140.757H91.6244C93.0427 138.193 94.1994 135.467 95.0752 132.618ZM8 118.506H8.05113C8.82878 94.3256 28.3393 74.8098 52.5085 74.0404V74H54.0004C54.0328 74 54.0652 74.0022 54.0976 74.0029H55.4793V74.0375C79.6485 74.8076 99.1581 94.3235 99.9358 118.504H99.9604V119.473C99.9622 119.649 99.9735 119.824 99.9735 120V121.494H99.9225C99.1446 145.674 79.6344 165.19 55.4651 165.96V166H53.973C53.945 166 53.9176 165.998 53.8903 165.998H52.494V165.963C28.3249 165.192 8.81581 145.677 8.03744 121.496H8.01297V120.527C8.01153 120.351 8 120.176 8 120V118.506Z" fill="#002147"/>
<path d="M174.833 110.512H163.388C163.179 109.031 162.752 107.716 162.108 106.566C161.463 105.398 160.636 104.405 159.626 103.586C158.615 102.767 157.448 102.14 156.124 101.705C154.818 101.269 153.398 101.051 151.865 101.051C149.096 101.051 146.683 101.739 144.628 103.116C142.572 104.475 140.978 106.461 139.846 109.075C138.714 111.671 138.148 114.825 138.148 118.536C138.148 122.352 138.714 125.558 139.846 128.155C140.996 130.751 142.598 132.711 144.654 134.035C146.709 135.359 149.087 136.022 151.787 136.022C153.302 136.022 154.705 135.821 155.994 135.42C157.3 135.02 158.459 134.436 159.469 133.669C160.479 132.885 161.315 131.936 161.977 130.82C162.657 129.705 163.127 128.433 163.388 127.005L174.833 127.057C174.536 129.514 173.796 131.883 172.612 134.166C171.445 136.431 169.868 138.461 167.882 140.256C165.914 142.033 163.562 143.444 160.828 144.49C158.11 145.518 155.036 146.032 151.604 146.032C146.831 146.032 142.563 144.952 138.801 142.791C135.056 140.63 132.095 137.503 129.917 133.408C127.757 129.313 126.677 124.356 126.677 118.536C126.677 112.699 127.775 107.733 129.969 103.639C132.164 99.5439 135.143 96.425 138.905 94.2818C142.668 92.1212 146.901 91.0409 151.604 91.0409C154.705 91.0409 157.579 91.4765 160.227 92.3477C162.892 93.2189 165.252 94.4909 167.307 96.1636C169.363 97.8189 171.035 99.8489 172.324 102.253C173.631 104.658 174.467 107.411 174.833 110.512Z" fill="#002147"/>
<path d="M198.663 146.084C194.604 146.084 191.094 145.222 188.133 143.497C185.189 141.754 182.916 139.332 181.313 136.231C179.71 133.112 178.909 129.496 178.909 125.384C178.909 121.237 179.71 117.613 181.313 114.511C182.916 111.392 185.189 108.97 188.133 107.245C191.094 105.503 194.604 104.632 198.663 104.632C202.721 104.632 206.223 105.503 209.166 107.245C212.128 108.97 214.41 111.392 216.012 114.511C217.615 117.613 218.416 121.237 218.416 125.384C218.416 129.496 217.615 133.112 216.012 136.231C214.41 139.332 212.128 141.754 209.166 143.497C206.223 145.222 202.721 146.084 198.663 146.084ZM198.715 137.459C200.561 137.459 202.103 136.936 203.34 135.891C204.576 134.828 205.508 133.382 206.135 131.552C206.78 129.723 207.102 127.641 207.102 125.306C207.102 122.971 206.78 120.889 206.135 119.059C205.508 117.23 204.576 115.783 203.34 114.72C202.103 113.658 200.561 113.126 198.715 113.126C196.851 113.126 195.283 113.658 194.012 114.72C192.757 115.783 191.808 117.23 191.164 119.059C190.537 120.889 190.223 122.971 190.223 125.306C190.223 127.641 190.537 129.723 191.164 131.552C191.808 133.382 192.757 134.828 194.012 135.891C195.283 136.936 196.851 137.459 198.715 137.459Z" fill="#002147"/>
<path d="M223.446 145.3V105.155H234.577V145.3H223.446ZM229.038 99.9795C227.383 99.9795 225.963 99.4307 224.779 98.333C223.612 97.2178 223.028 95.8848 223.028 94.3341C223.028 92.8008 223.612 91.4852 224.779 90.3875C225.963 89.2723 227.383 88.7148 229.038 88.7148C230.693 88.7148 232.104 89.2723 233.271 90.3875C234.455 91.4852 235.048 92.8008 235.048 94.3341C235.048 95.8848 234.455 97.2178 233.271 98.333C232.104 99.4307 230.693 99.9795 229.038 99.9795Z" fill="#002147"/>
<path d="M252.417 122.091V145.3H241.286V105.155H251.895V112.237H252.365C253.253 109.903 254.743 108.056 256.833 106.697C258.923 105.32 261.458 104.632 264.436 104.632C267.224 104.632 269.653 105.242 271.726 106.461C273.799 107.681 275.411 109.423 276.56 111.689C277.71 113.936 278.285 116.62 278.285 119.739V145.3H267.154V121.725C267.171 119.268 266.544 117.352 265.273 115.975C264.001 114.581 262.25 113.884 260.021 113.884C258.523 113.884 257.199 114.206 256.049 114.851C254.917 115.496 254.028 116.437 253.384 117.674C252.757 118.894 252.435 120.366 252.417 122.091Z" fill="#002147"/>
<path d="M306.433 105.155V113.518H281.662V105.155H306.433ZM287.332 145.3V102.253C287.332 99.3436 287.898 96.9303 289.031 95.0136C290.18 93.097 291.748 91.6595 293.734 90.7011C295.72 89.7428 297.976 89.2636 300.501 89.2636C302.208 89.2636 303.767 89.3943 305.178 89.6557C306.607 89.917 307.669 90.1523 308.366 90.3614L306.38 98.725C305.945 98.5856 305.405 98.4549 304.76 98.333C304.133 98.211 303.489 98.15 302.827 98.15C301.189 98.15 300.048 98.5333 299.404 99.3C298.759 100.049 298.437 101.103 298.437 102.462V145.3H287.332Z" fill="#002147"/>
<path d="M327.878 146.084C323.75 146.084 320.196 145.248 317.218 143.575C314.256 141.885 311.975 139.498 310.372 136.414C308.769 133.312 307.968 129.644 307.968 125.41C307.968 121.281 308.769 117.656 310.372 114.537C311.975 111.419 314.23 108.988 317.139 107.245C320.066 105.503 323.497 104.632 327.434 104.632C330.082 104.632 332.547 105.059 334.829 105.912C337.128 106.749 339.131 108.012 340.838 109.702C342.563 111.392 343.904 113.518 344.862 116.08C345.82 118.623 346.299 121.603 346.299 125.018V128.076H312.41V121.176H335.821C335.821 119.573 335.473 118.153 334.776 116.916C334.08 115.679 333.113 114.712 331.876 114.015C330.657 113.3 329.237 112.943 327.617 112.943C325.927 112.943 324.429 113.335 323.123 114.119C321.834 114.886 320.824 115.923 320.092 117.23C319.36 118.519 318.986 119.956 318.968 121.542V128.102C318.968 130.089 319.334 131.805 320.066 133.251C320.815 134.697 321.869 135.812 323.227 136.597C324.586 137.381 326.197 137.773 328.061 137.773C329.298 137.773 330.43 137.598 331.458 137.25C332.486 136.902 333.365 136.379 334.097 135.682C334.829 134.985 335.386 134.131 335.769 133.12L346.064 133.8C345.541 136.274 344.47 138.435 342.85 140.282C341.248 142.111 339.175 143.54 336.631 144.568C334.106 145.579 331.188 146.084 327.878 146.084Z" fill="#002147"/>
<path d="M369.646 146.084C365.517 146.084 361.964 145.248 358.985 143.575C356.024 141.885 353.742 139.498 352.139 136.414C350.537 133.312 349.736 129.644 349.736 125.41C349.736 121.281 350.537 117.656 352.139 114.537C353.742 111.419 355.998 108.988 358.907 107.245C361.833 105.503 365.265 104.632 369.202 104.632C371.849 104.632 374.314 105.059 376.596 105.912C378.895 106.749 380.899 108.012 382.606 109.702C384.33 111.392 385.671 113.518 386.629 116.08C387.588 118.623 388.067 121.603 388.067 125.018V128.076H354.177V121.176H377.589C377.589 119.573 377.241 118.153 376.544 116.916C375.847 115.679 374.88 114.712 373.643 114.015C372.424 113.3 371.004 112.943 369.384 112.943C367.695 112.943 366.197 113.335 364.89 114.119C363.601 114.886 362.591 115.923 361.859 117.23C361.128 118.519 360.753 119.956 360.736 121.542V128.102C360.736 130.089 361.102 131.805 361.833 133.251C362.582 134.697 363.636 135.812 364.995 136.597C366.354 137.381 367.965 137.773 369.829 137.773C371.065 137.773 372.198 137.598 373.225 137.25C374.253 136.902 375.133 136.379 375.864 135.682C376.596 134.985 377.153 134.131 377.537 133.12L387.831 133.8C387.309 136.274 386.238 138.435 384.618 140.282C383.015 142.111 380.942 143.54 378.399 144.568C375.873 145.579 372.955 146.084 369.646 146.084Z" fill="#002147"/>
<path d="M407.912 145.953C404.864 145.953 402.103 145.169 399.629 143.601C397.173 142.016 395.222 139.689 393.776 136.623C392.348 133.539 391.634 129.758 391.634 125.28C391.634 120.68 392.374 116.855 393.855 113.806C395.335 110.739 397.304 108.448 399.76 106.932C402.233 105.398 404.942 104.632 407.886 104.632C410.133 104.632 412.005 105.015 413.504 105.782C415.019 106.531 416.238 107.472 417.162 108.605C418.102 109.72 418.816 110.817 419.304 111.898H419.644V91.7727H430.749V145.3H419.774V138.87H419.304C418.782 139.986 418.041 141.092 417.083 142.19C416.143 143.27 414.914 144.167 413.399 144.882C411.901 145.596 410.072 145.953 407.912 145.953ZM411.439 137.093C413.234 137.093 414.749 136.605 415.986 135.63C417.24 134.636 418.198 133.251 418.86 131.474C419.539 129.697 419.879 127.614 419.879 125.227C419.879 122.84 419.548 120.767 418.886 119.007C418.224 117.247 417.266 115.888 416.012 114.93C414.758 113.971 413.234 113.492 411.439 113.492C409.61 113.492 408.069 113.989 406.815 114.982C405.56 115.975 404.611 117.352 403.966 119.111C403.322 120.871 403 122.91 403 125.227C403 127.562 403.322 129.627 403.966 131.422C404.628 133.199 405.578 134.593 406.815 135.603C408.069 136.597 409.61 137.093 411.439 137.093Z" fill="#002147"/>
<path d="M471.085 116.602L460.895 117.23C460.721 116.358 460.347 115.574 459.772 114.877C459.197 114.163 458.439 113.597 457.498 113.178C456.575 112.743 455.469 112.525 454.18 112.525C452.456 112.525 451.001 112.891 449.817 113.623C448.632 114.337 448.04 115.295 448.04 116.498C448.04 117.456 448.423 118.266 449.19 118.928C449.956 119.591 451.271 120.122 453.135 120.523L460.399 121.986C464.301 122.788 467.21 124.077 469.126 125.855C471.042 127.632 472 129.967 472 132.859C472 135.49 471.225 137.799 469.675 139.785C468.142 141.772 466.034 143.322 463.351 144.437C460.686 145.535 457.612 146.084 454.128 146.084C448.815 146.084 444.582 144.978 441.429 142.765C438.294 140.534 436.456 137.503 435.916 133.669L446.864 133.094C447.195 134.715 447.996 135.952 449.268 136.806C450.54 137.642 452.168 138.06 454.154 138.06C456.105 138.06 457.673 137.686 458.857 136.936C460.059 136.17 460.669 135.185 460.686 133.983C460.669 132.972 460.242 132.145 459.406 131.5C458.57 130.838 457.281 130.333 455.539 129.984L448.589 128.599C444.669 127.815 441.751 126.456 439.835 124.522C437.937 122.587 436.987 120.122 436.987 117.125C436.987 114.546 437.684 112.325 439.078 110.46C440.489 108.596 442.466 107.158 445.009 106.148C447.57 105.137 450.566 104.632 453.997 104.632C459.066 104.632 463.055 105.703 465.964 107.847C468.891 109.99 470.598 112.908 471.085 116.602Z" fill="#002147"/>
</svg>