<svg xmlns="http://www.w3.org/2000/svg" width="160" height="42" fill="none"><path fill="#161617" d="M66.873 27.955c-1.018 0-1.96-.166-2.826-.497a6.93 6.93 0 0 1-2.234-1.435 6.932 6.932 0 0 1-1.47-2.181c-.357-.83-.535-1.741-.535-2.736 0-.995.178-1.907.534-2.736a6.562 6.562 0 0 1 1.49-2.162 6.527 6.527 0 0 1 2.234-1.435c.866-.344 1.808-.516 2.826-.516 1.032 0 1.98.178 2.846.536.878.344 1.623.86 2.234 1.55l-1.241 1.204a4.85 4.85 0 0 0-1.719-1.186 5.215 5.215 0 0 0-2.043-.401c-.751 0-1.451.127-2.1.382a5.036 5.036 0 0 0-1.662 1.072 4.93 4.93 0 0 0-1.108 1.645 5.375 5.375 0 0 0-.382 2.047c0 .74.128 1.428.382 2.066a4.981 4.981 0 0 0 1.108 1.626c.47.46 1.025.817 1.661 1.072.65.255 1.35.382 2.1.382.727 0 1.408-.127 2.044-.382a4.963 4.963 0 0 0 1.719-1.225l1.241 1.206a5.924 5.924 0 0 1-2.234 1.568c-.866.357-1.82.536-2.865.536ZM89.045 27.955a7.726 7.726 0 0 1-2.846-.516 6.879 6.879 0 0 1-2.253-1.435 6.776 6.776 0 0 1-1.49-2.181c-.356-.83-.534-1.735-.534-2.717s.178-1.888.534-2.717a6.56 6.56 0 0 1 1.49-2.162 6.725 6.725 0 0 1 2.253-1.454c.866-.344 1.814-.516 2.846-.516 1.018 0 1.954.172 2.807.516.866.332 1.617.81 2.253 1.435a6.202 6.202 0 0 1 1.49 2.162c.356.83.534 1.741.534 2.736 0 .995-.178 1.907-.534 2.736a6.397 6.397 0 0 1-1.49 2.18 6.882 6.882 0 0 1-2.253 1.436c-.853.331-1.789.497-2.807.497Zm0-1.703c.738 0 1.42-.127 2.043-.382a4.825 4.825 0 0 0 1.642-1.072 4.945 4.945 0 0 0 1.089-1.645 5.15 5.15 0 0 0 .4-2.047 5.15 5.15 0 0 0-.4-2.047 4.74 4.74 0 0 0-1.089-1.626 4.691 4.691 0 0 0-1.642-1.09 5.347 5.347 0 0 0-2.043-.383c-.751 0-1.445.127-2.082.382a4.936 4.936 0 0 0-1.642 1.09 4.98 4.98 0 0 0-1.108 1.627 5.375 5.375 0 0 0-.382 2.047c0 .74.128 1.422.382 2.047a5.203 5.203 0 0 0 1.108 1.645c.47.46 1.018.817 1.642 1.072.637.255 1.33.382 2.082.382ZM107.642 27.802V14.41h5.213c1.171 0 2.171.185 2.998.555.828.37 1.464.905 1.91 1.607.446.701.668 1.537.668 2.506 0 .97-.222 1.805-.668 2.506-.446.689-1.082 1.218-1.91 1.588-.827.37-1.827.555-2.998.555h-4.163l.859-.88v4.955h-1.909Zm8.937 0-3.399-4.86h2.043l3.438 4.86h-2.082Zm-7.028-4.764-.859-.937h4.106c1.222 0 2.145-.262 2.769-.785.636-.535.955-1.281.955-2.238 0-.957-.319-1.696-.955-2.22-.624-.522-1.547-.784-2.769-.784h-4.106l.859-.956v7.92ZM131.848 20.188h6.875v1.626h-6.875v-1.626Zm.172 5.95h7.791v1.664h-9.701V14.41h9.434v1.664h-7.524v10.064ZM29.408 10.508l3.649 2.053 1.518-1.481 5.086-.572 2.986 3.33.5 4.8-3.486 3.085-6.604 2.717-8.082-3.248-2.049-4.157 1.519-4.842 4.963-1.685Z"/><path fill="#F5F5F9" fill-rule="evenodd" d="M22.798 33.303c-3.243 0-6.288-.693-8.922-1.908l10.718-9.801a6.626 6.626 0 0 1-2.425-5.132c0-2.106.979-3.982 2.506-5.198V9.828h4.116a6.59 6.59 0 0 1 4.33 1.614 6.59 6.59 0 0 1 4.33-1.614h4.116v1.436a6.627 6.627 0 0 1 2.506 5.198 6.636 6.636 0 0 1-3.787 5.997c-.8 2.369-2.306 4.499-4.322 6.231v3.062h-5.067c-2.438.993-5.188 1.551-8.099 1.551Zm5.993-11.737c1.206 0 2.314-.42 3.186-1.121l1.134 2.558 1.14-2.57a5.067 5.067 0 0 0 3.2 1.133 5.099 5.099 0 0 0 5.094-5.104 5.099 5.099 0 0 0-5.094-5.103 5.089 5.089 0 0 0-4.33 2.413 5.089 5.089 0 0 0-4.33-2.413 5.099 5.099 0 0 0-5.094 5.103 5.099 5.099 0 0 0 5.094 5.104Zm0-1.532a3.57 3.57 0 0 0 3.566-3.572 3.57 3.57 0 0 0-3.566-3.572 3.57 3.57 0 0 0-3.566 3.572 3.57 3.57 0 0 0 3.566 3.572Zm0-1.53a2.04 2.04 0 0 0 2.038-2.042 2.04 2.04 0 0 0-2.038-2.041 2.04 2.04 0 0 0-2.037 2.04 2.04 2.04 0 0 0 2.037 2.042Zm12.226-2.042a3.57 3.57 0 0 1-3.566 3.572 3.57 3.57 0 0 1-3.566-3.572 3.57 3.57 0 0 1 3.566-3.572 3.57 3.57 0 0 1 3.566 3.572Zm-1.528 0a2.04 2.04 0 0 1-2.038 2.041 2.04 2.04 0 0 1-2.037-2.041 2.04 2.04 0 0 1 2.037-2.041 2.04 2.04 0 0 1 2.038 2.04Z" clip-rule="evenodd"/><path fill="#161617" fill-rule="evenodd" d="M12.035 31.681 23.09 21.574a7.648 7.648 0 0 1-1.95-5.112c0-2.25.968-4.273 2.507-5.674V8.796h5.145a7.61 7.61 0 0 1 4.33 1.345 7.61 7.61 0 0 1 4.33-1.345h5.146v1.992a7.655 7.655 0 0 1 2.506 5.674 7.666 7.666 0 0 1-3.984 6.73c-.842 2.256-2.273 4.282-4.126 5.964v3.627h-5.897c-2.515.996-5.33 1.552-8.298 1.552-3.39 0-6.58-.725-9.353-2.003l-1.41-.65Zm18.862.07h5.067v-3.06c2.016-1.733 3.521-3.863 4.322-6.232a6.636 6.636 0 0 0 3.787-5.997c0-2.106-.979-3.982-2.506-5.198V9.828h-4.116a6.59 6.59 0 0 0-4.33 1.614 6.59 6.59 0 0 0-4.33-1.614h-4.116v1.436a6.627 6.627 0 0 0-2.506 5.198 6.617 6.617 0 0 0 2.425 5.132l-10.718 9.8c.34.158.687.306 1.04.445 2.384.938 5.058 1.464 7.882 1.464 2.91 0 5.661-.558 8.1-1.551Zm1.557-18.836a5.075 5.075 0 0 0-3.663-1.556 5.099 5.099 0 0 0-5.094 5.103 5.099 5.099 0 0 0 7.405 4.55c.311-.16.604-.35.875-.567l1.134 2.558 1.14-2.57a5.065 5.065 0 0 0 3.2 1.133 5.099 5.099 0 0 0 5.094-5.104 5.099 5.099 0 0 0-5.094-5.103 5.075 5.075 0 0 0-3.663 1.556c-.251.26-.475.548-.667.857a5.12 5.12 0 0 0-.667-.857Zm.657 7.547.592-1.336a4.592 4.592 0 0 1-.582-1.119c-.145.409-.346.79-.594 1.137l.584 1.318Zm-4.32-2.99a1.01 1.01 0 1 0-.002-2.018 1.01 1.01 0 0 0 .002 2.018Zm8.66 0a1.01 1.01 0 1 0-.002-2.018 1.01 1.01 0 0 0 .002 2.018Zm-5.094-1.01a3.57 3.57 0 0 1-3.566 3.572 3.57 3.57 0 0 1-3.566-3.572 3.57 3.57 0 0 1 3.566-3.572 3.57 3.57 0 0 1 3.566 3.572Zm-1.528 0a2.04 2.04 0 0 1-2.038 2.041 2.04 2.04 0 0 1-2.037-2.041 2.04 2.04 0 0 1 2.037-2.041 2.04 2.04 0 0 1 2.038 2.04Zm6.622 3.572a3.57 3.57 0 0 0 3.566-3.572 3.57 3.57 0 0 0-3.566-3.572 3.57 3.57 0 0 0-3.566 3.572 3.57 3.57 0 0 0 3.566 3.572Zm0-1.53a2.04 2.04 0 0 0 2.038-2.042 2.04 2.04 0 0 0-2.038-2.041 2.04 2.04 0 0 0-2.037 2.04 2.04 2.04 0 0 0 2.037 2.042Z" clip-rule="evenodd"/><path fill="#F5F5F9" fill-rule="evenodd" d="M22.798 33.303c-3.243 0-6.288-.693-8.922-1.908l10.718-9.801a6.626 6.626 0 0 1-2.425-5.132c0-2.106.979-3.982 2.506-5.198V9.828h4.116a6.59 6.59 0 0 1 4.33 1.614 6.59 6.59 0 0 1 4.33-1.614h4.116v1.436a6.627 6.627 0 0 1 2.506 5.198 6.636 6.636 0 0 1-3.787 5.997c-.8 2.369-2.306 4.499-4.322 6.231v3.062h-5.067c-2.438.993-5.188 1.551-8.099 1.551Zm5.993-11.737c1.206 0 2.314-.42 3.186-1.121l1.134 2.558 1.14-2.57a5.067 5.067 0 0 0 3.2 1.133 5.099 5.099 0 0 0 5.094-5.104 5.099 5.099 0 0 0-5.094-5.103 5.089 5.089 0 0 0-4.33 2.413 5.089 5.089 0 0 0-4.33-2.413 5.099 5.099 0 0 0-5.094 5.103 5.099 5.099 0 0 0 5.094 5.104Zm0-1.532a3.57 3.57 0 0 0 3.566-3.572 3.57 3.57 0 0 0-3.566-3.572 3.57 3.57 0 0 0-3.566 3.572 3.57 3.57 0 0 0 3.566 3.572Zm0-1.53a2.04 2.04 0 0 0 2.038-2.042 2.04 2.04 0 0 0-2.038-2.041 2.04 2.04 0 0 0-2.037 2.04 2.04 2.04 0 0 0 2.037 2.042Zm12.226-2.042a3.57 3.57 0 0 1-3.566 3.572 3.57 3.57 0 0 1-3.566-3.572 3.57 3.57 0 0 1 3.566-3.572 3.57 3.57 0 0 1 3.566 3.572Zm-1.528 0a2.04 2.04 0 0 1-2.038 2.041 2.04 2.04 0 0 1-2.037-2.041 2.04 2.04 0 0 1 2.037-2.041 2.04 2.04 0 0 1 2.038 2.04Z" clip-rule="evenodd"/><path fill="#161617" d="M33.856 16.42a5.106 5.106 0 0 1-5.1 5.11 5.106 5.106 0 0 1-5.102-5.11 5.106 5.106 0 0 1 5.101-5.11 5.106 5.106 0 0 1 5.101 5.11Z"/><path fill="#161617" d="M42.528 16.42a5.106 5.106 0 0 1-5.1 5.11 5.106 5.106 0 0 1-5.102-5.11 5.106 5.106 0 0 1 5.101-5.11 5.106 5.106 0 0 1 5.101 5.11Z"/><path fill="#F5F5F9" d="M32.326 16.42a3.574 3.574 0 0 1-3.57 3.577 3.574 3.574 0 0 1-3.571-3.577 3.574 3.574 0 0 1 3.57-3.578 3.574 3.574 0 0 1 3.571 3.578ZM40.998 16.42a3.574 3.574 0 0 1-3.571 3.577 3.574 3.574 0 0 1-3.57-3.577 3.574 3.574 0 0 1 3.57-3.578 3.574 3.574 0 0 1 3.57 3.578Z"/><path fill="#161617" d="M30.796 16.42a2.042 2.042 0 0 1-2.04 2.044 2.042 2.042 0 0 1-2.04-2.044c0-1.13.913-2.045 2.04-2.045 1.126 0 2.04.916 2.04 2.045ZM39.468 16.42a2.042 2.042 0 0 1-2.04 2.044 2.042 2.042 0 0 1-2.041-2.044c0-1.13.913-2.045 2.04-2.045s2.04.916 2.04 2.045ZM33.081 22.97l-1.767-3.986h3.534l-1.767 3.986Z"/></svg>