<svg width="220" height="218" viewBox="0 0 220 218" fill="none" xmlns="http://www.w3.org/2000/svg">
<g filter="url(#filter0_f)">
<path d="M10.2236 195.144C10.7356 195.528 11.1836 195.848 11.5676 196.104C11.9836 196.328 12.3516 196.52 12.6716 196.68C12.9916 196.84 13.2956 196.952 13.5836 197.016C13.8716 197.08 14.1916 197.112 14.5436 197.112C15.2476 197.112 15.8716 196.92 16.4156 196.536C16.9596 196.12 17.2316 195.544 17.2316 194.808V173.4H29.5197V196.248C29.5197 198.168 29.1197 199.848 28.3197 201.288C27.5197 202.728 26.4637 203.928 25.1517 204.888C23.8397 205.848 22.3517 206.552 20.6877 207C19.0237 207.48 17.3436 207.72 15.6476 207.72C15.1676 207.72 14.6556 207.656 14.1116 207.528C13.5676 207.4 13.0396 207.224 12.5276 207C12.0156 206.808 11.5516 206.6 11.1356 206.376C10.7516 206.152 10.4476 205.944 10.2236 205.752V195.144ZM45.3769 195.48C47.1369 195.48 48.4329 195.032 49.2649 194.136C50.1289 193.208 50.5609 191.896 50.5609 190.2C50.5609 188.504 50.1289 187.208 49.2649 186.312C48.4329 185.384 47.1369 184.92 45.3769 184.92H44.1289V195.48H45.3769ZM31.8409 207V173.4H45.3769C47.9049 173.4 50.2409 173.816 52.3849 174.648C54.5609 175.48 56.4329 176.648 58.0009 178.152C59.5689 179.624 60.8009 181.4 61.6969 183.48C62.5929 185.528 63.0409 187.768 63.0409 190.2C63.0409 192.632 62.5929 194.888 61.6969 196.968C60.8009 199.016 59.5689 200.792 58.0009 202.296C56.4329 203.768 54.5609 204.92 52.3849 205.752C50.2409 206.584 47.9049 207 45.3769 207H31.8409ZM65.2159 173.4H77.5039V207H65.2159V173.4ZM79.5038 173.352H91.7917L96.7357 183.24L101.68 173.352H113.968L102.88 193.272V207H90.5918V193.272L79.5038 173.352ZM115.981 173.4H128.269V207H115.981V173.4ZM130.653 173.4H152.541V183.144H142.941V185.928H151.773V194.136H142.941V197.256H153.021V207H130.653V173.4ZM155.356 173.4H167.644V197.256H176.476V207H155.356V173.4ZM192.002 195.48C193.762 195.48 195.058 195.032 195.89 194.136C196.754 193.208 197.186 191.896 197.186 190.2C197.186 188.504 196.754 187.208 195.89 186.312C195.058 185.384 193.762 184.92 192.002 184.92H190.754V195.48H192.002ZM178.466 207V173.4H192.002C194.53 173.4 196.866 173.816 199.01 174.648C201.186 175.48 203.058 176.648 204.626 178.152C206.194 179.624 207.426 181.4 208.322 183.48C209.218 185.528 209.666 187.768 209.666 190.2C209.666 192.632 209.218 194.888 208.322 196.968C207.426 199.016 206.194 200.792 204.626 202.296C203.058 203.768 201.186 204.92 199.01 205.752C196.866 206.584 194.53 207 192.002 207H178.466Z" fill="#406DEB"/>
</g>
<g filter="url(#filter1_f)">
<path d="M199.849 104.343C197.954 100.863 195.533 97.7545 192.648 95.0284C191.279 93.7356 190.068 92.2858 188.571 91.1086C187.4 90.1896 186.318 89.1549 185.112 88.2648C184.858 88.0768 184.145 87.8476 184.73 87.1599C186.995 84.4999 188.668 81.4619 190.102 78.2959C191.186 75.8982 191.876 73.4343 191.308 70.7371C190.928 68.9362 189.744 67.5463 187.923 67.2097C186.665 66.9784 185.389 67.0734 184.119 67.1911C182.136 67.377 180.265 67.98 178.299 68.8123C178.856 67.5815 179.333 66.5034 179.829 65.4336C181.971 60.8013 183.784 56.0389 185.06 51.1009C185.919 47.7779 186.39 44.3765 186.556 40.9275C186.669 38.5711 186.838 36.2291 186.543 33.8768C186.171 30.9256 184.278 29.3168 181.32 29.5068C178.904 29.6617 176.898 30.8905 174.961 32.1544C172.109 34.0152 169.726 36.4398 167.386 38.8953C165.69 40.6756 164.301 42.6912 163.121 44.8308C162.673 45.6466 162.372 45.5908 161.676 45.2253C147.122 37.588 131.688 32.9784 115.26 31.8281C109.002 31.3903 102.754 31.5761 96.5299 32.2928C87.8518 33.2903 79.405 35.2936 71.2163 38.3584C66.807 40.0085 62.5279 41.9416 58.4139 44.2298C57.0034 45.0146 57.0488 45.0043 56.1814 43.664C55.3698 42.4083 54.5499 41.1403 53.5875 40.0023C51.421 37.4373 48.9965 35.1222 46.2848 33.1313C44.2031 31.603 42.0304 30.1945 39.4675 29.6142C36.6257 28.9698 34.5274 30.1367 33.6518 32.7988C33.3255 33.7942 33.1499 34.8392 33.1231 35.8946C33.088 37.301 33.2263 38.6991 33.3069 40.1014C33.4824 43.1373 33.8025 46.1608 34.449 49.1162C35.5745 54.2566 37.3981 59.1842 39.5108 64.0003C40.1903 65.5472 40.8863 67.0858 41.5596 68.5934C41.3468 68.7917 41.2436 68.7049 41.1155 68.6471C38.4927 67.4699 35.7335 67.0032 32.8711 67.1106C31.062 67.1787 29.7258 67.9945 29.0339 69.6921C28.7241 70.4501 28.6043 71.2679 28.5383 72.1002C28.3193 74.8944 29.4201 77.3356 30.5622 79.7519C31.758 82.2818 33.2387 84.6485 34.9405 86.8769C35.1243 87.1186 35.9566 87.4593 35.2069 87.9901C33.278 89.3614 31.5081 90.9289 29.7671 92.5192C26.7993 95.2308 24.0773 98.1696 21.8779 101.557C20.8391 103.004 19.9737 104.553 19.2901 106.193C18.4991 108.091 17.8775 110.036 18.0179 112.139C18.3277 112.564 18.7304 112.802 19.2488 112.963C23.9307 114.425 28.6312 115.819 33.3482 117.166C36.6959 118.122 39.9817 119.314 43.3604 120.135C46.9767 121.015 50.5062 122.188 54.1327 123.031C58.8001 124.115 63.4056 125.495 68.1618 126.16C69.7686 126.385 70.8652 127.168 71.8318 128.425C72.7384 129.605 73.5562 130.84 74.4257 132.039C75.9209 134.101 77.5648 136.048 79.2315 137.979C81.9204 141.091 84.7643 144.036 87.8373 146.777C91.7427 150.259 96.3461 151.891 101.468 152.44C102.416 152.541 103.17 152.673 104.341 152.797C108.607 152.797 112.874 152.797 117.141 152.797C118.506 152.624 119.198 152.535 120.226 152.419C123.665 152.033 127.013 151.318 130.047 149.608C132.153 148.421 134.043 146.893 135.784 145.216C139.406 141.723 142.903 138.101 145.763 133.946C147.213 131.839 149.055 130.078 150.54 128.014C151.093 127.246 151.436 126.249 152.556 126.021C154.635 125.602 156.717 125.193 158.782 124.718C161.715 124.043 165.11 123.332 167.981 122.415C168.026 122.409 168.07 122.401 168.113 122.389C171.892 121.323 175.659 120.218 179.447 119.19C183.259 118.155 187.039 117.021 190.818 115.879C193.449 115.084 196.128 114.431 198.73 113.552C199.837 113.178 201.148 113.145 201.987 112.116C202.09 109.303 201.159 106.747 199.849 104.343ZM127.405 72.2509C130.011 71.6665 132.612 71.0593 135.298 70.4418C135.189 72.5711 135.278 74.5991 135.724 76.5817C136.133 78.4033 136.777 80.1567 138.264 81.4061C139.954 82.827 141.41 82.6473 142.795 80.9456C144.359 79.027 144.516 76.747 144.478 74.4153C144.472 73.9961 144.342 73.9486 143.917 74.0332C142.564 74.3017 141.711 73.6677 141.56 72.3046C141.438 71.2142 141.759 70.1981 142.229 69.2254C142.376 68.9197 142.618 68.769 142.94 68.6946C146.984 67.7715 151.027 66.8421 155.077 65.9148C156.19 75.0018 150.267 83.4672 141.628 85.2062C136.418 86.2553 132.153 84.3656 129.446 79.7952C128.206 77.7052 127.475 75.4211 126.94 73.0646C126.833 72.6062 126.907 72.3645 127.405 72.2509ZM117.907 115.185C117.911 115.117 117.907 115.047 117.907 114.979C117.878 112.967 119.103 111.598 120.375 110.286C122.019 108.589 124.099 107.742 126.416 107.467C126.883 107.412 127.391 107.443 127.845 107.564C128.667 107.785 129.256 108.279 129.241 109.231C129.227 110.224 128.475 110.509 127.723 110.604C126.29 110.786 124.871 110.999 123.487 111.431C122.24 111.821 121.245 112.599 120.303 113.461C119.834 113.888 119.636 114.444 119.873 115.049C120.082 115.582 120.328 116.088 119.795 116.548C119.444 116.852 119.024 116.794 118.624 116.633C117.961 116.366 117.87 115.805 117.907 115.185ZM94.4254 107.447C97.831 107.449 101.831 110.16 103.116 113.333C103.327 113.853 103.386 114.394 103.374 115.03C103.419 115.699 103.409 116.428 102.498 116.693C102.118 116.804 101.745 116.804 101.439 116.505C101.135 116.207 101.059 115.832 101.251 115.466C101.829 114.369 101.272 113.686 100.483 112.992C98.6798 111.406 96.4803 110.945 94.2065 110.695C92.6679 110.526 92.0235 110.111 92.0421 109.165C92.0628 108.089 92.957 107.445 94.4254 107.447ZM64.2792 65.9045C67.6827 66.6789 70.9912 67.4575 74.3121 68.168C75.0969 68.3353 74.8367 68.7731 74.7788 69.2151C74.3266 72.6413 74.5042 75.9911 76.0262 79.1695C76.5405 80.2434 77.2468 81.1583 78.3187 81.7407C79.5 82.383 80.5698 82.2694 81.5363 81.3421C83.616 79.3471 83.8432 76.7697 83.7688 74.1035C83.7605 73.7895 83.6346 73.7524 83.3124 73.7937C81.59 74.0229 80.7412 73.2154 80.8382 71.4765C80.8527 71.2039 80.9456 70.9354 80.9601 70.6628C80.9993 69.9461 81.2616 69.7582 82.0154 69.942C85.1856 70.7123 88.3702 71.4331 91.563 72.1084C92.4573 72.2984 92.6287 72.6268 92.3994 73.5025C91.8232 75.7061 91.1355 77.8539 89.9645 79.8221C87.2714 84.345 83.0336 86.2223 77.8664 85.2227C70.5265 83.8018 66.5572 79.0786 64.9236 72.0609C64.4568 70.0577 64.2193 68.0234 64.2792 65.9045ZM157.537 109.799C157.491 110.592 157.008 110.883 156.331 110.937C155.565 110.997 155.22 110.54 155.135 109.824C154.943 108.184 154.067 106.953 152.791 105.976C152.489 105.747 152.103 105.532 151.738 105.714C151.349 105.908 151.583 106.336 151.589 106.649C151.732 114.169 148.793 120.261 143.097 125.088C142.94 125.222 142.785 125.361 142.618 125.478C141.288 126.414 141.23 126.408 140.059 125.239C139.937 125.117 139.797 125.009 139.697 124.871C139.237 124.233 138.925 124.285 138.411 124.921C135.536 128.469 132.277 131.606 128.374 134.035C127.632 134.497 126.874 134.662 126.021 134.592C123.489 134.386 121.086 133.657 118.76 132.704C116.344 131.715 113.952 130.645 111.736 129.247C111.224 128.923 110.873 128.958 110.361 129.251C106.563 131.434 102.622 133.268 98.3225 134.28C96.1106 134.801 94.2003 134.58 92.3189 133.159C89.1425 130.757 86.2471 128.091 83.7482 124.997C83.269 124.404 83.015 124.208 82.3872 124.867C80.7763 126.558 80.7329 126.534 78.9217 125.016C73.5562 120.52 70.7888 114.756 70.5286 107.775C70.5286 107.362 70.5513 106.947 70.5203 106.538C70.4997 106.257 70.7413 105.875 70.3592 105.71C70.0226 105.563 69.6777 105.73 69.3927 105.933C68.0999 106.844 67.2345 108.066 66.995 109.636C66.8669 110.476 66.6026 111.03 65.6608 110.935C64.7914 110.846 64.4837 110.336 64.6096 109.276C65.0557 105.555 68.3601 103.11 71.8669 103.901C72.6207 104.07 73.2051 104.413 73.0317 105.289C72.3811 108.578 72.9532 111.718 74.1634 114.774C75.4377 117.996 77.3604 120.765 80.0121 123.021C80.5429 123.471 80.8816 123.562 81.4557 123.021C83.4198 121.174 83.4177 120.898 85.3074 123.337C88.0438 126.87 91.3172 129.852 95.0904 132.273C95.71 132.669 96.3523 132.775 97.0565 132.649C99.1651 132.273 101.214 131.68 103.168 130.813C105.617 129.724 108.097 128.686 110.295 127.114C110.881 126.695 111.34 126.864 111.887 127.199C115.691 129.522 119.677 131.422 124.041 132.465C125.35 132.779 126.451 132.68 127.63 131.876C131.484 129.251 134.768 126.061 137.572 122.358C138.301 121.395 138.768 121.329 139.666 122.122C141.469 123.715 141.5 123.743 143.233 121.959C147.186 117.884 149.365 113.056 149.338 107.312C149.336 106.691 149.282 106.079 149.115 105.476C148.904 104.718 149.185 104.225 149.949 103.973C153.512 102.804 157.75 106.061 157.537 109.799Z" fill="#406DEB"/>
</g>
<path d="M10.2236 195.144C10.7356 195.528 11.1836 195.848 11.5676 196.104C11.9836 196.328 12.3516 196.52 12.6716 196.68C12.9916 196.84 13.2956 196.952 13.5836 197.016C13.8716 197.08 14.1916 197.112 14.5436 197.112C15.2476 197.112 15.8716 196.92 16.4156 196.536C16.9596 196.12 17.2316 195.544 17.2316 194.808V173.4H29.5197V196.248C29.5197 198.168 29.1197 199.848 28.3197 201.288C27.5197 202.728 26.4637 203.928 25.1517 204.888C23.8397 205.848 22.3517 206.552 20.6877 207C19.0237 207.48 17.3436 207.72 15.6476 207.72C15.1676 207.72 14.6556 207.656 14.1116 207.528C13.5676 207.4 13.0396 207.224 12.5276 207C12.0156 206.808 11.5516 206.6 11.1356 206.376C10.7516 206.152 10.4476 205.944 10.2236 205.752V195.144ZM45.3769 195.48C47.1369 195.48 48.4329 195.032 49.2649 194.136C50.1289 193.208 50.5609 191.896 50.5609 190.2C50.5609 188.504 50.1289 187.208 49.2649 186.312C48.4329 185.384 47.1369 184.92 45.3769 184.92H44.1289V195.48H45.3769ZM31.8409 207V173.4H45.3769C47.9049 173.4 50.2409 173.816 52.3849 174.648C54.5609 175.48 56.4329 176.648 58.0009 178.152C59.5689 179.624 60.8009 181.4 61.6969 183.48C62.5929 185.528 63.0409 187.768 63.0409 190.2C63.0409 192.632 62.5929 194.888 61.6969 196.968C60.8009 199.016 59.5689 200.792 58.0009 202.296C56.4329 203.768 54.5609 204.92 52.3849 205.752C50.2409 206.584 47.9049 207 45.3769 207H31.8409ZM65.2159 173.4H77.5039V207H65.2159V173.4ZM79.5038 173.352H91.7917L96.7357 183.24L101.68 173.352H113.968L102.88 193.272V207H90.5918V193.272L79.5038 173.352ZM115.981 173.4H128.269V207H115.981V173.4ZM130.653 173.4H152.541V183.144H142.941V185.928H151.773V194.136H142.941V197.256H153.021V207H130.653V173.4ZM155.356 173.4H167.644V197.256H176.476V207H155.356V173.4ZM192.002 195.48C193.762 195.48 195.058 195.032 195.89 194.136C196.754 193.208 197.186 191.896 197.186 190.2C197.186 188.504 196.754 187.208 195.89 186.312C195.058 185.384 193.762 184.92 192.002 184.92H190.754V195.48H192.002ZM178.466 207V173.4H192.002C194.53 173.4 196.866 173.816 199.01 174.648C201.186 175.48 203.058 176.648 204.626 178.152C206.194 179.624 207.426 181.4 208.322 183.48C209.218 185.528 209.666 187.768 209.666 190.2C209.666 192.632 209.218 194.888 208.322 196.968C207.426 199.016 206.194 200.792 204.626 202.296C203.058 203.768 201.186 204.92 199.01 205.752C196.866 206.584 194.53 207 192.002 207H178.466Z" fill="#18214D" fill-opacity="0.87"/>
<path d="M199.849 104.343C197.954 100.863 195.533 97.7545 192.648 95.0284C191.279 93.7356 190.068 92.2858 188.571 91.1086C187.4 90.1896 186.318 89.1549 185.112 88.2648C184.858 88.0768 184.145 87.8476 184.73 87.1599C186.995 84.4999 188.668 81.4619 190.102 78.2959C191.186 75.8982 191.876 73.4343 191.308 70.7371C190.928 68.9362 189.744 67.5463 187.923 67.2097C186.665 66.9784 185.389 67.0734 184.119 67.1911C182.136 67.377 180.265 67.98 178.299 68.8123C178.856 67.5815 179.333 66.5034 179.829 65.4336C181.971 60.8013 183.784 56.0389 185.06 51.1009C185.919 47.7779 186.39 44.3765 186.556 40.9275C186.669 38.5711 186.838 36.2291 186.543 33.8768C186.171 30.9256 184.278 29.3168 181.32 29.5068C178.904 29.6617 176.898 30.8905 174.961 32.1544C172.109 34.0152 169.726 36.4398 167.386 38.8953C165.69 40.6756 164.301 42.6912 163.121 44.8308C162.673 45.6466 162.372 45.5908 161.676 45.2253C147.122 37.588 131.688 32.9784 115.26 31.8281C109.002 31.3903 102.754 31.5761 96.5299 32.2928C87.8518 33.2903 79.405 35.2936 71.2163 38.3584C66.807 40.0085 62.5279 41.9416 58.4139 44.2298C57.0034 45.0146 57.0488 45.0043 56.1814 43.664C55.3698 42.4083 54.5499 41.1403 53.5875 40.0023C51.421 37.4373 48.9965 35.1222 46.2848 33.1313C44.2031 31.603 42.0304 30.1945 39.4675 29.6142C36.6257 28.9698 34.5274 30.1367 33.6518 32.7988C33.3255 33.7942 33.1499 34.8392 33.1231 35.8946C33.088 37.301 33.2263 38.6991 33.3069 40.1014C33.4824 43.1373 33.8025 46.1608 34.449 49.1162C35.5745 54.2566 37.3981 59.1842 39.5108 64.0003C40.1903 65.5472 40.8863 67.0858 41.5596 68.5934C41.3468 68.7917 41.2436 68.7049 41.1155 68.6471C38.4927 67.4699 35.7335 67.0032 32.8711 67.1106C31.062 67.1787 29.7258 67.9945 29.0339 69.6921C28.7241 70.4501 28.6043 71.2679 28.5383 72.1002C28.3193 74.8944 29.4201 77.3356 30.5622 79.7519C31.758 82.2818 33.2387 84.6485 34.9405 86.8769C35.1243 87.1186 35.9566 87.4593 35.2069 87.9901C33.278 89.3614 31.5081 90.9289 29.7671 92.5192C26.7993 95.2308 24.0773 98.1696 21.8779 101.557C20.8391 103.004 19.9737 104.553 19.2901 106.193C18.4991 108.091 17.8775 110.036 18.0179 112.139C18.3277 112.564 18.7304 112.802 19.2488 112.963C23.9307 114.425 28.6312 115.819 33.3482 117.166C36.6959 118.122 39.9817 119.314 43.3604 120.135C46.9767 121.015 50.5062 122.188 54.1327 123.031C58.8001 124.115 63.4056 125.495 68.1618 126.16C69.7686 126.385 70.8652 127.168 71.8318 128.425C72.7384 129.605 73.5562 130.84 74.4257 132.039C75.9209 134.101 77.5648 136.048 79.2315 137.979C81.9204 141.091 84.7643 144.036 87.8373 146.777C91.7427 150.259 96.3461 151.891 101.468 152.44C102.416 152.541 103.17 152.673 104.341 152.797C108.607 152.797 112.874 152.797 117.141 152.797C118.506 152.624 119.198 152.535 120.226 152.419C123.665 152.033 127.013 151.318 130.047 149.608C132.153 148.421 134.043 146.893 135.784 145.216C139.406 141.723 142.903 138.101 145.763 133.946C147.213 131.839 149.055 130.078 150.54 128.014C151.093 127.246 151.436 126.249 152.556 126.021C154.635 125.602 156.717 125.193 158.782 124.718C161.715 124.043 165.11 123.332 167.981 122.415C168.026 122.409 168.07 122.401 168.113 122.389C171.892 121.323 175.659 120.218 179.447 119.19C183.259 118.155 187.039 117.021 190.818 115.879C193.449 115.084 196.128 114.431 198.73 113.552C199.837 113.178 201.148 113.145 201.987 112.116C202.09 109.303 201.159 106.747 199.849 104.343ZM127.405 72.2509C130.011 71.6665 132.612 71.0593 135.298 70.4418C135.189 72.5711 135.278 74.5991 135.724 76.5817C136.133 78.4033 136.777 80.1567 138.264 81.4061C139.954 82.827 141.41 82.6473 142.795 80.9456C144.359 79.027 144.516 76.747 144.478 74.4153C144.472 73.9961 144.342 73.9486 143.917 74.0332C142.564 74.3017 141.711 73.6677 141.56 72.3046C141.438 71.2142 141.759 70.1981 142.229 69.2254C142.376 68.9197 142.618 68.769 142.94 68.6946C146.984 67.7715 151.027 66.8421 155.077 65.9148C156.19 75.0018 150.267 83.4672 141.628 85.2062C136.418 86.2553 132.153 84.3656 129.446 79.7952C128.206 77.7052 127.475 75.4211 126.94 73.0646C126.833 72.6062 126.907 72.3645 127.405 72.2509ZM117.907 115.185C117.911 115.117 117.907 115.047 117.907 114.979C117.878 112.967 119.103 111.598 120.375 110.286C122.019 108.589 124.099 107.742 126.416 107.467C126.883 107.412 127.391 107.443 127.845 107.564C128.667 107.785 129.256 108.279 129.241 109.231C129.227 110.224 128.475 110.509 127.723 110.604C126.29 110.786 124.871 110.999 123.487 111.431C122.24 111.821 121.245 112.599 120.303 113.461C119.834 113.888 119.636 114.444 119.873 115.049C120.082 115.582 120.328 116.088 119.795 116.548C119.444 116.852 119.024 116.794 118.624 116.633C117.961 116.366 117.87 115.805 117.907 115.185ZM94.4254 107.447C97.831 107.449 101.831 110.16 103.116 113.333C103.327 113.853 103.386 114.394 103.374 115.03C103.419 115.699 103.409 116.428 102.498 116.693C102.118 116.804 101.745 116.804 101.439 116.505C101.135 116.207 101.059 115.832 101.251 115.466C101.829 114.369 101.272 113.686 100.483 112.992C98.6798 111.406 96.4803 110.945 94.2065 110.695C92.6679 110.526 92.0235 110.111 92.0421 109.165C92.0628 108.089 92.957 107.445 94.4254 107.447ZM64.2792 65.9045C67.6827 66.6789 70.9912 67.4575 74.3121 68.168C75.0969 68.3353 74.8367 68.7731 74.7788 69.2151C74.3266 72.6413 74.5042 75.9911 76.0262 79.1695C76.5405 80.2434 77.2468 81.1583 78.3187 81.7407C79.5 82.383 80.5698 82.2694 81.5363 81.3421C83.616 79.3471 83.8432 76.7697 83.7688 74.1035C83.7605 73.7895 83.6346 73.7524 83.3124 73.7937C81.59 74.0229 80.7412 73.2154 80.8382 71.4765C80.8527 71.2039 80.9456 70.9354 80.9601 70.6628C80.9993 69.9461 81.2616 69.7582 82.0154 69.942C85.1856 70.7123 88.3702 71.4331 91.563 72.1084C92.4573 72.2984 92.6287 72.6268 92.3994 73.5025C91.8232 75.7061 91.1355 77.8539 89.9645 79.8221C87.2714 84.345 83.0336 86.2223 77.8664 85.2227C70.5265 83.8018 66.5572 79.0786 64.9236 72.0609C64.4568 70.0577 64.2193 68.0234 64.2792 65.9045ZM157.537 109.799C157.491 110.592 157.008 110.883 156.331 110.937C155.565 110.997 155.22 110.54 155.135 109.824C154.943 108.184 154.067 106.953 152.791 105.976C152.489 105.747 152.103 105.532 151.738 105.714C151.349 105.908 151.583 106.336 151.589 106.649C151.732 114.169 148.793 120.261 143.097 125.088C142.94 125.222 142.785 125.361 142.618 125.478C141.288 126.414 141.23 126.408 140.059 125.239C139.937 125.117 139.797 125.009 139.697 124.871C139.237 124.233 138.925 124.285 138.411 124.921C135.536 128.469 132.277 131.606 128.374 134.035C127.632 134.497 126.874 134.662 126.021 134.592C123.489 134.386 121.086 133.657 118.76 132.704C116.344 131.715 113.952 130.645 111.736 129.247C111.224 128.923 110.873 128.958 110.361 129.251C106.563 131.434 102.622 133.268 98.3225 134.28C96.1106 134.801 94.2003 134.58 92.3189 133.159C89.1425 130.757 86.2471 128.091 83.7482 124.997C83.269 124.404 83.015 124.208 82.3872 124.867C80.7763 126.558 80.7329 126.534 78.9217 125.016C73.5562 120.52 70.7888 114.756 70.5286 107.775C70.5286 107.362 70.5513 106.947 70.5203 106.538C70.4997 106.257 70.7413 105.875 70.3592 105.71C70.0226 105.563 69.6777 105.73 69.3927 105.933C68.0999 106.844 67.2345 108.066 66.995 109.636C66.8669 110.476 66.6026 111.03 65.6608 110.935C64.7914 110.846 64.4837 110.336 64.6096 109.276C65.0557 105.555 68.3601 103.11 71.8669 103.901C72.6207 104.07 73.2051 104.413 73.0317 105.289C72.3811 108.578 72.9532 111.718 74.1634 114.774C75.4377 117.996 77.3604 120.765 80.0121 123.021C80.5429 123.471 80.8816 123.562 81.4557 123.021C83.4198 121.174 83.4177 120.898 85.3074 123.337C88.0438 126.87 91.3172 129.852 95.0904 132.273C95.71 132.669 96.3523 132.775 97.0565 132.649C99.1651 132.273 101.214 131.68 103.168 130.813C105.617 129.724 108.097 128.686 110.295 127.114C110.881 126.695 111.34 126.864 111.887 127.199C115.691 129.522 119.677 131.422 124.041 132.465C125.35 132.779 126.451 132.68 127.63 131.876C131.484 129.251 134.768 126.061 137.572 122.358C138.301 121.395 138.768 121.329 139.666 122.122C141.469 123.715 141.5 123.743 143.233 121.959C147.186 117.884 149.365 113.056 149.338 107.312C149.336 106.691 149.282 106.079 149.115 105.476C148.904 104.718 149.185 104.225 149.949 103.973C153.512 102.804 157.75 106.061 157.537 109.799Z" fill="#406DEB"/>
<defs>
<filter id="filter0_f" x="0.223633" y="163.352" width="219.443" height="54.368" filterUnits="userSpaceOnUse" color-interpolation-filters="sRGB">
<feFlood flood-opacity="0" result="BackgroundImageFix"/>
<feBlend mode="normal" in="SourceGraphic" in2="BackgroundImageFix" result="shape"/>
<feGaussianBlur stdDeviation="5" result="effect1_foregroundBlur"/>
</filter>
<filter id="filter1_f" x="7.99805" y="19.4404" width="203.997" height="143.357" filterUnits="userSpaceOnUse" color-interpolation-filters="sRGB">
<feFlood flood-opacity="0" result="BackgroundImageFix"/>
<feBlend mode="normal" in="SourceGraphic" in2="BackgroundImageFix" result="shape"/>
<feGaussianBlur stdDeviation="5" result="effect1_foregroundBlur"/>
</filter>
</defs>
</svg>
