<?xml version="1.0" encoding="UTF-8"?>
<svg width="91px" height="30px" viewBox="0 0 91 30" version="1.1" xmlns="http://www.w3.org/2000/svg" xmlns:xlink="http://www.w3.org/1999/xlink">
    <title>logo</title>
    <g id="页面-1" stroke="none" stroke-width="1" fill="none" fill-rule="evenodd">
        <path d="M0.91,16.0569715 L15.21975,16.0794603 L22.4315,28.2908546 L21.4305,30 L11.4205,29.9775112 L11.4205,29.9550225 L9.66875,29.9775112 L10.35125,28.6956522 L11.35225,26.8290855 L17.90425,26.8515742 L13.39975,19.2053973 L4.4135,19.2053973 L7.735,24.7826087 L5.84675,27.8185907 L0.15925,17.9235382 L0.182,17.9235382 L7.12319093e-13,17.6311844 L0.91,16.0569715 Z M26.026,2.72113943 L26.18525,3.01349325 L26.208,3.01349325 L31.19025,11.2893553 L32.10025,12.7961019 L28.41475,12.7736132 L25.207,7.30884558 L20.7935,15 L25.298,22.6911544 L28.46025,17.1364318 L32.123,17.1364318 L26.18525,27.1889055 L26.13975,27.2563718 L24.31975,27.2563718 L17.13075,15.0224888 L24.206,2.72113943 L26.026,2.72113943 Z M10.8745,22.5337331 L10.89725,22.5562219 C10.9655,22.5787106 11.03375,22.6236882 11.102,22.6461769 C11.17025,22.6686657 11.21575,22.7136432 11.284,22.7586207 C11.35225,22.8035982 11.4205,22.8485757 11.48875,22.8935532 C11.557,22.9385307 11.6025,22.9835082 11.67075,23.0284858 L11.71625,23.0509745 C11.76175,23.095952 11.80725,23.1184408 11.85275,23.1634183 C11.8755,23.185907 11.8755,23.185907 11.89825,23.2083958 C11.94375,23.2308846 11.9665,23.2758621 11.98925,23.2983508 C12.012,23.3208396 12.03475,23.3433283 12.0575,23.3883058 C12.08025,23.4332834 12.12575,23.4557721 12.1485,23.5007496 C12.17125,23.5232384 12.17125,23.5232384 12.194,23.5457271 C12.21675,23.5907046 12.26225,23.6131934 12.285,23.6581709 L12.3305,23.7031484 L12.39875,23.8155922 L12.39875,23.8155922 L12.39875,23.838081 L12.4215,23.8830585 C12.467,23.928036 12.48975,23.9955022 12.5125,24.0404798 C12.53525,24.0854573 12.558,24.1529235 12.58075,24.197901 L12.6035,24.2203898 C12.6035,24.2353823 12.6136111,24.2503748 12.6203519,24.258704 L12.62625,24.2653673 C12.62625,24.2878561 12.62625,24.2878561 12.649,24.3103448 L12.67175,24.4227886 L12.67175,24.4227886 C12.67175,24.4677661 12.6945,24.4677661 12.6945,24.4902549 L12.6945,24.94003 C12.6945,24.9850075 12.67175,25.0074963 12.649,25.0524738 L12.614875,25.1086957 L12.614875,25.1086957 L12.58075,25.1649175 C12.4215,25.5022489 11.98925,25.6821589 11.48875,25.6596702 C11.2385,25.6596702 10.9655,25.6146927 10.6925,25.5247376 C10.39675,25.4347826 10.101,25.2998501 9.828,25.1424288 C9.0545,24.6701649 8.5085,23.9955022 8.4175,23.3658171 C8.3785,23.1152281 8.42307143,22.8976838 8.53688776,22.7273462 L8.5995,22.6461769 L8.5995,22.6461769 C8.62225,22.6011994 8.66775,22.5787106 8.6905,22.5337331 C8.71325,22.5112444 8.736,22.5112444 8.75875,22.4887556 C8.7815,22.4662669 8.7815,22.4662669 8.80425,22.4437781 L8.861125,22.410045 L8.861125,22.410045 L8.918,22.3763118 L8.918,22.3763118 C9.39575,22.1514243 10.1465,22.1964018 10.8745,22.5337331 Z M65.67925,5.62218891 C66.885,5.62218891 67.95425,5.84707646 68.90975,6.29685157 C70.98,7.24137931 72.14025,9.19790105 72.527,11.3568216 C72.527,11.4017991 72.50425,11.4467766 72.45875,11.4467766 L72.45875,11.4467766 L68.9325,11.4467766 C68.86425,11.4467766 68.8415,11.4242879 68.81875,11.3793103 C68.705,10.8845577 68.50025,10.4572714 68.25,10.0749625 C67.6585,9.22038981 66.72575,8.83808096 65.702,8.83808096 C64.13225,8.83808096 62.90375,9.76011994 62.63075,11.3568216 C62.5625,11.7391304 62.517,12.2113943 62.49425,12.7961019 C62.44875,13.3808096 62.44875,14.1229385 62.44875,15 L62.4488389,15.3225292 C62.4494609,16.060134 62.4544375,16.6922789 62.49425,17.2038981 C62.517,17.7886057 62.5625,18.2833583 62.63075,18.6431784 C62.90375,20.2173913 64.13225,21.161919 65.702,21.161919 C66.72575,21.161919 67.6585,20.7796102 68.25,19.9250375 C68.50025,19.5427286 68.68225,19.1154423 68.81875,18.6206897 C68.8415,18.5757121 68.86425,18.5532234 68.9325,18.5532234 L68.9325,18.5532234 L72.45875,18.5532234 C72.527,18.5532234 72.527,18.5982009 72.527,18.6431784 C72.14025,20.802099 70.98,22.7361319 68.90975,23.7031484 C67.95425,24.1529235 66.885,24.3778111 65.67925,24.3778111 C63.7,24.3778111 62.0165,23.7031484 60.6515,22.3538231 C59.878,21.5892054 59.332,20.6671664 59.12725,19.5877061 C58.9225,18.5532234 58.80875,17.023988 58.80875,15 C58.80875,12.976012 58.9225,11.4467766 59.12725,10.4122939 C59.35475,9.35532234 59.878,8.4107946 60.6515,7.64617691 C62.0165,6.29685157 63.67725,5.62218891 65.67925,5.62218891 Z M84.15225,5.62218891 C85.358,5.62218891 86.42725,5.84707646 87.38275,6.29685157 C89.453,7.24137931 90.61325,9.19790105 91,11.3568216 C91,11.4017991 90.97725,11.4467766 90.93175,11.4467766 L90.93175,11.4467766 L87.4055,11.4467766 C87.33725,11.4467766 87.3145,11.4242879 87.29175,11.3793103 C87.178,10.8845577 86.97325,10.4572714 86.723,10.0749625 C86.1315,9.22038981 85.19875,8.83808096 84.175,8.83808096 C82.60525,8.83808096 81.37675,9.76011994 81.10375,11.3568216 C81.0355,11.7391304 80.99,12.2113943 80.96725,12.7961019 C80.92175,13.3808096 80.92175,14.1229385 80.92175,15 C80.92175,15.8770615 80.9445,16.6191904 80.96725,17.2038981 C80.99,17.7886057 81.0355,18.2833583 81.10375,18.6431784 C81.37675,20.2173913 82.60525,21.161919 84.175,21.161919 C85.19875,21.161919 86.1315,20.7796102 86.723,19.9250375 C86.97325,19.5427286 87.15525,19.1154423 87.29175,18.6206897 C87.3145,18.5757121 87.33725,18.5532234 87.4055,18.5532234 L87.4055,18.5532234 L90.93175,18.5532234 C91,18.5532234 91,18.5982009 91,18.6431784 C90.61325,20.802099 89.453,22.7361319 87.38275,23.7031484 C86.42725,24.1529235 85.358,24.3778111 84.15225,24.3778111 C82.173,24.3778111 80.4895,23.7031484 79.1245,22.3538231 C78.351,21.5892054 77.805,20.6671664 77.60025,19.5877061 C77.3955,18.5532234 77.28175,17.023988 77.28175,15 C77.28175,12.976012 77.3955,11.4467766 77.60025,10.4122939 C77.82775,9.35532234 78.351,8.4107946 79.1245,7.64617691 C80.4895,6.29685157 82.15025,5.62218891 84.15225,5.62218891 Z M10.35125,19.7901049 L13.03575,19.8125937 L14.4235,22.2413793 L13.17225,24.2653673 C13.17225,24.2428786 13.17225,24.2203898 13.1495,24.197901 L13.1495,24.1529235 L13.1495,24.1529235 C13.1495,24.1304348 13.12675,24.107946 13.12675,24.0629685 C13.1495,24.0404798 13.1495,24.017991 13.1495,24.017991 C13.1495,23.988006 13.1393889,23.968016 13.1259074,23.9446943 L13.104,23.9055472 L13.104,23.9055472 C13.104,23.8905547 13.104,23.8855572 13.0972593,23.8772281 L13.08125,23.8605697 L13.08125,23.8605697 C13.0660833,23.8155922 13.0509167,23.7806097 13.0290093,23.7422955 L12.99025,23.6806597 L12.99025,23.6806597 C12.74,23.2083958 12.3305,22.7586207 11.83,22.3988006 C11.76175,22.3538231 11.6935,22.3088456 11.62525,22.2638681 C11.557,22.2188906 11.48875,22.173913 11.4205,22.1514243 L11.39775,22.1514243 L11.39775,22.1514243 C11.375,22.1289355 11.35225,22.1289355 11.3295,22.1064468 L11.21575,22.0389805 L11.21575,22.0389805 L11.193,22.0389805 C11.17025,22.0389805 11.1475,22.0164918 11.12475,22.0164918 C11.07925,21.994003 11.03375,21.9715142 10.98825,21.9715142 L10.94275,21.9490255 L10.92,21.9490255 L10.92,21.9490255 L10.885875,21.9377811 L10.885875,21.9377811 L10.85175,21.9265367 C10.80625,21.904048 10.76075,21.904048 10.71525,21.8815592 L10.66975,21.8590705 L10.647,21.8590705 L10.647,21.8590705 C10.6015,21.8365817 10.556,21.8365817 10.5105,21.814093 C10.4953333,21.814093 10.4801667,21.804098 10.4582593,21.7974346 L10.4195,21.7916042 L10.4195,21.7916042 L10.39675,21.7916042 C10.35125,21.7916042 10.30575,21.7691154 10.283,21.7691154 C10.26025,21.7691154 10.21475,21.7691154 10.192,21.7466267 L10.16925,21.7466267 L10.16925,21.7466267 C10.1465,21.7466267 10.12375,21.7466267 10.101,21.7241379 L10.03275,21.7241379 L10.03275,21.7241379 C9.9645,21.7241379 9.8735,21.7016492 9.80525,21.7016492 L9.5095,21.7016492 C9.464,21.7016492 9.4185,21.7016492 9.373,21.7241379 C9.35025,21.7241379 9.3275,21.7241379 9.30475,21.7466267 C9.25925,21.7466267 9.21375,21.7691154 9.16825,21.7691154 L9.1,21.7916042 L9.1,21.7916042 L10.35125,19.7901049 Z M43.02025,5.77961019 C43.20225,5.77961019 43.33875,5.91454273 43.33875,6.09445277 L43.33875,6.09445277 L43.3615,6.09445277 L43.3615,13.6281859 L49.89075,5.86956522 C49.9135,5.82458771 49.93625,5.80209895 50.0045,5.80209895 L50.0045,5.80209895 L53.98575,5.80209895 C54.16775,5.80209895 54.21325,5.93703148 54.0995,6.07196402 L54.0995,6.07196402 L48.16175,13.1109445 L54.6455,23.9730135 C54.7365,24.107946 54.691,24.2203898 54.53175,24.2203898 L54.53175,24.2203898 L50.89175,24.2203898 C50.80075,24.2203898 50.75525,24.197901 50.70975,24.1304348 L50.70975,24.1304348 L45.75025,15.832084 L43.33875,18.6881559 L43.33875,23.9055472 C43.33875,24.0854573 43.20225,24.2203898 43.02025,24.2203898 L43.02025,24.2203898 L40.01725,24.2203898 C39.83525,24.2203898 39.69875,24.0854573 39.69875,23.9055472 L39.69875,23.9055472 L39.69875,6.09445277 C39.69875,5.91454273 39.83525,5.77961019 40.01725,5.77961019 L40.01725,5.77961019 Z M26.32175,12.5937031 C26.7995,12.5712144 27.14075,12.8410795 27.41375,13.2683658 C27.55025,13.4707646 27.64125,13.7181409 27.7095,14.0104948 C27.77775,14.3028486 27.82325,14.6176912 27.82325,14.9325337 C27.82325,15.832084 27.5275,16.6416792 27.027,17.0464768 C26.832,17.2006854 26.6202857,17.2888046 26.4061837,17.2825103 L26.299,17.2713643 C26.2535,17.2713643 26.208,17.2488756 26.1625,17.2488756 L26.09425,17.2263868 C26.0715,17.2263868 26.04875,17.2038981 26.026,17.2038981 C25.9956667,17.1889055 25.9653333,17.173913 25.9417407,17.1589205 L25.91225,17.1364318 L25.91225,17.1364318 C25.45725,16.844078 25.116,16.191904 25.025,15.4047976 L25.025,15.3823088 C25.025,15.3148426 25.00225,15.2473763 25.00225,15.1574213 L25.00225,14.7076462 L25.00225,14.7076462 C25.00225,14.6401799 25.00225,14.5727136 25.025,14.5052474 L25.025,14.4602699 C25.025,14.4152924 25.04775,14.3478261 25.04775,14.3028486 L25.04775,14.2353823 L25.04775,14.2353823 C25.04775,14.1904048 25.0705,14.1454273 25.0705,14.1004498 C25.0705,14.0554723 25.09325,14.0329835 25.09325,13.988006 C25.116,13.9430285 25.116,13.898051 25.13875,13.8530735 C25.13875,13.8305847 25.1615,13.808096 25.1615,13.7856072 C25.18425,13.7406297 25.18425,13.6956522 25.207,13.6506747 L25.22975,13.5832084 C25.2525,13.5382309 25.27525,13.5157421 25.27525,13.4707646 L25.27525,13.4482759 L25.27525,13.4482759 L25.298,13.4032984 C25.32075,13.3358321 25.36625,13.2908546 25.389,13.2458771 C25.41175,13.2008996 25.45725,13.155922 25.48,13.1109445 L25.50275,13.0884558 L25.5255,13.065967 L25.5255,13.065967 L25.54825,13.0434783 L25.54825,13.0434783 C25.571,13.0209895 25.571,13.0209895 25.571,12.9985007 C25.59375,12.976012 25.6165,12.9535232 25.63925,12.9310345 L25.68475,12.886057 C25.7075,12.8635682 25.7075,12.8635682 25.73025,12.8410795 L25.7985,12.7736132 L25.7985,12.7736132 L25.844,12.7511244 C25.86675,12.7286357 25.91225,12.7061469 25.935,12.6836582 C25.95775,12.6836582 25.95775,12.6836582 25.9805,12.6611694 C26.00325,12.6611694 26.026,12.6386807 26.026,12.6386807 C26.026,12.6386807 26.04875,12.6386807 26.04875,12.6161919 L26.0715,12.6161919 C26.117,12.6161919 26.13975,12.5937031 26.18525,12.5937031 L26.32175,12.5937031 Z M25.27525,12.5712144 L25.2525,12.5937031 L25.2525,12.5937031 L25.207,12.6386807 C25.1918333,12.6536732 25.1766667,12.6686657 25.1547593,12.6903215 L25.116,12.7286357 L25.116,12.7286357 L25.081875,12.7736132 L25.081875,12.7736132 L25.04775,12.8185907 L25.04775,12.8185907 L25.036375,12.8410795 L25.036375,12.8410795 L25.025,12.8635682 L25.025,12.8635682 L24.968125,12.9422789 L24.968125,12.9422789 L24.91125,13.0209895 C24.6155,13.4707646 24.45625,14.0554723 24.41075,14.6626687 L24.41075,15.2473763 L24.41075,15.2473763 C24.41075,15.2923538 24.41075,15.3373313 24.4335,15.3823088 L24.4335,15.4722639 L24.4335,15.4722639 C24.4335,15.5172414 24.45625,15.5622189 24.45625,15.6071964 L24.45625,15.6746627 L24.45625,15.6746627 C24.45625,15.6971514 24.45625,15.7196402 24.479,15.7421289 C24.479,15.7871064 24.50175,15.832084 24.50175,15.8770615 L24.5245,15.922039 L24.5245,15.9445277 L24.5245,15.9445277 C24.5245,15.9895052 24.54725,16.0344828 24.57,16.0794603 L24.581375,16.1131934 L24.581375,16.1131934 L24.59275,16.1469265 L24.59275,16.1469265 L24.59275,16.1694153 L24.63825,16.2818591 L24.63825,16.2818591 C24.63825,16.3043478 24.661,16.3268366 24.68375,16.3718141 L24.68375,16.3943028 L24.68375,16.3943028 C24.68375,16.4167916 24.7065,16.4392804 24.7065,16.4617691 C24.72925,16.4842579 24.72925,16.5067466 24.72925,16.5067466 C24.752,16.5742129 24.7975,16.6416792 24.843,16.7091454 L24.86575,16.7316342 C24.91125,16.7991004 24.934,16.844078 24.9795,16.8890555 C24.9795,16.9115442 25.00225,16.9115442 25.00225,16.934033 L25.025,16.9565217 C25.04775,17.0014993 25.09325,17.023988 25.116,17.0689655 C25.13875,17.0914543 25.13875,17.113943 25.1615,17.113943 C25.207,17.1589205 25.22975,17.1814093 25.2525,17.2263868 C25.27525,17.2488756 25.298,17.2488756 25.298,17.2713643 L22.90925,17.2713643 L21.5215,15 L22.8865,12.5712144 L25.27525,12.5712144 Z M21.4305,-1.05693232e-13 L22.4315,1.70914543 L15.21975,13.9205397 L0.91,13.9205397 L7.12319093e-13,12.3463268 L0.15925,12.0764618 L5.84675,2.15892054 L6.62025,3.41829085 L7.735,5.19490255 L4.4135,10.7946027 L13.39975,10.7946027 L17.90425,3.12593703 L11.35225,3.14842579 L9.66875,-1.05693232e-13 L11.26125,0.0224887556 L11.4205,0.0224887556 L21.4305,-1.05693232e-13 Z M13.17225,5.71214393 L14.4235,7.73613193 L13.03575,10.1649175 L10.35125,10.1874063 L9.1,8.18590705 C9.12275,8.18590705 9.1455,8.2083958 9.16825,8.2083958 L9.16825,8.2083958 L9.30475,8.23088456 C9.3275,8.25337331 9.35025,8.25337331 9.373,8.25337331 C9.4185,8.27586207 9.464,8.27586207 9.5095,8.27586207 L9.80525,8.27586207 C9.8735,8.27586207 9.9645,8.25337331 10.03275,8.25337331 L10.03275,8.25337331 L10.101,8.25337331 C10.12375,8.23088456 10.1465,8.23088456 10.16925,8.23088456 L10.16925,8.23088456 L10.192,8.23088456 C10.21475,8.2083958 10.26025,8.2083958 10.283,8.2083958 C10.30575,8.2083958 10.35125,8.18590705 10.39675,8.18590705 L10.39675,8.18590705 L10.4195,8.18590705 L10.4582593,8.18007663 C10.4801667,8.17341329 10.4953333,8.16341829 10.5105,8.16341829 C10.556,8.14092954 10.6015,8.14092954 10.647,8.11844078 L10.647,8.11844078 L10.66975,8.11844078 L10.71525,8.09595202 C10.76075,8.07346327 10.80625,8.07346327 10.85175,8.05097451 C10.8745,8.05097451 10.89725,8.02848576 10.92,8.02848576 L10.92,8.02848576 L10.94275,8.02848576 L10.98825,8.005997 C11.03375,8.005997 11.07925,7.98350825 11.12475,7.96101949 C11.1475,7.96101949 11.17025,7.93853073 11.193,7.93853073 L11.193,7.93853073 L11.21575,7.93853073 C11.26125,7.91604198 11.284,7.89355322 11.3295,7.87106447 C11.35225,7.84857571 11.375,7.84857571 11.39775,7.82608696 L11.39775,7.82608696 L11.4205,7.82608696 C11.48875,7.8035982 11.557,7.75862069 11.62525,7.71364318 C11.6935,7.66866567 11.76175,7.62368816 11.83,7.57871064 C12.3305,7.21889055 12.74,6.76911544 12.99025,6.29685157 L12.99025,6.29685157 L13.0290093,6.23521573 C13.0509167,6.19690155 13.0660833,6.16191904 13.08125,6.11694153 L13.08125,6.11694153 L13.0972593,6.10028319 C13.104,6.09195402 13.104,6.08695652 13.104,6.07196402 L13.104,6.07196402 L13.1259074,6.03281692 C13.1393889,6.00949525 13.1495,5.98950525 13.1495,5.95952024 C13.1495,5.95952024 13.1495,5.93703148 13.12675,5.91454273 C13.12675,5.86956522 13.1495,5.84707646 13.1495,5.82458771 L13.1495,5.82458771 L13.1495,5.77961019 C13.17225,5.75712144 13.17225,5.73463268 13.17225,5.71214393 L13.17225,5.71214393 Z M11.48875,4.31784108 C11.98925,4.31784108 12.4215,4.47526237 12.58075,4.8125937 L12.58075,4.8125937 L12.614875,4.86881559 L12.614875,4.86881559 L12.649,4.92503748 C12.67175,4.97001499 12.6945,4.99250375 12.6945,5.03748126 L12.6945,5.03748126 L12.6945,5.48725637 C12.6945,5.50974513 12.67175,5.50974513 12.67175,5.55472264 C12.67175,5.59970015 12.649,5.62218891 12.649,5.66716642 C12.62625,5.68965517 12.62625,5.68965517 12.62625,5.71214393 L12.62625,5.71214393 C12.6136111,5.72713643 12.6035,5.74212894 12.6035,5.75712144 L12.6035,5.75712144 L12.58075,5.77961019 L12.58075,5.77961019 L12.5125,5.93703148 C12.48975,5.982009 12.467,6.04947526 12.4215,6.09445277 L12.4215,6.09445277 L12.39875,6.13943028 L12.39875,6.13943028 L12.39875,6.16108612 L12.39875,6.16108612 L12.364625,6.21814093 L12.364625,6.21814093 L12.3305,6.27436282 L12.285,6.31934033 C12.26225,6.36431784 12.21675,6.3868066 12.194,6.43178411 C12.17125,6.45427286 12.17125,6.45427286 12.1485,6.47676162 C12.12575,6.52173913 12.08025,6.54422789 12.0575,6.5892054 C12.03475,6.63418291 12.012,6.65667166 11.98925,6.67916042 C11.9665,6.70164918 11.94375,6.74662669 11.89825,6.76911544 C11.8755,6.7916042 11.8755,6.7916042 11.85275,6.81409295 L11.85275,6.81409295 L11.71625,6.92653673 L11.67075,6.94902549 L11.67075,6.94902549 L11.48875,7.08395802 C11.4205,7.12893553 11.35225,7.17391304 11.284,7.21889055 C11.21575,7.26386807 11.17025,7.30884558 11.102,7.33133433 C11.03375,7.35382309 10.9655,7.3988006 10.89725,7.42128936 L10.89725,7.42128936 L10.8745,7.44377811 C10.1465,7.78110945 9.39575,7.82608696 8.918,7.6011994 L8.918,7.6011994 L8.80425,7.53373313 C8.7815,7.51124438 8.7815,7.51124438 8.75875,7.48875562 C8.736,7.46626687 8.71325,7.46626687 8.6905,7.44377811 C8.66775,7.3988006 8.62225,7.37631184 8.5995,7.33133433 L8.5995,7.33133433 L8.53688776,7.250165 C8.42307143,7.07982743 8.3785,6.86228314 8.4175,6.61169415 C8.5085,5.982009 9.0545,5.30734633 9.828,4.83508246 C10.101,4.67766117 10.39675,4.54272864 10.6925,4.45277361 C10.9655,4.36281859 11.2385,4.31784108 11.48875,4.31784108 Z" id="logo" fill="#41E6AF" fill-rule="nonzero"></path>
    </g>
</svg>