<?xml version="1.0" encoding="utf-8"?>
<!-- Generator: Adobe Illustrator 26.4.1, SVG Export Plug-In . SVG Version: 6.00 Build 0)  -->
<svg version="1.1" id="Layer_1" xmlns="http://www.w3.org/2000/svg" xmlns:xlink="http://www.w3.org/1999/xlink" x="0px" y="0px"
	 viewBox="0 0 207 63" style="enable-background:new 0 0 207 63;" xml:space="preserve">
<style type="text/css">
	.st0{fill:#FFFFFF;}
</style>
<path id="icon_logo_00000090267857425621181190000000439959203930188716_" class="st0" d="M44.1,45.7l7.5-2.9v2.9
	c0,3.5,0.8,5.5,4.4,5.5c3.6,0,3.8-4.1,3.8-5.5s0.6-5-7.3-11.4C43.4,26.9,44,19.1,44,18.5C44.1,18,43.5,6,56.3,6s11.4,13.1,11.4,13.1
	l-7.5,2v-4.4c0-2.4-2.4-3.2-3.8-3.2s-4.1,0.6-4.1,4.1s1.9,7.5,6.1,10.8C68.9,36.5,68,43.6,68,44.8s1.2,13.7-11.9,13.7
	S44.1,45.7,44.1,45.7z M26.6,58.4c-6,0-10.9-4.9-10.9-11V17.1c0-6,4.9-10.9,10.9-11h2.5c6,0,10.9,4.9,10.9,11v30.3
	c0,6-4.9,10.9-10.9,11H26.6z M24,16.9v30.7c0,1.9,1.5,3.3,3.3,3.3l0,0h1.2c1.9,0,3.3-1.5,3.3-3.3l0,0V16.9c0-1.9-1.5-3.3-3.3-3.3
	l0,0h-1.2C25.4,13.6,23.9,15.1,24,16.9C23.9,16.9,23.9,16.9,24,16.9L24,16.9z M78.9,58.1v-44h-8.7V6.8h25l0,0c0,4-3.3,7.3-7.3,7.3
	h-5.2c2.2,0,4,1.8,4,4l0,0v40.1L78.9,58.1L78.9,58.1z M2.4,58V6.9h3.8c2.2,0,4,1.8,4,4v47L2.4,58L2.4,58z"/>
<path class="st0" d="M127.5,55c-2-2.2-3-5.3-3-9.2V18.5c0-4,1-7,3-9.2s4.9-3.3,8.7-3.3s6.7,1.1,8.7,3.3s3,5.3,3.1,9.2V22l-7.5,1.8
	V18c0-3.1-1.4-4.7-4-4.7s-4,1.6-4,4.7v28.4c0,3.1,1.4,4.7,4,4.7s4-1.5,4-4.7v-6l7.5-1.8v7.2c0,4-1,7-3,9.2s-4.9,3.3-8.7,3.3
	C132.4,58.3,129.5,57.2,127.5,55L127.5,55z"/>
<path class="st0" d="M169.1,6.8h-10.8l-8.2,50.7h7.4l1.4-9.9h5c2.7,0,3.1-6.6,3.1-6.6l0.8,6.4l1.4,10.1h8L169.1,6.8z M159.8,40.7
	l3.5-25.1h0.2l3.6,25.1H159.8z"/>
<path class="st0" d="M96.9,45.7l7.5-2.9v2.9c0,3.5,0.8,5.5,4.4,5.5s3.8-4.1,3.8-5.5s0.6-5-7.3-11.4c-9.1-7.4-8.5-15.2-8.5-15.8
	C96.9,18,96.3,6,109.1,6s11.4,13.1,11.4,13.1l-7.5,2v-4.4c0-2.4-2.4-3.2-3.8-3.2s-4.1,0.6-4.1,4.1s1.9,7.5,6.1,10.8
	c10.5,8.1,9.6,15.2,9.6,16.4s1.2,13.7-11.9,13.7S96.9,45.7,96.9,45.7z"/>
<path class="st0" d="M197,6.9l0.1,26.6L189.2,7l0,0h-7.7v50.8h7.7V30.7l8,27.1l0,0l0,0h7.7V12.2c0-2.9-2.4-5.3-5.3-5.3
	C199.6,6.9,197,6.9,197,6.9z"/>
</svg>
