<svg width="99.074" height="19.225" viewBox="0 0 812.286 194.023" xmlns="http://www.w3.org/2000/svg">
    <defs>
        <clipPath clipPathUnits="userSpaceOnUse" id="a">
            <path d="M287.388 423.305a146.204 146.204 0 0 1-11.414-1.088c-15.402-2.168-31.22-6.834-46.56-13.246-11.406-4.781-22.579-10.485-33.293-16.964a258.497 258.497 0 0 1-10.938-6.985c-13.959-9.402-26.923-20.153-38.177-31.786a184.416 184.416 0 0 1-8.094-8.878 163.313 163.313 0 0 1-7.321-9.154c-4.561-6.197-8.518-12.536-11.721-18.882-6.485-12.676-9.653-25.331-9.269-36.543l.933.283c.929 5.882 2.479 11.865 4.891 17.869 2.401 6.005 5.454 12.005 9.185 17.878 3.72 5.865 8.057 11.608 12.879 17.122a162.462 162.462 0 0 0 7.494 8.12c2.601 2.663 5.3 5.255 8.097 7.776 22.406 20.156 49.726 36.211 76.639 45.882 13.453 4.822 26.848 8.023 39.241 9.018 3.103.268 6.121.368 9.09.378a90.852 90.852 0 0 0 8.613-.474c5.761-.619 11.252-1.663 16.443-3.097 10.403-2.85 19.485-7.365 26.891-13.278 7.468-5.864 13.186-13.184 16.88-21.559 7.539-16.688 6.374-37.868-3.85-59.109a121.794 121.794 0 0 0-4.189-7.964c-.784-1.323-1.558-2.646-2.399-3.947-.843-1.31-1.607-2.637-2.535-3.92-3.497-5.207-7.458-10.289-11.833-15.199-8.786-9.79-19.165-18.834-30.522-26.541a176.954 176.954 0 0 0-17.17-10.259 161.999 161.999 0 0 0-18.82-8.42c-12.366-4.579-24.814-7.429-36.535-8.273-5.852-.402-11.557-.376-16.984.177-5.332.513-10.304 1.556-14.847 3.166-9.082 3.188-16.399 8.524-21.365 15.53-4.978 6.99-7.553 15.65-7.503 25.205.074 9.57 2.873 20.025 8.079 30.478 2.646 5.295 5.682 10.338 9.482 15.28a111.975 111.975 0 0 0 7.298 8.62 100.585 100.585 0 0 0 5.593 5.542 122.489 122.489 0 0 0 15.399 12.172c.188.126.283.199.283.199 2.775 1.894 5.685 3.597 8.588 5.272 2.949 1.593 5.908 3.185 8.929 4.53 12.059 5.549 24.61 8.867 36.177 9.547 5.781.356 11.396-.02 16.327-.963 4.938-1.006 9.438-2.678 13.215-5.063 7.613-4.722 12.552-12.12 13.891-21.096 1.352-8.968-.818-19.384-6.269-29.738-1.409-2.614-2.868-5.118-4.574-7.591a81.528 81.528 0 0 0-5.705-7.235c-4.148-4.689-9.014-9.091-14.351-12.952a84.508 84.508 0 0 0-5.352-3.562c-.047-.031-.103-.061-.15-.092-9.345-5.742-19.641-9.665-29.149-11.071-5.727-.898-11.138-.879-16.088-.135-4.74.772-8.886 2.323-12.16 4.679-6.634 4.618-10.021 12.125-9.523 20.856.229 4.37 1.458 9.05 3.634 13.816a48.852 48.852 0 0 0 3.908 6.971 55.092 55.092 0 0 0 5.253 6.651 66.169 66.169 0 0 0 4.715 4.565 65.903 65.903 0 0 0 6.226 4.887 59.694 59.694 0 0 0 3.249 2.125 66.93 66.93 0 0 0 17.084 7.532 52.01 52.01 0 0 0 8.758 1.68c2.876.313 5.761.36 8.354.118 5.26-.468 9.905-2.231 13.383-5.189 3.483-2.938 5.753-7.093 6.454-12.066.709-4.984-.28-10.814-2.882-16.953l.818-.092a52.857 52.857 0 0 1 5.699 9.448c1.458 3.227 2.467 6.493 3.025 9.695.525 3.198.546 6.315.062 9.256-.542 2.903-1.485 5.691-3.04 8.122-3.029 4.908-8.159 8.633-14.802 10.55-3.36.946-6.908 1.46-10.718 1.629-3.815.149-7.874-.112-12.065-.775-8.378-1.306-17.276-4.303-25.839-8.632a106.503 106.503 0 0 1-8.716-5c-5.396-3.431-10.55-7.389-15.186-11.767-3.53-3.334-6.788-6.885-9.671-10.552-2.887-3.686-5.343-7.51-7.385-11.202-4.142-7.474-6.805-15.151-7.635-22.378-.83-7.227.104-13.991 2.766-19.764 2.627-5.796 7.007-10.574 12.71-14.038 5.742-3.418 12.774-5.536 20.548-6.179 7.611-.591 15.84-.08 24.306 1.667 14.286 2.861 29.018 9.037 42.407 17.47.01-.001.012.009.012.009a146.422 146.422 0 0 1 7.291 4.907 137 137 0 0 1 5.59 4.25c.012.007.012.007.013.017 5.472 4.374 10.559 9.121 15.081 14.154a114.164 114.164 0 0 1 8.282 10.339c2.498 3.519 4.653 7.117 6.563 10.61 7.624 14.143 10.853 28.589 9.181 41.007-1.606 12.445-7.954 22.95-18.33 29.822-3.543 2.38-7.572 4.315-11.958 5.792a63.834 63.834 0 0 1-6.2 1.737c-6.922 1.493-14.184 2.095-21.965 1.781-8.625-.288-17.735-1.693-26.978-4.121-7.342-1.941-14.762-4.529-22.081-7.74-4.147-1.773-8.228-3.824-12.292-5.95-4.02-2.206-8.033-4.485-11.903-7.017-7.805-4.979-15.203-10.631-22.039-16.731a157.285 157.285 0 0 1-18.481-19.542c-5.471-6.822-10.023-14-13.692-20.946-7.449-14.024-11.656-28.317-12.157-41.463-.483-13.15 2.616-25.169 9.084-35.014 6.564-9.783 16.485-17.351 28.923-21.962 6.193-2.328 13.052-3.879 20.296-4.682 7.102-.846 14.654-.966 22.459-.432 15.607 1.046 32.255 4.761 48.731 10.937 16.471 6.146 32.783 14.66 47.799 25.011 15.011 10.333 28.768 22.455 40.182 35.556a185.251 185.251 0 0 1 10.277 12.868 167.664 167.664 0 0 1 5.047 7.314c1.176 1.702 2.166 3.443 3.232 5.157 1.09 1.731 2.046 3.456 3.011 5.182a152.313 152.313 0 0 1 5.199 10.414c6.249 13.896 9.682 27.782 9.938 40.559.288 12.791-2.452 24.462-7.621 34.538-5.247 10.041-12.923 18.486-22.506 25.089-9.586 6.592-21.131 11.281-33.979 13.998-6.417 1.362-13.224 2.149-20.233 2.487-1.694.066-3.403.101-5.127.101-1.963 0-3.945-.046-5.946-.146"/>
        </clipPath>
        <clipPath clipPathUnits="userSpaceOnUse" id="c">
            <path d="M0 500h500V0H0Z"/>
        </clipPath>
        <clipPath clipPathUnits="userSpaceOnUse" id="d">
            <path d="M241.267 379.921h85.862V264.598h-85.862z"/>
        </clipPath>
        <clipPath clipPathUnits="userSpaceOnUse" id="e">
            <path d="M196.121 423.451H382.82V278.612H196.121Z"/>
        </clipPath>
        <clipPath clipPathUnits="userSpaceOnUse" id="f">
            <path d="M152.369 320.52H275.38V217.595H152.369Z"/>
        </clipPath>
        <clipPath clipPathUnits="userSpaceOnUse" id="g">
            <path d="M192.962 315.823h73.223v-60.855h-73.223z"/>
        </clipPath>
        <clipPath clipPathUnits="userSpaceOnUse" id="h">
            <path d="M233.584 305.762c-9.265-6.723-13.785-16.296-10.095-21.382 3.69-5.087 14.193-3.76 23.459 2.962 9.266 6.722 13.785 16.295 10.095 21.382-1.513 2.085-4.17 3.093-7.418 3.093-4.675 0-10.573-2.088-16.041-6.055"/>
        </clipPath>
        <clipPath clipPathUnits="userSpaceOnUse" id="j">
            <path d="M0 500h500V0H0Z"/>
        </clipPath>
        <clipPath clipPathUnits="userSpaceOnUse" id="k">
            <path d="m214.364 213.844-11.971 2.388 8.281-8.968-5.971-10.648 11.089 5.105 8.281-8.97-1.427 12.124 11.088 5.104-11.971 2.389-1.429 12.123z"/>
        </clipPath>
        <clipPath clipPathUnits="userSpaceOnUse" id="m">
            <path d="m171.311 331.869-5.223 1.042 3.612-3.913-2.604-4.646 4.837 2.227 3.614-3.913-.623 5.29 4.837 2.227-5.222 1.042-.623 5.289z"/>
        </clipPath>
        <clipPath clipPathUnits="userSpaceOnUse" id="o">
            <path d="M0 500h500V0H0Z"/>
        </clipPath>
        <clipPath clipPathUnits="userSpaceOnUse" id="p">
            <path d="M270.505 368.325h94.013V223.022h-94.013z"/>
        </clipPath>
        <clipPath clipPathUnits="userSpaceOnUse" id="q">
            <path d="M146.972 280.824h67.733v-72.777h-67.733z"/>
        </clipPath>
        <clipPath clipPathUnits="userSpaceOnUse" id="r">
            <path d="M206.022 365.596h102.32v-34.909h-102.32z"/>
        </clipPath>
        <clipPath clipPathUnits="userSpaceOnUse" id="s">
            <path d="M183.133 310.019h28.712v-57.801h-28.712z"/>
        </clipPath>
        <linearGradient x1="0" y1="0" x2="1" y2="0" gradientUnits="userSpaceOnUse" gradientTransform="scale(256.60236 -256.60236) rotate(11.283 6.824 1.713)" spreadMethod="pad" id="b">
            <stop style="stop-opacity:1;stop-color:#392ec4" offset="0"/>
            <stop style="stop-opacity:1;stop-color:#992ec4" offset=".261"/>
            <stop style="stop-opacity:1;stop-color:#992ec4" offset=".307"/>
            <stop style="stop-opacity:1;stop-color:#006aae" offset=".614"/>
            <stop style="stop-opacity:1;stop-color:#006aae" offset=".668"/>
            <stop style="stop-opacity:1;stop-color:#00eed0" offset="1"/>
        </linearGradient>
        <linearGradient x1="0" y1="0" x2="1" y2="0" gradientUnits="userSpaceOnUse" gradientTransform="scale(31.9584 -31.9584) rotate(11.283 36.847 28.618)" spreadMethod="pad" id="l">
            <stop style="stop-opacity:1;stop-color:#ff6e46" offset="0"/>
            <stop style="stop-opacity:1;stop-color:#ff6e46" offset=".094"/>
            <stop style="stop-opacity:1;stop-color:#ffdc00" offset="1"/>
        </linearGradient>
        <linearGradient x1="0" y1="0" x2="1" y2="0" gradientUnits="userSpaceOnUse" gradientTransform="scale(13.9438 -13.9438) rotate(11.283 126.24 48.3)" spreadMethod="pad" id="n">
            <stop style="stop-opacity:1;stop-color:#ff6e46" offset="0"/>
            <stop style="stop-opacity:1;stop-color:#ff6e46" offset=".094"/>
            <stop style="stop-opacity:1;stop-color:#ffdc00" offset="1"/>
        </linearGradient>
        <radialGradient fx="0" fy="0" cx="0" cy="0" r="1" gradientUnits="userSpaceOnUse" gradientTransform="matrix(18.69305 15.00942 6.72628 -8.37705 246.74 301.631)" spreadMethod="pad" id="i">
            <stop style="stop-opacity:1;stop-color:#ff31ca" offset="0"/>
            <stop style="stop-opacity:1;stop-color:#ff31ca" offset=".005"/>
            <stop style="stop-opacity:1;stop-color:#7b10c7" offset=".992"/>
            <stop style="stop-opacity:1;stop-color:#7b10c7" offset="1"/>
        </radialGradient>
    </defs>
    <g clip-path="url(#a)" transform="matrix(.83875 0 0 -.83875 -245.171 355.17)">
        <path d="M287.388 423.305a146.204 146.204 0 0 1-11.414-1.088c-15.402-2.168-31.22-6.834-46.56-13.246-11.406-4.781-22.579-10.485-33.293-16.964a258.497 258.497 0 0 1-10.938-6.985c-13.959-9.402-26.923-20.153-38.177-31.786a184.416 184.416 0 0 1-8.094-8.878 163.313 163.313 0 0 1-7.321-9.154c-4.561-6.197-8.518-12.536-11.721-18.882-6.485-12.676-9.653-25.331-9.269-36.543l.933.283c.929 5.882 2.479 11.865 4.891 17.869 2.401 6.005 5.454 12.005 9.185 17.878 3.72 5.865 8.057 11.608 12.879 17.122a162.462 162.462 0 0 0 7.494 8.12c2.601 2.663 5.3 5.255 8.097 7.776 22.406 20.156 49.726 36.211 76.639 45.882 13.453 4.822 26.848 8.023 39.241 9.018 3.103.268 6.121.368 9.09.378a90.852 90.852 0 0 0 8.613-.474c5.761-.619 11.252-1.663 16.443-3.097 10.403-2.85 19.485-7.365 26.891-13.278 7.468-5.864 13.186-13.184 16.88-21.559 7.539-16.688 6.374-37.868-3.85-59.109a121.794 121.794 0 0 0-4.189-7.964c-.784-1.323-1.558-2.646-2.399-3.947-.843-1.31-1.607-2.637-2.535-3.92-3.497-5.207-7.458-10.289-11.833-15.199-8.786-9.79-19.165-18.834-30.522-26.541a176.954 176.954 0 0 0-17.17-10.259 161.999 161.999 0 0 0-18.82-8.42c-12.366-4.579-24.814-7.429-36.535-8.273-5.852-.402-11.557-.376-16.984.177-5.332.513-10.304 1.556-14.847 3.166-9.082 3.188-16.399 8.524-21.365 15.53-4.978 6.99-7.553 15.65-7.503 25.205.074 9.57 2.873 20.025 8.079 30.478 2.646 5.295 5.682 10.338 9.482 15.28a111.975 111.975 0 0 0 7.298 8.62 100.585 100.585 0 0 0 5.593 5.542 122.489 122.489 0 0 0 15.399 12.172c.188.126.283.199.283.199 2.775 1.894 5.685 3.597 8.588 5.272 2.949 1.593 5.908 3.185 8.929 4.53 12.059 5.549 24.61 8.867 36.177 9.547 5.781.356 11.396-.02 16.327-.963 4.938-1.006 9.438-2.678 13.215-5.063 7.613-4.722 12.552-12.12 13.891-21.096 1.352-8.968-.818-19.384-6.269-29.738-1.409-2.614-2.868-5.118-4.574-7.591a81.528 81.528 0 0 0-5.705-7.235c-4.148-4.689-9.014-9.091-14.351-12.952a84.508 84.508 0 0 0-5.352-3.562c-.047-.031-.103-.061-.15-.092-9.345-5.742-19.641-9.665-29.149-11.071-5.727-.898-11.138-.879-16.088-.135-4.74.772-8.886 2.323-12.16 4.679-6.634 4.618-10.021 12.125-9.523 20.856.229 4.37 1.458 9.05 3.634 13.816a48.852 48.852 0 0 0 3.908 6.971 55.092 55.092 0 0 0 5.253 6.651 66.169 66.169 0 0 0 4.715 4.565 65.903 65.903 0 0 0 6.226 4.887 59.694 59.694 0 0 0 3.249 2.125 66.93 66.93 0 0 0 17.084 7.532 52.01 52.01 0 0 0 8.758 1.68c2.876.313 5.761.36 8.354.118 5.26-.468 9.905-2.231 13.383-5.189 3.483-2.938 5.753-7.093 6.454-12.066.709-4.984-.28-10.814-2.882-16.953l.818-.092a52.857 52.857 0 0 1 5.699 9.448c1.458 3.227 2.467 6.493 3.025 9.695.525 3.198.546 6.315.062 9.256-.542 2.903-1.485 5.691-3.04 8.122-3.029 4.908-8.159 8.633-14.802 10.55-3.36.946-6.908 1.46-10.718 1.629-3.815.149-7.874-.112-12.065-.775-8.378-1.306-17.276-4.303-25.839-8.632a106.503 106.503 0 0 1-8.716-5c-5.396-3.431-10.55-7.389-15.186-11.767-3.53-3.334-6.788-6.885-9.671-10.552-2.887-3.686-5.343-7.51-7.385-11.202-4.142-7.474-6.805-15.151-7.635-22.378-.83-7.227.104-13.991 2.766-19.764 2.627-5.796 7.007-10.574 12.71-14.038 5.742-3.418 12.774-5.536 20.548-6.179 7.611-.591 15.84-.08 24.306 1.667 14.286 2.861 29.018 9.037 42.407 17.47.01-.001.012.009.012.009a146.422 146.422 0 0 1 7.291 4.907 137 137 0 0 1 5.59 4.25c.012.007.012.007.013.017 5.472 4.374 10.559 9.121 15.081 14.154a114.164 114.164 0 0 1 8.282 10.339c2.498 3.519 4.653 7.117 6.563 10.61 7.624 14.143 10.853 28.589 9.181 41.007-1.606 12.445-7.954 22.95-18.33 29.822-3.543 2.38-7.572 4.315-11.958 5.792a63.834 63.834 0 0 1-6.2 1.737c-6.922 1.493-14.184 2.095-21.965 1.781-8.625-.288-17.735-1.693-26.978-4.121-7.342-1.941-14.762-4.529-22.081-7.74-4.147-1.773-8.228-3.824-12.292-5.95-4.02-2.206-8.033-4.485-11.903-7.017-7.805-4.979-15.203-10.631-22.039-16.731a157.285 157.285 0 0 1-18.481-19.542c-5.471-6.822-10.023-14-13.692-20.946-7.449-14.024-11.656-28.317-12.157-41.463-.483-13.15 2.616-25.169 9.084-35.014 6.564-9.783 16.485-17.351 28.923-21.962 6.193-2.328 13.052-3.879 20.296-4.682 7.102-.846 14.654-.966 22.459-.432 15.607 1.046 32.255 4.761 48.731 10.937 16.471 6.146 32.783 14.66 47.799 25.011 15.011 10.333 28.768 22.455 40.182 35.556a185.251 185.251 0 0 1 10.277 12.868 167.664 167.664 0 0 1 5.047 7.314c1.176 1.702 2.166 3.443 3.232 5.157 1.09 1.731 2.046 3.456 3.011 5.182a152.313 152.313 0 0 1 5.199 10.414c6.249 13.896 9.682 27.782 9.938 40.559.288 12.791-2.452 24.462-7.621 34.538-5.247 10.041-12.923 18.486-22.506 25.089-9.586 6.592-21.131 11.281-33.979 13.998-6.417 1.362-13.224 2.149-20.233 2.487-1.694.066-3.403.101-5.127.101-1.963 0-3.945-.046-5.946-.146" style="fill:url(#b);stroke:none"/>
    </g>
    <g clip-path="url(#c)" transform="matrix(.83875 0 0 -.83875 -245.171 355.17)">
        <g clip-path="url(#d)" opacity=".33">
            <path d="M0 0c-1.91-3.494-4.065-7.091-6.562-10.611a114.644 114.644 0 0 0-8.284-10.339c-4.521-5.032-9.608-9.779-15.08-14.153 15.351 19.544 45.709 65.605 18.824 95.635-15.703 17.531-41.508 19.08-65.148 15.486 9.243 2.428 18.354 3.833 26.978 4.121 7.781.314 15.043-.289 21.965-1.782a63.832 63.832 0 0 0 6.2-1.736c4.386-1.477 8.415-3.413 11.958-5.792C1.227 63.956 7.574 53.451 9.181 41.007 10.854 28.589 7.624 14.142 0 0" style="fill:#000daf;fill-opacity:1;fill-rule:nonzero;stroke:none" transform="translate(317.517 299.701)"/>
        </g>
        <g clip-path="url(#e)" opacity=".33">
            <path d="M0 0a152.526 152.526 0 0 0-5.198-10.414c-.966-1.725-1.922-3.451-3.012-5.181-1.065-1.715-2.056-3.455-3.231-5.157a168.239 168.239 0 0 0-5.048-7.314C-.114.655 11.367 41.131-18.729 78.879c-43.266 54.284-125.668 22.134-158.012 6.449 10.714 6.479 21.887 12.183 33.292 16.964 15.341 6.413 31.16 11.078 46.561 13.247 3.848.527 7.649.87 11.414 1.087 3.759.189 7.451.187 11.073.045 7.009-.338 13.817-1.125 20.234-2.486 12.847-2.717 24.393-7.406 33.979-13.999 9.583-6.603 17.258-15.047 22.505-25.088 5.169-10.076 7.909-21.747 7.621-34.538C9.683 27.783 6.25 13.896 0 0" style="fill:#000daf;fill-opacity:1;fill-rule:nonzero;stroke:none" transform="translate(372.862 306.678)"/>
        </g>
        <g clip-path="url(#f)" opacity=".33">
            <path d="M0 0a6.967 6.967 0 0 0-1.184-.825C-23.611-13.42-94.729-41.907-118.275 4.038c-14.774 28.837 8.038 59.15 27.079 77.724a112.363 112.363 0 0 1-7.297-8.619c-3.8-4.942-6.836-9.986-9.483-15.28-5.206-10.453-8.005-20.908-8.079-30.478-.05-9.555 2.525-18.216 7.504-25.205 4.965-7.007 12.282-12.342 21.364-15.531 4.543-1.61 9.515-2.653 14.848-3.166 5.426-.552 11.131-.579 16.984-.176 11.721.843 24.169 3.693 36.534 8.272A161.945 161.945 0 0 1 0 0" style="fill:#000daf;fill-opacity:1;fill-rule:nonzero;stroke:none" transform="translate(275.38 238.758)"/>
        </g>
        <g clip-path="url(#g)" opacity=".33">
            <path d="M0 0c-.339-.779-.903-1.411-1.722-1.88-12.855-7.397-55.658-25.881-69.075 3.115-8.893 19.211 8.583 35.966 21.386 45.098a66.381 66.381 0 0 1-4.714-4.566 54.982 54.982 0 0 1-5.252-6.651 48.91 48.91 0 0 1-3.91-6.97c-2.174-4.767-3.404-9.447-3.633-13.816-.498-8.732 2.889-16.239 9.524-20.857 3.272-2.355 7.418-3.907 12.159-4.679 4.95-.743 10.361-.762 16.087.135C-19.641-9.664-9.345-5.743 0 0" style="fill:#000daf;fill-opacity:1;fill-rule:nonzero;stroke:none" transform="translate(266.185 269.49)"/>
        </g>
    </g>
    <g clip-path="url(#h)" transform="matrix(.83875 0 0 -.83875 -245.171 355.17)">
        <path d="M233.584 305.762c-9.265-6.723-13.785-16.296-10.095-21.382 3.69-5.087 14.193-3.76 23.459 2.962 9.266 6.722 13.785 16.295 10.095 21.382-1.513 2.085-4.17 3.093-7.418 3.093-4.675 0-10.573-2.088-16.041-6.055" style="fill:url(#i);stroke:none"/>
    </g>
    <g clip-path="url(#j)" transform="matrix(.83875 0 0 -.83875 -245.171 355.17)">
        <path d="m0 0 .562-4.776 4.717-.941L.91-7.729l.563-4.776-3.263 3.534-4.368-2.011 2.351 4.195-3.262 3.533 4.716-.941z" style="fill:#fdfdfd;fill-opacity:1;fill-rule:nonzero;stroke:none" transform="translate(339.361 349.913)"/>
    </g>
    <g clip-path="url(#k)" transform="matrix(.83875 0 0 -.83875 -245.171 355.17)">
        <path d="m214.364 213.844-11.971 2.388 8.281-8.968-5.971-10.648 11.089 5.105 8.281-8.97-1.427 12.124 11.088 5.104-11.971 2.389-1.429 12.123z" style="fill:url(#l);stroke:none"/>
    </g>
    <g clip-path="url(#m)" transform="matrix(.83875 0 0 -.83875 -245.171 355.17)">
        <path d="m171.311 331.869-5.223 1.042 3.612-3.913-2.604-4.646 4.837 2.227 3.614-3.913-.623 5.29 4.837 2.227-5.222 1.042-.623 5.289z" style="fill:url(#n);stroke:none"/>
    </g>
    <g clip-path="url(#o)" transform="matrix(.83875 0 0 -.83875 -245.171 355.17)">
        <path d="m0 0 .253-2.145 2.118-.423-1.962-.903.253-2.145-1.466 1.587-1.962-.903 1.057 1.884-1.465 1.587 2.118-.423z" style="fill:#fdfdfd;fill-opacity:1;fill-rule:nonzero;stroke:none" transform="translate(333.685 365.305)"/>
        <path d="m0 0 .337-2.861 2.825-.563L.546-4.629.883-7.49l-1.954 2.117-2.617-1.205 1.409 2.513-1.954 2.116 2.825-.564z" style="fill:#fdfdfd;fill-opacity:1;fill-rule:nonzero;stroke:none" transform="translate(349.008 339.82)"/>
        <path d="M0 0a4.139 4.139 0 1 0-8.118 1.62A4.139 4.139 0 0 0 0 0" style="fill:#fdfdfd;fill-opacity:1;fill-rule:nonzero;stroke:none" transform="translate(278.924 410.765)"/>
        <path d="M0 0a1.842 1.842 0 1 0-3.613.72A1.842 1.842 0 0 0 0 0" style="fill:#fdfdfd;fill-opacity:1;fill-rule:nonzero;stroke:none" transform="translate(262.38 416.406)"/>
        <path d="M0 0a1.843 1.843 0 1 0-3.616.722A1.843 1.843 0 0 0 0 0" style="fill:#fdfdfd;fill-opacity:1;fill-rule:nonzero;stroke:none" transform="translate(259.677 402.855)"/>
        <path d="M0 0a1.311 1.311 0 1 0-2.571.514A1.311 1.311 0 0 0 0 0" style="fill:#fdfdfd;fill-opacity:1;fill-rule:nonzero;stroke:none" transform="translate(288.431 322.349)"/>
        <path d="M0 0a2.29 2.29 0 1 0-4.492.896A2.29 2.29 0 0 0 0 0" style="fill:#fdfdfd;fill-opacity:1;fill-rule:nonzero;stroke:none" transform="translate(298.483 313.999)"/>
        <path d="M0 0a3.316 3.316 0 1 0-6.503 1.297A3.316 3.316 0 0 0 0 0" style="fill:#fdfdfd;fill-opacity:1;fill-rule:nonzero;stroke:none" transform="translate(290.05 309.964)"/>
        <path d="M0 0a1.02 1.02 0 1 0-2.003.398A1.02 1.02 0 0 0 0 0" style="fill:#fdfdfd;fill-opacity:1;fill-rule:nonzero;stroke:none" transform="translate(245.084 203.016)"/>
        <path d="M0 0a3.088 3.088 0 1 0-6.057 1.21A3.088 3.088 0 0 0 0 0" style="fill:#fdfdfd;fill-opacity:1;fill-rule:nonzero;stroke:none" transform="translate(265.272 202.714)"/>
        <path d="M0 0a2.729 2.729 0 1 0-5.352 1.066A2.729 2.729 0 0 0 0 0" style="fill:#fdfdfd;fill-opacity:1;fill-rule:nonzero;stroke:none" transform="translate(255.58 194.323)"/>
        <g clip-path="url(#p)" opacity=".53">
            <path d="M0 0c1.845-3.419 3.094-7.148 4.007-10.934.98-3.783 1.457-7.672 1.817-11.571.543-7.818-.233-15.712-1.97-23.354l-.629-2.877c-.196-.963-.543-1.883-.808-2.827L.679-57.188l-2.174-5.465-1.089-2.734c-.408-.89-.855-1.762-1.281-2.644l-2.61-5.269c-.411-.892-.927-1.724-1.428-2.565l-1.5-2.524-3.004-5.048-3.319-4.832c-1.133-1.591-2.187-3.241-3.392-4.779l-3.626-4.608-1.814-2.302c-.604-.769-1.282-1.475-1.92-2.215l-3.889-4.386-.981-1.089-1.035-1.038-2.071-2.074c-1.4-1.364-2.719-2.807-4.183-4.102l-4.354-3.921c-1.427-1.334-3.008-2.491-4.512-3.734-2.998-2.501-6.195-4.748-9.366-7.016l-4.896-3.202c-1.646-1.041-3.34-2.01-5.011-3.009-6.789-3.802-13.815-7.268-21.242-9.559a69.128 69.128 0 0 1 5.319 2.338c1.76.8 3.467 1.715 5.189 2.589 1.689.943 3.392 1.853 5.05 2.843 1.642 1.021 3.321 1.97 4.925 3.044 6.524 4.12 12.697 8.77 18.545 13.771 11.757 9.942 22.065 21.521 30.81 34.156l3.294 4.733 2.971 4.928 1.486 2.464c.496.822 1.009 1.634 1.414 2.503l2.604 5.125c.432.855.888 1.701 1.302 2.564L-4-61.596l2.222 5.3 1.801 5.452c.286.912.657 1.803.873 2.735l.696 2.785c1.887 7.41 2.962 15.072 2.776 22.755-.134 3.832-.38 7.687-1.133 11.468-.17.949-.33 1.901-.583 2.831-.245.932-.428 1.884-.723 2.802C1.395-3.613.806-1.765 0 0" style="fill:#76ffff;fill-opacity:1;fill-rule:nonzero;stroke:none" transform="translate(358.523 368.325)"/>
        </g>
        <g clip-path="url(#q)" opacity=".53">
            <path d="M0 0c-1.315-4.762-2.162-9.621-2.595-14.491-.435-4.868-.415-9.761.17-14.559 1.133-9.584 4.981-18.814 11.66-25.647 6.666-6.873 15.241-11.905 24.558-14.435 4.659-1.284 9.5-1.973 14.375-2.131 4.877-.167 9.803.159 14.648 1.124-4.687-1.611-9.659-2.348-14.641-2.591-4.987-.19-10.036.194-14.947 1.334-2.456.554-4.892 1.251-7.242 2.186-2.354.917-4.669 1.96-6.872 3.212-1.128.581-2.169 1.308-3.249 1.971-1.03.735-2.099 1.422-3.083 2.219l-1.494 1.173c-.49.403-.958.829-1.437 1.242-.972.807-1.863 1.73-2.772 2.625-.883.921-1.707 1.903-2.519 2.887-.763 1.026-1.567 2.022-2.235 3.113-1.426 2.122-2.608 4.4-3.597 6.747-1.947 4.711-3.096 9.712-3.466 14.736-.408 5.024-.094 10.058.694 14.978C-3.195-9.398-1.942-4.556 0 0" style="fill:#76ffff;fill-opacity:1;fill-rule:nonzero;stroke:none" transform="translate(151.889 280.824)"/>
        </g>
        <g clip-path="url(#r)" opacity=".53">
            <path d="M0 0c3.832 3.381 8.347 5.925 12.968 8.128a87.426 87.426 0 0 0 14.498 5.182c9.966 2.575 20.314 3.522 30.581 3.284 5.144-.098 10.364-.689 15.411-2.009 2.506-.733 5.002-1.534 7.373-2.66 2.383-1.081 4.684-2.372 6.79-3.938 8.567-6.091 14.098-16.081 14.7-26.267C100.458-8.275 94.548.691 86.291 6.068c-4.117 2.711-8.745 4.589-13.541 5.775-4.814 1.168-9.766 1.716-14.781 1.763-2.512.014-5.029.173-7.538.017l-3.765-.138c-1.258-.027-2.502-.208-3.756-.286-5.02-.311-9.972-1.2-14.905-2.151C23.097 9.97 18.25 8.58 13.539 6.784 8.834 4.986 4.221 2.847 0 0" style="fill:#76ffff;fill-opacity:1;fill-rule:nonzero;stroke:none" transform="translate(206.022 348.966)"/>
        </g>
        <g clip-path="url(#s)" opacity=".53">
            <path d="M0 0a51.674 51.674 0 0 1-6.93-6.887 43.183 43.183 0 0 1-5.359-7.961c-2.908-5.634-4.254-11.998-3.333-18.197.706-6.219 3.659-12.032 8.378-16.219 2.346-2.098 5.047-3.851 7.946-5.254a43.864 43.864 0 0 1 9.18-3.282c-3.304.103-6.583.84-9.747 1.927-3.147 1.134-6.192 2.7-8.88 4.822-2.709 2.092-4.984 4.781-6.691 7.8-1.661 3.047-2.705 6.41-3.149 9.817-.247 1.703-.264 3.433-.234 5.153.112 1.717.259 3.441.666 5.115.766 3.351 2.058 6.567 3.836 9.454 1.744 2.909 3.913 5.516 6.322 7.825C-5.561-3.607-2.921-1.547 0 0" style="fill:#76ffff;fill-opacity:1;fill-rule:nonzero;stroke:none" transform="translate(201.963 310.019)"/>
        </g>
    </g>
    <g aria-label="Galaxy Finder" style="font-weight:700;font-size:80.7384px;font-family:Micker;-inkscape-font-specification:'Micker Bold';fill:#fff;stroke-width:10.0923">
        <path d="M447.508 79.339q8.074 0 14.856 3.391 6.863 3.391 11.223 10.254l-6.783 3.714q-3.39-4.602-8.477-7.186-5.006-2.584-10.819-2.584h-8.155q-4.763 0-8.962 1.777-4.198 1.695-7.427 4.763-3.23 2.988-5.087 7.186-1.857 4.118-1.857 8.881 0 4.764 1.857 8.962 1.857 4.118 5.087 7.186 3.23 2.987 7.427 4.763 4.199 1.696 8.962 1.696h8.155q2.422 0 5.571-.646 3.23-.646 5.975-2.018 2.825-1.454 4.763-3.553 1.938-2.18 1.938-5.167v-4.602q0-1.05-.485-1.534-.403-.485-1.695-.485h-16.551q-2.18 0-4.199-.323-1.938-.323-3.633-1.13-1.615-.888-2.826-2.422-1.13-1.534-1.695-3.956h28.904q1.857 0 3.633.646 1.857.645 3.23 1.857 1.453 1.21 2.26 2.906.889 1.696.889 3.714v5.167q0 4.845-2.503 8.478-2.423 3.633-6.298 6.055-3.795 2.342-8.397 3.553-4.602 1.13-8.881 1.13h-8.155q-6.297 0-11.949-2.341-5.652-2.342-9.93-6.379-4.2-4.117-6.702-9.608-2.503-5.57-2.503-11.949 0-6.378 2.503-11.868 2.503-5.571 6.701-9.608 4.28-4.037 9.931-6.379 5.652-2.341 11.95-2.341zM537.128 139.731l-6.702-16.309h-40.692l-6.459 16.31h-8.397l20.266-50.704q2.422-5.087 6.459-7.59 4.037-2.583 8.397-2.583 4.44 0 8.477 2.583 4.037 2.503 6.46 7.59 5.166 12.756 10.334 25.351 5.167 12.596 10.253 25.352zM517.83 92.015q-1.372-2.584-3.472-3.875-2.018-1.292-4.279-1.292-2.18 0-4.279 1.292-2.099 1.291-3.472 3.875l-9.446 23.656h34.395q-2.503-6.217-4.925-12.191-2.423-5.975-4.522-11.465zM594.452 139.812h-45.294V79.178h7.993v52.883h37.301zM660.98 139.731l-6.7-16.309h-40.693l-6.46 16.31h-8.396l20.265-50.704q2.423-5.087 6.46-7.59 4.036-2.583 8.396-2.583 4.441 0 8.478 2.583 4.037 2.503 6.459 7.59 5.167 12.756 10.334 25.351 5.168 12.596 10.254 25.352zm-19.296-47.716q-1.373-2.584-3.472-3.875-2.018-1.292-4.279-1.292-2.18 0-4.279 1.292-2.1 1.291-3.472 3.875l-9.446 23.656h34.394q-2.503-6.217-4.925-12.191-2.422-5.975-4.521-11.465zM683.022 79.178l20.023 24.302 20.104-24.302h10.254l-25.19 30.438 24.786 30.196h-10.092l-19.862-23.898-19.78 23.898H673.09l25.03-30.196-25.191-30.438zM745.514 79.258l9.204 19.781q.08 0 .969 1.615.888 1.534 2.664 3.472 1.857 1.937 4.521 3.633 2.745 1.615 6.46 1.776 3.713-.161 6.378-1.776 2.664-1.696 4.521-3.633 2.1-2.261 3.553-5.087l9.365-19.861h8.559l-10.9 23.171q-1.696 3.472-4.28 6.379-2.18 2.503-5.49 4.925-3.31 2.341-7.912 3.31v22.85h-7.832v-22.85q-4.602-.969-7.912-3.31-3.23-2.422-5.41-4.925-2.583-2.907-4.278-6.379l-10.82-23.09ZM883.657 103.722l-5.41 7.75h-40.772v28.34h-7.751v-36.09zm-4.521-16.713h-38.27q-1.938-.08-3.795-.404-1.776-.403-3.31-1.291-1.454-.888-2.503-2.342-1.05-1.453-1.534-3.794 3.39 0 7.75.08H867.026q4.925-.08 9.285-.08h7.75zM897.14 79.178v60.634h-7.993V79.178ZM910.947 90.723v49.09h-7.913V79.177h7.913l45.375 49.089v-49.09h7.831v60.635h-7.831zM970.29 79.178q5.651.08 9.93.08h14.129q2.907-.08 5.733-.08 6.136 0 11.545 2.341 5.49 2.26 9.528 6.298 4.117 3.956 6.459 9.365 2.422 5.41 2.422 11.546v1.453q0 6.136-2.422 11.546-2.342 5.328-6.46 9.365-4.036 3.957-9.527 6.298-5.409 2.341-11.545 2.341H970.45v-8.72q0-4.924-.08-10.334v-11.223q0-5.732-.082-11.222V79.177zm7.912 7.831v44.89h21.88q4.521 0 8.558-1.695t7.024-4.683q2.988-2.987 4.683-6.862 1.776-3.957 1.776-8.478v-1.453q0-4.522-1.776-8.478-1.695-3.956-4.683-6.862-2.987-2.988-7.024-4.683-4.037-1.696-8.558-1.696zM1084.938 87.01h-41.5v16.712h46.102l-5.49 7.75h-40.611V131.9h46.101l-5.49 7.912h-48.443V79.178q3.31 0 7.67.08h29.631q4.925-.08 9.285-.08h7.832zM1095.918 79.258H1117.475q5.41-.08 10.093-.08h8.074q5.894 0 10.092 2.583 4.198 2.503 6.54 6.46 2.422 3.875 2.906 8.558.485 4.682-1.05 9.042-1.453 4.28-5.086 7.67-3.552 3.31-9.285 4.522l20.185 21.8-10.738-.082q-9.77-10.496-19.7-21.395h-25.675v21.476h-7.913zm39.724 7.751q-2.745 0-6.863.08h-8.478q-4.44 0-8.8.082h-7.67v23.495h31.81q3.957 0 6.54-1.696 2.665-1.776 3.957-4.44 1.372-2.665 1.372-5.652 0-3.068-1.372-5.733-1.292-2.664-3.956-4.36-2.584-1.776-6.54-1.776z" style="font-weight:400;-inkscape-font-specification:Micker" transform="translate(-312.487 -12.322)"/>
    </g>
</svg>
