<svg width="116" height="31" viewBox="0 0 116 31" fill="none" xmlns="http://www.w3.org/2000/svg">
<path d="M5.42957 26.0001L7.40957 17.4201L8.21957 13.1901H8.27957L9.11957 16.1901L12.3296 26.0001H18.6896L23.2796 6.20007H17.9096L15.9296 14.7801L15.0596 19.2501H14.9996L14.1896 16.2501L11.0996 6.20007H4.64957L0.0595703 26.0001H5.42957Z" fill="#0F1617"/>
<path d="M26.2609 30.688L33.7039 0.160034H29.8639L22.4209 30.688H26.2609Z" fill="#5FC5A8"/>
<path fill-rule="evenodd" clip-rule="evenodd" d="M46.9896 25.1601C45.6296 25.7201 44.0696 26.0001 42.3096 26.0001H32.5596L37.1496 6.20007H44.5896C46.5296 6.20007 48.1496 6.54007 49.4496 7.22007C50.7496 7.90007 51.7296 8.84507 52.3896 10.0551C53.0496 11.2651 53.3796 12.6801 53.3796 14.3001C53.3796 16.0601 53.1346 17.6601 52.6446 19.1001C52.1546 20.5401 51.4296 21.7701 50.4696 22.7901C49.5096 23.8101 48.3496 24.6001 46.9896 25.1601ZM39.7598 21.53H41.9798C42.8798 21.53 43.6648 21.315 44.3348 20.885C45.0048 20.455 45.5498 19.885 45.9698 19.175C46.3898 18.465 46.7048 17.675 46.9148 16.805C47.1248 15.935 47.2298 15.07 47.2298 14.21C47.2298 13.47 47.1098 12.835 46.8698 12.305C46.6298 11.775 46.2698 11.37 45.7898 11.09C45.3098 10.81 44.6898 10.67 43.9298 10.67H42.2498L39.7598 21.53ZM58.2226 26.0001L60.4484 21.7101H66.5264L66.7426 26.0001H72.5326L70.5526 6.20007H63.1426L51.8926 26.0001H58.2226ZM62.5039 17.75H66.3269L66.1431 14.09L66.0531 10.67H65.9631L64.4031 14.09L62.5039 17.75ZM80.3746 26.0001L81.778 19.9101H86.0146C87.6946 19.9101 89.1616 19.6374 90.4156 19.0921L90.7246 18.9501C92.0446 18.3101 93.0596 17.4201 93.7696 16.2801C94.4796 15.1401 94.8346 13.8301 94.8346 12.3501C94.8346 10.3901 94.1296 8.87507 92.7196 7.80507C91.3096 6.73507 89.3546 6.20007 86.8546 6.20007H78.8146L74.2246 26.0001H80.3746ZM86.1354 10.64H83.9154L82.8018 15.47H85.6254C86.3054 15.47 86.8754 15.345 87.3354 15.095C87.7954 14.845 88.1504 14.52 88.4004 14.12C88.6504 13.72 88.7754 13.27 88.7754 12.77C88.7754 12.11 88.5704 11.59 88.1604 11.21C87.7504 10.83 87.0754 10.64 86.1354 10.64ZM100.872 26.0001L102.275 19.9101H106.512C108.192 19.9101 109.659 19.6374 110.913 19.0921L111.222 18.9501C112.542 18.3101 113.557 17.4201 114.267 16.2801C114.977 15.1401 115.332 13.8301 115.332 12.3501C115.332 10.3901 114.627 8.87507 113.217 7.80507C111.807 6.73507 109.852 6.20007 107.352 6.20007H99.3117L94.7217 26.0001H100.872ZM106.632 10.64H104.412L103.298 15.47H106.122C106.802 15.47 107.372 15.345 107.832 15.095C108.292 14.845 108.647 14.52 108.897 14.12C109.147 13.72 109.272 13.27 109.272 12.77C109.272 12.11 109.067 11.59 108.657 11.21C108.247 10.83 107.572 10.64 106.632 10.64Z" fill="#0F1617"/>
</svg>
