	<svg alt="NonKyc.io logo" version="1.0" xmlns="http://www.w3.org/2000/svg" style="width:200px;height:200px;" width="540.000000pt" height="540.000000pt" viewBox="0 0 540.000000 540.000000" fill="#FFFF66" preserveAspectRatio="xMidYMid meet" fill="currentColor">
		<g>
			<g>
				<g>
					<path class="st0" d="M204.8,66.5c0-1,0.9-1.9,1.9-1.9h1.9c0.9,0,1.4,0.4,1.6,1.2l0.9,3c0,0,5.6-5.2,13.7-5.2
						c11.3,0,15.1,7.4,15.1,17.6v20.6c0,1-0.9,1.9-1.9,1.9h-3.1c-1,0-1.9-0.9-1.9-1.9V81.2c0-7.4-3.3-11-8.8-11
						c-7.3,0-12.6,5.6-12.6,5.6v26.1c0,1-0.9,1.9-1.9,1.9h-3c-1,0-1.9-0.9-1.9-1.9V66.5z"/>
					<path class="st0" d="M269.8,63.6c10.8,0,19.4,9.4,19.4,20.4c0,11.2-8.6,20.6-19.4,20.6c-10.8,0-19.4-9.4-19.4-20.6
						C250.4,73,259,63.6,269.8,63.6z M269.8,98.3c7.1,0,12.7-6.4,12.7-14.3c0-7.7-5.6-14-12.7-14c-7.1,0-12.7,6.3-12.7,14
						C257.1,92,262.7,98.3,269.8,98.3z"/>
					<path class="st0" d="M300.3,66.5c0-1,0.9-1.9,1.9-1.9h1.9c0.9,0,1.4,0.4,1.6,1.2l0.9,3c0,0,5.6-5.2,13.7-5.2
						c11.3,0,15.1,7.4,15.1,17.6v20.6c0,1-0.9,1.9-1.9,1.9h-3.1c-1,0-1.9-0.9-1.9-1.9V81.2c0-7.4-3.3-11-8.8-11
						c-7.3,0-12.6,5.6-12.6,5.6v26.1c0,1-0.9,1.9-1.9,1.9h-3c-1,0-1.9-0.9-1.9-1.9V66.5z"/>
					<path class="st0" d="M348.8,37.2c0-1,0.9-1.9,1.9-1.9h3c1,0,1.9,0.9,1.9,1.9v42.3l16.6-13.7c0.8-0.7,1.6-1.2,2.3-1.2h5.3
						c1.7,0,1.6,1.9,0.9,2.4l-18.6,14.9l21.6,19.3c0.8,0.7,0.7,2.4-1,2.4h-5.4c-0.9,0-1.6-0.5-2-0.8l-19.8-18.9v17.8
						c0,1-0.9,1.9-1.9,1.9h-3c-1,0-1.9-0.9-1.9-1.9V37.2z"/>
					<path class="st0" d="M386.9,66.8c-0.6-1.3,0-2.1,1.5-2.1h4.3c0.8,0,1.4,0.5,1.7,1.1l14.5,29.9h0.1l13.7-29.9
						c0.3-0.6,1-1.1,1.7-1.1h3.7c1.5,0,2.1,1,1.5,2.2l-30,65c-0.3,0.6-1,1.2-1.7,1.2h-3.6c-1.5,0-2.2-1.1-1.6-2.4l12.5-27L386.9,66.8z
						"/>
					<path class="st0" d="M455.2,63.6c5.9,0,10.5,2.3,14,6.8c0.7,0.9,0.5,2.1-0.4,2.7l-1.9,1.6c-1.5,1.4-2,0.4-2.8-0.4
						c-2-2.2-5.2-4.1-9-4.1c-7.3,0-13,6.1-13,13.9s5.6,14.1,12.9,14.1c5.9,0,8.1-2.9,10.4-5.1c1.2-1.2,1.9-1,2.9-0.2l1.1,0.8
						c1,0.7,1.3,1.8,0.7,2.7c-2.9,4.7-8.3,8.2-14.9,8.2c-10.8,0-20-8.7-20-20.4C435,72.7,444.5,63.6,455.2,63.6z"/>
				</g>
				<g>
					<circle class="st0" cx="89.6" cy="88.2" r="7.7"/>
					<circle class="st0" cx="89.6" cy="122" r="3.9"/>
					<circle class="st0" cx="89.6" cy="155.9" r="3.9"/>
					<circle class="st0" cx="89.6" cy="54.4" r="3.9"/>
					<circle class="st0" cx="89.6" cy="20.6" r="3.9"/>
					<circle class="st0" cx="55.8" cy="122" r="7.7"/>
					<circle class="st0" cx="55.8" cy="54.4" r="7.7"/>
					<circle class="st0" cx="123.5" cy="122" r="7.7"/>
					<circle class="st0" cx="123.5" cy="54.4" r="7.7"/>
					<circle class="st0" cx="55.8" cy="88.2" r="7.7"/>
					<circle class="st0" cx="21.6" cy="88.2" r="3.9"/>
					<circle class="st0" cx="123.5" cy="88.2" r="7.7"/>
					<circle class="st0" cx="157.3" cy="88.2" r="3.9"/>
				</g>
			</g>
		</g>
</svg>