<svg width="4445" height="1000" viewBox="0 0 4445 1000" fill="none" xmlns="http://www.w3.org/2000/svg">
<path d="M1092.99 712.116C1050.21 712.116 1014.21 702.654 985.005 683.73C955.797 664.396 935.228 638.273 923.298 605.363L996.112 562.785C1012.98 606.802 1046.09 628.811 1095.46 628.811C1119.32 628.811 1136.8 624.492 1147.91 615.853C1159.02 607.214 1164.57 596.312 1164.57 583.148C1164.57 567.927 1157.78 556.203 1144.21 547.975C1130.63 539.336 1106.36 530.08 1071.39 520.207C1052.06 514.448 1035.6 508.689 1022.03 502.929C1008.86 497.17 995.495 489.559 981.92 480.098C968.755 470.225 958.677 457.883 951.683 443.074C944.69 428.264 941.193 410.986 941.193 391.24C941.193 352.159 954.974 321.1 982.537 298.062C1010.51 274.614 1044.04 262.89 1083.12 262.89C1118.09 262.89 1148.73 271.529 1175.06 288.806C1201.8 305.673 1222.58 329.327 1237.39 359.769L1165.81 401.113C1148.53 364.089 1120.97 345.577 1083.12 345.577C1065.43 345.577 1051.44 349.691 1041.16 357.918C1031.28 365.734 1026.35 376.019 1026.35 388.772C1026.35 402.347 1031.9 413.454 1043.01 422.093C1054.53 430.321 1076.33 439.371 1108.42 449.244C1121.58 453.358 1131.46 456.649 1138.04 459.117C1145.03 461.174 1154.29 464.671 1165.81 469.608C1177.74 474.133 1186.79 478.452 1192.96 482.566C1199.54 486.68 1206.94 492.233 1215.17 499.227C1223.4 506.22 1229.57 513.419 1233.68 520.824C1238.21 528.229 1241.91 537.279 1244.79 547.975C1248.08 558.26 1249.73 569.573 1249.73 581.914C1249.73 621.818 1235.12 653.494 1205.92 676.943C1177.12 700.391 1139.48 712.116 1092.99 712.116Z" fill="white"/>
<path d="M1572.87 665.218C1541.2 696.483 1502.53 712.116 1456.86 712.116C1411.2 712.116 1372.53 696.483 1340.86 665.218C1309.59 633.542 1293.96 594.873 1293.96 549.209C1293.96 503.546 1309.59 465.082 1340.86 433.818C1372.53 402.141 1411.2 386.303 1456.86 386.303C1502.53 386.303 1541.2 402.141 1572.87 433.818C1604.55 465.082 1620.39 503.546 1620.39 549.209C1620.39 594.873 1604.55 633.542 1572.87 665.218ZM1397.01 610.299C1413.05 626.343 1433 634.365 1456.86 634.365C1480.72 634.365 1500.68 626.343 1516.72 610.299C1532.76 594.255 1540.79 573.892 1540.79 549.209C1540.79 524.527 1532.76 504.163 1516.72 488.12C1500.68 472.076 1480.72 464.054 1456.86 464.054C1433 464.054 1413.05 472.076 1397.01 488.12C1381.38 504.163 1373.56 524.527 1373.56 549.209C1373.56 573.892 1381.38 594.255 1397.01 610.299Z" fill="white"/>
<path d="M1847.93 386.303C1881.67 386.303 1909.43 397.616 1931.24 420.242C1953.45 442.868 1964.56 474.133 1964.56 514.036V703.477H1884.96V523.91C1884.96 503.341 1879.4 487.708 1868.3 477.012C1857.19 465.905 1842.38 460.352 1823.87 460.352C1803.3 460.352 1786.84 466.728 1774.5 479.481C1762.16 492.233 1755.99 511.363 1755.99 536.868V703.477H1676.39V394.942H1755.99V429.498C1775.32 400.702 1805.97 386.303 1847.93 386.303Z" fill="white"/>
<path d="M2267.01 394.942H2346.62V703.477H2267.01V667.07C2243.15 697.1 2209.63 712.116 2166.43 712.116C2125.29 712.116 2089.91 696.483 2060.3 665.218C2031.09 633.542 2016.48 594.873 2016.48 549.209C2016.48 503.546 2031.09 465.082 2060.3 433.818C2089.91 402.141 2125.29 386.303 2166.43 386.303C2209.63 386.303 2243.15 401.319 2267.01 431.349V394.942ZM2120.15 612.15C2136.19 628.194 2156.56 636.216 2181.24 636.216C2205.92 636.216 2226.29 628.194 2242.33 612.15C2258.79 595.695 2267.01 574.715 2267.01 549.209C2267.01 523.704 2258.79 502.929 2242.33 486.885C2226.29 470.43 2205.92 462.203 2181.24 462.203C2156.56 462.203 2136.19 470.43 2120.15 486.885C2104.11 502.929 2096.09 523.704 2096.09 549.209C2096.09 574.715 2104.11 595.695 2120.15 612.15Z" fill="white"/>
<path d="M2498.4 448.01C2505.8 428.264 2517.94 413.454 2534.81 403.581C2552.08 393.708 2571.21 388.772 2592.19 388.772V477.629C2567.92 474.75 2546.12 479.686 2526.78 492.439C2507.86 505.192 2498.4 526.378 2498.4 555.997V703.477H2418.8V394.942H2498.4V448.01Z" fill="white"/>
<path d="M2732.54 703.477L2611.6 271.528H2701.07L2783.76 591.787L2873.85 271.528H2946.67L3037.38 591.787L3120.06 271.528H3209.54L3088.59 703.477H2991.71L2910.26 418.391L2829.42 703.477H2732.54Z" fill="white"/>
<path d="M3452.94 394.942H3532.54V703.477H3452.94V667.07C3429.08 697.1 3395.55 712.116 3352.36 712.116C3311.22 712.116 3275.84 696.483 3246.22 665.218C3217.02 633.542 3202.41 594.873 3202.41 549.209C3202.41 503.546 3217.02 465.082 3246.22 433.818C3275.84 402.141 3311.22 386.303 3352.36 386.303C3395.55 386.303 3429.08 401.319 3452.94 431.349V394.942ZM3306.08 612.15C3322.12 628.194 3342.49 636.216 3367.17 636.216C3391.85 636.216 3412.22 628.194 3428.26 612.15C3444.71 595.695 3452.94 574.715 3452.94 549.209C3452.94 523.704 3444.71 502.929 3428.26 486.885C3412.22 470.43 3391.85 462.203 3367.17 462.203C3342.49 462.203 3322.12 470.43 3306.08 486.885C3290.04 502.929 3282.01 523.704 3282.01 549.209C3282.01 574.715 3290.04 595.695 3306.08 612.15Z" fill="white"/>
<path d="M3781.21 471.459H3711.48V599.809C3711.48 610.505 3714.15 618.321 3719.5 623.258C3724.85 628.194 3732.67 631.074 3742.95 631.897C3753.23 632.308 3765.99 632.102 3781.21 631.28V703.477C3726.49 709.647 3687.83 704.505 3665.2 688.05C3642.98 671.595 3631.88 642.181 3631.88 599.809V471.459H3578.19V394.942H3631.88V332.618L3711.48 308.553V394.942H3781.21V471.459Z" fill="white"/>
<path d="M3974.55 712.116C3928.07 712.116 3889.19 696.483 3857.93 665.218C3827.07 633.954 3811.65 595.284 3811.65 549.209C3811.65 503.135 3827.07 464.465 3857.93 433.201C3889.19 401.936 3928.07 386.303 3974.55 386.303C4004.58 386.303 4031.94 393.502 4056.62 407.901C4081.31 422.299 4100.02 441.634 4112.78 465.905L4044.28 506.015C4038.11 493.262 4028.65 483.183 4015.9 475.778C4003.56 468.373 3989.57 464.671 3973.94 464.671C3950.08 464.671 3930.33 472.693 3914.7 488.737C3899.07 504.369 3891.25 524.527 3891.25 549.209C3891.25 573.481 3899.07 593.638 3914.7 609.682C3930.33 625.315 3950.08 633.131 3973.94 633.131C3989.98 633.131 4004.17 629.634 4016.51 622.641C4029.27 615.236 4038.73 605.157 4044.9 592.404L4114.01 631.897C4100.44 656.168 4081.31 675.708 4056.62 690.518C4031.94 704.916 4004.58 712.116 3974.55 712.116Z" fill="white"/>
<path d="M4327.66 386.303C4361.39 386.303 4389.16 397.616 4410.96 420.242C4433.17 442.868 4444.28 474.133 4444.28 514.036V703.477H4364.68V523.91C4364.68 503.341 4359.13 487.708 4348.02 477.012C4336.91 465.905 4322.1 460.352 4303.59 460.352C4283.02 460.352 4266.57 466.728 4254.23 479.481C4241.88 492.233 4235.71 511.363 4235.71 536.868V703.477H4156.11V271.528H4235.71V429.498C4255.05 400.702 4285.7 386.303 4327.66 386.303Z" fill="white"/>
<path d="M223.927 223.927C260.183 187.671 303.242 158.95 350.594 139.315C397.945 119.68 448.721 109.589 500 109.589V0C434.338 0 369.315 12.9224 308.676 38.0822C247.991 63.1963 192.877 100 146.438 146.438C100 192.877 63.1963 247.991 38.0822 308.676C12.9224 369.315 0 434.338 0 500H109.589C109.589 448.721 119.68 397.945 139.315 350.594C158.95 303.242 187.671 260.183 223.927 223.927Z" fill="#174C39"/>
<path d="M278.538 408.281C266.483 437.368 260.273 468.555 260.273 500.016C260.273 517.094 256.894 534.034 250.364 549.833C243.835 565.587 234.246 579.97 222.145 592.025C210.09 604.126 195.707 613.715 179.953 620.244C164.154 626.774 147.214 630.153 130.136 630.153V739.742C161.597 739.742 192.784 733.532 221.871 721.477C250.958 709.468 277.396 691.797 299.634 669.514C321.917 647.276 339.588 620.838 351.597 591.751C363.652 562.664 369.862 531.477 369.862 500.016C369.862 482.938 373.241 465.998 379.771 450.199C386.3 434.445 395.889 420.062 407.99 408.007C420.045 395.907 434.428 386.317 450.182 379.788C465.981 373.258 482.921 369.879 499.999 369.879V260.29C468.538 260.29 437.351 266.5 408.264 278.555C379.177 290.564 352.739 308.235 330.501 330.518C308.218 352.756 290.547 379.194 278.538 408.281Z" fill="#14C686"/>
<path d="M520.547 500C520.547 551.279 510.456 602.055 490.821 649.406C471.186 696.758 442.465 739.817 406.209 776.073C369.953 812.329 326.894 841.05 279.542 860.685C232.191 880.32 181.415 890.411 130.136 890.411V1000C195.798 1000 260.821 987.078 321.46 961.918C382.145 936.804 437.259 900 483.698 853.562C530.136 807.123 566.94 752.009 592.054 691.324C617.214 630.685 630.136 565.662 630.136 500H520.547Z" fill="#174C39"/>
</svg>
