<?xml version="1.0" encoding="UTF-8"?><svg id="Layer_1" xmlns="http://www.w3.org/2000/svg" xmlns:xlink="http://www.w3.org/1999/xlink" viewBox="0 0 638.75 141.71"><defs><style>.cls-1{fill:#faf2ed;}.cls-2{fill:#ff7748;}.cls-3{fill:url(#New_Gradient_Swatch_3);}.cls-4{fill:url(#New_Gradient_Swatch_4);}</style><radialGradient id="New_Gradient_Swatch_4" cx="-79.31" cy="1022.48" fx="-79.31" fy="1022.48" r=".68" gradientTransform="translate(8704.44 110071.2) scale(107.62 -107.62)" gradientUnits="userSpaceOnUse"><stop offset=".09" stop-color="#ff6c36"/><stop offset=".19" stop-color="#fe703c"/><stop offset=".33" stop-color="#fe7d4d"/><stop offset=".5" stop-color="#fd926a"/><stop offset=".68" stop-color="#fcaf92"/><stop offset=".87" stop-color="#fbd4c4"/><stop offset="1" stop-color="#fbf1eb"/></radialGradient><linearGradient id="New_Gradient_Swatch_3" x1="0" y1="62" x2="125.83" y2="62" gradientUnits="userSpaceOnUse"><stop offset="0" stop-color="#fbf1eb"/><stop offset=".12" stop-color="#fbdfd3"/><stop offset=".55" stop-color="#fda17f"/><stop offset=".85" stop-color="#fe7a4a"/><stop offset="1" stop-color="#ff6c36"/></linearGradient></defs><path class="cls-1" d="m243.19,41.56h12.88v-20.03h16.59v20.03h17.74v14.59h-17.74v31.62c0,3.72.83,6.44,2.5,8.15,1.66,1.72,4.17,2.57,7.51,2.57h9.16v14.59h-12.16c-7.64,0-13.48-2.03-17.53-6.08-4.05-4.05-6.08-9.89-6.08-17.53v-33.34h-12.88v-14.59h0Z"/><path class="cls-1" d="m323.31,114.38c-7.72,0-13.59-1.9-17.6-5.72-4.01-3.81-6.01-9.11-6.01-15.88,0-3.72.59-7.08,1.79-10.08,1.19-3,3.1-5.53,5.72-7.58,2.62-2.05,6.01-3.62,10.16-4.72,4.15-1.1,9.22-1.64,15.24-1.64h12.02v-4.29c0-3.43-.93-6.03-2.79-7.8-1.86-1.77-4.93-2.65-9.22-2.65-4.01,0-6.92.76-8.73,2.29-1.81,1.53-2.91,3.53-3.29,6.01h-18.03c.38-6.39,2.98-11.66,7.8-15.81,4.82-4.15,12.23-6.22,22.25-6.22s16.69,2.2,21.46,6.58c4.77,4.39,7.15,10.26,7.15,17.6v48.64h-13.02l-1.72-9.87c-2.48,3.62-5.7,6.39-9.65,8.3-3.96,1.9-8.47,2.86-13.52,2.86h0Zm2.86-13.74c2.67,0,5.12-.45,7.37-1.36,2.24-.91,4.17-2.15,5.79-3.72,1.62-1.58,2.91-3.36,3.86-5.36.96-2.01,1.43-4.15,1.43-6.44v-2.15h-12.02c-5.72,0-9.73.96-12.02,2.86-2.29,1.91-3.43,4.48-3.43,7.72,0,2.57.78,4.63,2.36,6.15,1.58,1.53,3.79,2.29,6.65,2.29h0Z"/><path class="cls-1" d="m398.37,83.19h-7.15v29.9h-16.59V12.94h16.59v55.66h7.15l17.17-27.04h19.17l-22.61,33.77,25.46,37.77h-20.03l-19.17-29.9h0Z"/><path class="cls-1" d="m471.81,114.38c-5.15,0-9.78-.78-13.88-2.36-4.1-1.58-7.64-3.86-10.59-6.86-2.95-3-5.22-6.65-6.8-10.94-1.58-4.29-2.36-9.16-2.36-14.59v-4.58c0-5.44.78-10.3,2.36-14.59,1.58-4.29,3.84-7.94,6.8-10.94,2.95-3,6.48-5.29,10.59-6.87,4.1-1.58,8.73-2.36,13.88-2.36,10.39,0,18.6,3.2,24.61,9.59,6.01,6.39,9.01,15.55,9.01,27.47v5.58h-50.65c.48,6.01,2.15,10.32,5.01,12.95,2.86,2.63,6.87,3.94,12.02,3.94s8.75-.88,11.09-2.65c2.33-1.77,3.88-3.84,4.65-6.22h17.17c-.76,3.34-1.96,6.44-3.58,9.3-1.62,2.86-3.77,5.34-6.44,7.44-2.67,2.1-5.92,3.75-9.73,4.93-3.81,1.19-8.2,1.79-13.16,1.79h0Zm0-59.52c-4.86,0-8.68,1.19-11.45,3.58-2.77,2.39-4.53,6.15-5.29,11.31h33.48c-.67-5.34-2.41-9.16-5.22-11.44-2.81-2.29-6.65-3.43-11.52-3.43h0Z"/><path class="cls-1" d="m523.57,107.01c-4.05-4.05-6.08-9.89-6.08-17.53V12.94h16.59v74.83c0,3.72.81,6.44,2.43,8.15,1.62,1.72,4.1,2.57,7.44,2.57h3.58v14.59h-6.58c-7.53,0-13.33-2.03-17.39-6.08h.01Z"/><path class="cls-1" d="m574.15,113.09l-28.76-71.53h18.03l19.46,51.22,18.31-51.22h17.17l-37.92,100.15h-17.17l10.88-28.62Z"/><path class="cls-4" d="m221.3,83.66c-.09-5.26-2.86-11.94-11.49-18.97-8.3-6.62-22.84-12.39-26.22-21-.11-.28-.21-.56-.29-.84-.3-1.01-.46-2.06-.43-3.16,0-3.34,1.43-6.17,4.29-8.52,2.37-2.28,8.09-3.49,13.79-3.51,5.7,0,11.41,1.19,13.75,3.72,2.72,2.48,4.31,6.58,4.79,12.3h18.31c-1.83-22.75-13.07-32.01-36.48-32.05-14.06-.06-28.26,3.96-34.19,16.81-5.87,13.09-.61,28.61,12.3,34.27,8.04,4.25,18.75,5.91,27.18,8.66,0,0,14.4,3.55,14.68,12.65,0-.01,0-.02,0-.04,0-.11,0-.22,0-.33Z"/><path class="cls-1" d="m211.06,56.07h0c-5.77-1.28-23.53-4.39-27.76-13.22.09.28.18.56.29.84,3.38,8.61,17.92,14.38,26.22,21,8.64,7.03,11.41,13.71,11.49,18.97,0,.11,0,.22,0,.33,0,.01,0,.03,0,.04,0,0,0,0,0,0-.03,4.49-2.02,7.9-3.9,9.52-6.37,5.48-18.71,6.37-27.6,2.27-3.97-1.83-7.53-5.82-8.07-16.35h-18.31c1.71,24.36,13.23,34.85,37.92,34.91,18.86.05,37.49-8.62,37.92-29.19.36-17.41-13.52-25.61-28.19-29.11Z"/><path class="cls-2" d="m624.4,114.38c7.93,0,14.36-6.43,14.36-14.36s-6.43-14.36-14.36-14.36-14.36,6.43-14.36,14.36,6.43,14.36,14.36,14.36Z"/><path class="cls-2" d="m87.91,22.02c1.97-5.42,7.95-8.22,13.37-6.25,5.42,1.97,8.22,7.95,6.25,13.37-1.96,5.42-7.95,8.22-13.37,6.25-5.42-1.96-8.22-7.95-6.25-13.37Z"/><path class="cls-1" d="m93.01,86.06c-11.32,14.32-26.46,15.19-33.45,14.53-14.84-1.54-25.11-10.63-31.67-.79-6.12,9.18,7.24,25.6,37.39,24.64,17.74-.56,31.02-8.76,38.86-15.6,1.13-5.42.37-14.64-11.13-22.78Z"/><path class="cls-2" d="m32.88,37.61c21.47-25.24,45.01-5.35,48.96-23.29,2.37-10.77-13.28-16.65-30.57-13.45-11.99,2.22-21.31,7.65-29.59,14.29-1.14,5.45-.45,14.48,11.19,22.46Z"/><path class="cls-3" d="m112.69,40.83c-8.26-.14-12.73,14.54-49.87,8.07-14.15-2.97-23.64-6.98-29.94-11.3-11.65-7.98-12.33-17.01-11.19-22.46C-3.85,36.57-7.09,82.91,13.33,83.4c8.27.2,12.33-15.44,49.48-8.96,14.31,3,23.87,7.15,30.2,11.63,11.5,8.14,12.27,17.36,11.13,22.78,25.29-21.29,28.89-67.65,8.55-68.01Z"/></svg>