<svg width="111" height="40" viewBox="0 0 111 40" fill="none" xmlns="http://www.w3.org/2000/svg">
<path d="M61.5296 29.5595C62.8277 29.5595 63.9614 29.321 64.9309 28.8439C65.9167 28.3498 66.689 27.6768 67.2476 26.8249C67.8063 25.956 68.0856 24.9678 68.0856 23.8604C68.0856 21.3047 66.615 19.5328 63.6739 18.5446L60.1494 17.369C59.0321 16.9771 58.4735 16.3297 58.4735 15.4267C58.4735 14.8134 58.7117 14.3193 59.1882 13.9444C59.6647 13.5526 60.2891 13.3566 61.0614 13.3566C61.9486 13.3566 62.7373 13.6122 63.4274 14.1233C64.1175 14.6174 64.6351 15.3074 64.9802 16.1934L68.0856 14.7367C67.5763 13.2374 66.689 12.0618 65.4238 11.2099C64.175 10.341 62.7209 9.90649 61.0614 9.90649C59.8126 9.90649 58.7035 10.145 57.7341 10.6221C56.7811 11.0991 56.0335 11.7636 55.4913 12.6155C54.9655 13.4674 54.7026 14.4556 54.7026 15.58C54.7026 18.1698 56.1731 19.9673 59.1143 20.9725L62.7127 22.1992C63.7971 22.574 64.3394 23.2044 64.3394 24.0904C64.3394 24.7037 64.1011 25.1978 63.6246 25.5727C63.1645 25.9305 62.5484 26.1093 61.7761 26.1093C60.7903 26.1093 59.8865 25.8112 59.065 25.2149C58.2599 24.6185 57.6273 23.8007 57.1672 22.7614L54.0371 24.2182C54.3986 25.3086 54.9408 26.2542 55.6638 27.0549C56.4032 27.8557 57.274 28.4776 58.2763 28.9206C59.295 29.3465 60.3795 29.5595 61.5296 29.5595Z" fill="white"/>
<path d="M77.019 29.4061C77.627 29.4061 78.202 29.3636 78.7443 29.2784V26.0071C78.3992 26.0582 78.1117 26.0838 77.8816 26.0838C76.3536 26.0838 75.5895 25.3767 75.5895 23.9626V18.6213H78.7443V15.2989H75.5895V12.1299H71.8925V13.1522C71.8925 14.5833 71.1778 15.2989 69.7483 15.2989H69.6251V18.6213H71.8925V24.2182C71.8925 25.8538 72.3362 27.1316 73.2235 28.0516C74.1272 28.9546 75.3923 29.4061 77.019 29.4061Z" fill="white"/>
<path d="M87.3927 29.5595C88.7729 29.5595 89.9806 29.2528 91.0157 28.6394C92.0509 28.0091 92.7738 27.1827 93.1846 26.1605L90.227 24.7037C89.9641 25.1808 89.5944 25.5556 89.1179 25.8282C88.6579 26.1008 88.0992 26.2371 87.442 26.2371C86.5383 26.2371 85.7989 25.973 85.2238 25.4449C84.6487 24.9167 84.3119 24.2182 84.2133 23.3492H93.6283C93.694 23.1618 93.7351 22.9403 93.7515 22.6848C93.7844 22.4122 93.8008 22.1396 93.8008 21.867C93.8008 20.5721 93.5379 19.4135 93.0121 18.3913C92.5027 17.352 91.7551 16.5256 90.7693 15.9123C89.7834 15.2989 88.5757 14.9922 87.1462 14.9922C85.8646 14.9922 84.7144 15.3074 83.6957 15.9378C82.677 16.5682 81.8637 17.4286 81.2557 18.5191C80.6642 19.6095 80.3684 20.8532 80.3684 22.2503C80.3684 23.5963 80.656 24.823 81.2311 25.9305C81.8062 27.0379 82.6195 27.9239 83.6711 28.5883C84.7227 29.2358 85.9632 29.5595 87.3927 29.5595ZM87.1462 18.059C87.9021 18.059 88.5264 18.289 89.0194 18.7491C89.5123 19.2091 89.7998 19.8054 89.882 20.538H84.2872C84.468 19.7372 84.8048 19.1239 85.2977 18.6979C85.8071 18.272 86.4233 18.059 87.1462 18.059Z" fill="white"/>
<path d="M95.9778 34.3641H99.6747V28.1794C100.151 28.6394 100.718 28.9887 101.375 29.2272C102.049 29.4487 102.764 29.5595 103.52 29.5595C104.834 29.5595 106.009 29.2358 107.044 28.5883C108.079 27.9409 108.893 27.0635 109.484 25.956C110.092 24.8486 110.396 23.6218 110.396 22.2759C110.396 20.9128 110.092 19.6861 109.484 18.5957C108.876 17.4883 108.055 16.6108 107.019 15.9634C105.984 15.316 104.826 14.9922 103.544 14.9922C101.753 14.9922 100.381 15.58 99.4283 16.7557V15.2989H95.9778V34.3641ZM103.076 26.1093C102.074 26.1093 101.252 25.7601 100.611 25.0615C99.9869 24.3459 99.6747 23.4174 99.6747 22.2759C99.6747 21.1514 99.9869 20.2313 100.611 19.5158C101.252 18.8002 102.074 18.4424 103.076 18.4424C104.095 18.4424 104.933 18.8087 105.59 19.5413C106.247 20.2569 106.576 21.1684 106.576 22.2759C106.576 23.4004 106.247 24.3204 105.59 25.036C104.933 25.7516 104.095 26.1093 103.076 26.1093Z" fill="white"/>
<path d="M0.727318 10.0198L18.0476 0.019043L18.0469 20.0192L0.726562 30.02L0.727318 10.0198Z" fill="#118AB2"/>
<path d="M18.051 0L35.3721 9.99944L29.5984 13.3326L12.2773 3.33315L18.051 0Z" fill="#00F8B7"/>
<path d="M29.5859 13.3266L29.5862 19.9933L12.2659 9.99253L12.2656 3.32581L29.5859 13.3266Z" fill="#09BD8E"/>
<path d="M12.2542 10.0024L29.5752 20.0019L23.8015 23.335L6.48047 13.3356L12.2542 10.0024Z" fill="#FFE3A3"/>
<path d="M23.8691 23.3696L23.8694 30.0364L6.54908 20.0356L6.54883 13.3689L23.8691 23.3696Z" fill="#FFBB1D"/>
<path d="M6.49634 20.0046L23.8174 30.0041L18.0437 33.3372L0.722656 23.3378L6.49634 20.0046Z" fill="#FF965E"/>
<path d="M18.0312 33.3312L18.0315 39.9979L0.711189 29.9972L0.710938 23.3304L18.0312 33.3312Z" fill="#D94C00"/>
<path d="M29.5926 13.3285L35.366 9.99487L35.3652 29.9951L29.5918 33.3286L29.5926 13.3285Z" fill="#06D6A0"/>
<path d="M23.8071 23.3311L29.5806 19.9976L29.5801 33.331L23.8066 36.6646L23.8071 23.3311Z" fill="#FFD166"/>
<path d="M18.0217 33.3333L23.7952 29.9998L23.7949 36.6665L18.0215 40.0001L18.0217 33.3333Z" fill="#F3722C"/>
</svg>
