<svg width="190" height="32" viewBox="0 0 190 32" fill="none" xmlns="http://www.w3.org/2000/svg">
<path d="M30.2962 14.0401V1.44482C25.6858 2.63085 20.8518 3.26061 15.8707 3.26061C10.8896 3.26061 6.05558 2.62941 1.44519 1.44482V14.0401C6.05558 15.2247 10.8896 15.8559 15.8707 15.8559C20.8518 15.8559 25.6858 15.2261 30.2962 14.0401Z" fill="#1E1E1E"/>
<path d="M1.44519 17.9599V30.5551C6.05558 29.3691 10.8896 28.7393 15.8707 28.7393C20.8518 28.7393 25.6858 29.3705 30.2962 30.5551V17.9599C25.6858 16.7753 20.8518 16.1441 15.8707 16.1441C10.8896 16.1441 6.05558 16.7738 1.44519 17.9599Z" fill="#1E1E1E"/>
<path d="M131.136 24.6817C133.237 26.9346 135.923 28.061 139.194 28.061C142.14 28.061 144.491 27.2378 146.245 25.5915C147.827 24.1185 148.682 22.2881 148.812 20.1003H144.198C144.047 21.335 143.516 22.3314 142.606 23.0896C141.696 23.8261 140.559 24.1944 139.194 24.1944C137.266 24.1944 135.718 23.4362 134.548 21.9199C133.4 20.4035 132.826 18.4432 132.826 16.0387C132.826 13.6126 133.367 11.6414 134.45 10.125C135.534 8.60876 137.104 7.85055 139.162 7.85055C140.505 7.85055 141.599 8.19714 142.444 8.89033C143.31 9.58351 143.852 10.5258 144.068 11.7172H148.747C148.487 9.42107 147.512 7.54733 145.823 6.09594C144.155 4.62296 141.935 3.88647 139.162 3.88647C135.804 3.88647 133.107 5.03452 131.071 7.33067C129.035 9.62682 128.017 12.5295 128.017 16.0387C128.017 19.5262 129.057 22.4072 131.136 24.6817Z" fill="#1E1E1E"/>
<path fill-rule="evenodd" clip-rule="evenodd" d="M147.807 27.5736L155.898 4.3414H160.772L168.96 27.5736H164.054L162.494 22.6347H154.111L152.584 27.5736H147.807ZM157.295 12.3345L155.216 19.028H161.357L159.277 12.3345L158.335 8.76034H158.27C157.88 10.32 157.555 11.5114 157.295 12.3345Z" fill="#1E1E1E"/>
<path d="M169.549 27.5736V4.3414H174.326L182.059 17.3059C182.276 17.6742 182.514 18.1291 182.774 18.6706C183.055 19.2122 183.272 19.667 183.424 20.0353L183.684 20.5552H183.749C183.662 18.9522 183.619 17.6092 183.619 16.5261V4.3414H188.265V27.5736H183.716L175.788 14.739C175.571 14.3708 175.322 13.9267 175.041 13.4068C174.759 12.8653 174.542 12.4103 174.391 12.0421L174.131 11.5222H174.066C174.152 13.1469 174.196 14.5007 174.196 15.5838V27.5736H169.549Z" fill="#1E1E1E"/>
<path d="M118.395 28.0935C115.254 28.0935 112.817 27.4328 111.084 26.1114C109.351 24.7684 108.441 22.8622 108.354 20.3927H112.968C113.12 21.7791 113.607 22.7756 114.431 23.3821C115.275 23.9886 116.532 24.2918 118.2 24.2918C119.521 24.2918 120.604 24.0536 121.449 23.577C122.294 23.0788 122.716 22.3206 122.716 21.3025C122.716 20.9343 122.662 20.6093 122.554 20.3278C122.467 20.0245 122.272 19.7646 121.969 19.5479C121.666 19.3096 121.406 19.1256 121.189 18.9956C120.972 18.8439 120.572 18.6923 119.987 18.5406C119.402 18.3673 118.958 18.2482 118.655 18.1833C118.521 18.1451 118.337 18.0963 118.102 18.037C117.804 17.9619 117.425 17.8698 116.965 17.7608C115.969 17.5226 115.145 17.3168 114.496 17.1435C113.867 16.9702 113.163 16.6994 112.384 16.3312C111.625 15.9629 111.019 15.5622 110.564 15.129C110.131 14.674 109.762 14.0892 109.459 13.3744C109.156 12.6379 109.004 11.8038 109.004 10.8724C109.004 8.64127 109.817 6.92997 111.441 5.73856C113.088 4.52549 115.243 3.91899 117.907 3.91899C120.55 3.91899 122.662 4.54721 124.243 5.80358C125.825 7.05996 126.702 8.84702 126.875 11.1648H122.359C122.229 10.0384 121.752 9.17195 120.929 8.56545C120.128 7.95889 119.109 7.65567 117.875 7.65567C116.597 7.65567 115.579 7.90472 114.82 8.40295C114.062 8.90118 113.683 9.56185 113.683 10.385C113.683 11.2732 114.051 11.923 114.788 12.3346C115.546 12.7461 116.868 13.1577 118.752 13.5693C119.878 13.8076 120.799 14.035 121.514 14.2516C122.229 14.4466 122.998 14.739 123.821 15.129C124.666 15.4972 125.316 15.9088 125.77 16.3637C126.247 16.8185 126.637 17.4251 126.94 18.1833C127.265 18.9197 127.428 19.7754 127.428 20.7502C127.428 23.0463 126.594 24.8442 124.926 26.1439C123.258 27.4436 121.081 28.0935 118.395 28.0935Z" fill="#1E1E1E"/>
<path d="M92.0909 3.94342C85.2473 3.94342 80.9657 9.20049 80.9657 16.0807V16.0815C80.9657 23.059 85.6042 28.0889 92.1234 28.0889C95.3343 28.0889 97.5719 27.1159 99.1616 25.6227C100.718 24.1627 101.594 22.1826 101.724 20.1384H97.1178C96.8258 22.5721 94.8792 24.2276 92.1225 24.2276C88.2303 24.2276 85.7655 20.6902 85.7655 16.0815C85.7655 11.4728 87.8085 7.90289 92.09 7.90289C94.8152 7.90289 96.5662 9.42858 96.988 11.7649H101.659C101.172 7.35106 97.799 3.94342 92.0909 3.94342Z" fill="#1E1E1E"/>
<path d="M53.301 4.3979H58.2306L62.3174 17.8336C62.7716 19.3593 63.3231 21.5333 63.3231 21.5333H63.388C63.388 21.5333 63.9395 19.3268 64.3937 17.8336L68.4482 4.3979H73.2163L65.3994 27.6019H61.1179L53.301 4.3979Z" fill="#1E1E1E"/>
<path d="M79.0858 4.3979H74.3825V27.6019H79.0858V4.3979Z" fill="#1E1E1E"/>
</svg>
