<svg xmlns="http://www.w3.org/2000/svg" viewBox="0 0 32 32" width="32" height="32">
  <!-- Background -->
  <rect width="32" height="32" fill="#000000" />

  <!-- ================= BACKGROUND THUNDER SYMBOLS ================= -->
  <g id="bolts">
    <defs>
      <!-- Defined and scaled classic bolt master shape -->
      <polygon id="lightning-bolt" points="-1.6,-10.4 2.4,-10.4 -0.8,0.8 2,0.8 -2.4,11.2 0,2.4 -2.8,2.4" />
    </defs>

    <!-- Bolt Shadows (scaled from 1.2 to 1.8 and positioned) -->
    <use href="#lightning-bolt" fill="#E69500" transform="translate(16.8, 17.2) rotate(45) scale(1.8)" />
    <use href="#lightning-bolt" fill="#E69500" transform="translate(16.8, 17.2) rotate(-45) scale(1.8)" />

    <!-- Bolt Fronts (scaled from 1.2 to 1.8 and positioned) -->
    <use href="#lightning-bolt" fill="#FFE600" transform="translate(16, 16) rotate(45) scale(1.8)" />
    <use href="#lightning-bolt" fill="#FFE600" transform="translate(16, 16) rotate(-45) scale(1.8)" />
  </g>

  <!-- ================= TEXT: 0 (LEFT) ================= -->
  <!-- Left 0 is now completely visible in this space -->
  <g id="text-0-left">
    <!-- 3D Backing/Extrusion Panels -->
    <polygon points="3.6,8.8 6.8,6.4 5.84,5.44 2.64,7.84" fill="#D4E157" stroke="#D4E157" stroke-width="0.08" />
    <polygon points="3.6,8.8 2.8,20 1.84,19.04 2.64,7.84" fill="#D4E157" stroke="#D4E157" stroke-width="0.08" />
    <polygon points="2.8,20 5.2,24 4.24,23.04 1.84,19.04" fill="#D4E157" stroke="#D4E157" stroke-width="0.08" />
    <polygon points="7.6,11.2 7.2,19.2 6.24,18.24 6.64,10.24" fill="#D4E157" stroke="#D4E157" stroke-width="0.08" />
    <polygon points="7.2,19.2 5.6,20.8 4.64,19.84 6.24,18.24" fill="#D4E157" stroke="#D4E157" stroke-width="0.08" />
    <polygon points="6.8,8.8 7.6,11.2 6.64,10.24 5.84,7.84" fill="#D4E157" stroke="#D4E157" stroke-width="0.08" />
    <!-- Back Base Path -->
    <path d="M 2.64,7.84 L 5.84,5.44 L 8.24,9.44 L 7.44,19.84 L 4.24,23.04 L 1.84,19.04 Z M 4.24,9.44 L 3.44,16.64 L 4.64,19.84 L 6.24,18.24 L 6.64,10.24 L 5.84,7.84 Z" fill="#D4E157" fill-rule="evenodd" />
    <!-- Front Face -->
    <path d="M 3.6,8.8 L 6.8,6.4 L 9.2,10.4 L 8.4,20.8 L 5.2,24 L 2.8,20 Z M 5.2,10.4 L 4.4,17.6 L 5.6,20.8 L 7.2,19.2 L 7.6,11.2 L 6.8,8.8 Z" fill="#8CC63F" fill-rule="evenodd" stroke="#8CC63F" stroke-width="0.08" />
  </g>

  <!-- ================= TEXT: F ================= -->
  <g id="text-f">
    <polygon points="10,8.8 16.4,8 17.36,7.04 10.96,7.84" fill="#D4E157" stroke="#D4E157" stroke-width="0.08" />
    <polygon points="16.4,8 16.8,10 17.76,9.04 17.36,7.04" fill="#D4E157" stroke="#D4E157" stroke-width="0.08" />
    <polygon points="15.6,12.4 16,14.4 16.96,13.44 16.56,11.44" fill="#D4E157" stroke="#D4E157" stroke-width="0.08" />
    <polygon points="12,14.8 10.8,22.4 11.76,21.44 12.96,13.84" fill="#D4E157" stroke="#D4E157" stroke-width="0.08" />
    <path d="M 10.96,7.84 L 17.36,7.04 L 17.76,9.04 L 13.76,9.44 L 13.36,11.84 L 16.56,11.44 L 16.96,13.44 L 12.96,13.84 L 11.76,21.44 L 9.36,21.84 Z" fill="#D4E157" />
    <path d="M 10,8.8 L 16.4,8 L 16.8,10 L 12.8,10.4 L 12.4,12.8 L 15.6,12.4 L 16,14.4 L 12,14.8 L 10.8,22.4 L 8.4,22.8 Z" fill="#8CC63F" stroke="#8CC63F" stroke-width="0.08" />
  </g>

  <!-- ================= TEXT: P ================= -->
  <g id="text-p">
    <polygon points="17.2,9.2 21.2,8.8 22.16,7.84 18.16,8.24" fill="#D4E157" stroke="#D4E157" stroke-width="0.08" />
    <polygon points="21.2,8.8 23.6,10.4 24.56,9.44 22.16,7.84" fill="#D4E157" stroke="#D4E157" stroke-width="0.08" />
    <polygon points="23.6,10.4 23.2,14.4 24.16,13.44 24.56,9.44" fill="#D4E157" stroke="#D4E157" stroke-width="0.08" />
    <polygon points="23.2,14.4 20.4,16 21.36,15.04 24.16,13.44" fill="#D4E157" stroke="#D4E157" stroke-width="0.08" />
    <polygon points="16.8,16.4 15.6,23.2 16.56,22.24 17.76,15.44" fill="#D4E157" stroke="#D4E157" stroke-width="0.08" />
    <polygon points="18.4,11.2 17.6,14.4 18.56,13.44 19.36,10.24" fill="#D4E157" stroke="#D4E157" stroke-width="0.08" />
    <polygon points="17.6,14.4 19.6,14 20.56,13.04 18.56,13.44" fill="#D4E157" stroke="#D4E157" stroke-width="0.08" />
    <path d="M 18.16,8.24 L 22.16,7.84 L 24.56,9.44 L 24.16,13.44 L 21.36,15.04 L 17.76,15.44 L 16.56,22.24 L 14.16,22.64 Z M 19.36,10.24 L 18.56,13.44 L 20.56,13.04 L 22.56,11.44 L 21.76,9.84 Z" fill="#D4E157" fill-rule="evenodd" />
    <path d="M 17.2,9.2 L 21.2,8.8 L 23.6,10.4 L 23.2,14.4 L 20.4,16 L 16.8,16.4 L 15.6,23.2 L 13.2,23.6 Z M 18.4,11.2 L 17.6,14.4 L 19.6,14 L 21.6,12.4 L 20.8,10.8 Z" fill="#8CC63F" fill-rule="evenodd" stroke="#8CC63F" stroke-width="0.08" />
  </g>

  <!-- ================= TEXT: 0 (RIGHT) ================= -->
  <g id="text-0-right">
    <polygon points="23.6,12 26,10.4 26.96,9.44 24.56,11.04" fill="#D4E157" stroke="#D4E157" stroke-width="0.08" />
    <polygon points="26,10.4 29.2,12.8 30.16,11.84 26.96,9.44" fill="#D4E157" stroke="#D4E157" stroke-width="0.08" />
    <polygon points="29.2,12.8 28.4,22.4 29.36,21.44 30.16,11.84" fill="#D4E157" stroke="#D4E157" stroke-width="0.08" />
    <polygon points="28.4,22.4 26,24.8 26.96,23.84 29.36,21.44" fill="#D4E157" stroke="#D4E157" stroke-width="0.08" />
    <polygon points="25.2,13.6 24.8,19.2 25.76,18.24 26.16,12.64" fill="#D4E157" stroke="#D4E157" stroke-width="0.08" />
    <polygon points="24.8,19.2 26,22.4 26.96,21.44 25.76,18.24" fill="#D4E157" stroke="#D4E157" stroke-width="0.08" />
    <path d="M 24.56,11.04 L 26.96,9.44 L 30.16,11.84 L 29.36,21.44 L 26.96,23.84 L 24.56,20.64 Z M 26.16,12.64 L 25.76,18.24 L 26.96,21.44 L 28.16,19.84 L 28.56,13.44 L 27.76,11.84 Z" fill="#D4E157" fill-rule="evenodd" />
    <path d="M 23.6,12 L 26,10.4 L 29.2,12.8 L 28.4,22.4 L 26,24.8 L 23.6,21.6 Z M 25.2,13.6 L 24.8,19.2 L 26,22.4 L 27.2,20.8 L 27.6,14.4 L 26.8,12.8 Z" fill="#8CC63F" fill-rule="evenodd" stroke="#8CC63F" stroke-width="0.08" />
  </g>
</svg>
